<?xml version="1.0" encoding="UTF-8"?>
<svg width="2603px" height="88px" viewBox="0 0 2603 88" version="1.1" xmlns="http://www.w3.org/2000/svg" xmlns:xlink="http://www.w3.org/1999/xlink">
    <title>Artboard</title>
    <defs>
        <path d="M54,66 L54,49.192 L45.64,49.192 L45.64,21.208 L50.744,21.208 L50.744,32.56 L67.288,32.56 L67.288,4.4 L0.76,4.4 L0.76,32.56 L17.304,32.56 L17.304,21.208 L22.408,21.208 L22.408,49.192 L14.048,49.192 L14.048,66 L54,66 Z M136.104,66 L136.104,37.488 L119.56,37.488 L119.56,49.192 L102.4,49.192 L102.4,38.984 L106.8,38.984 L106.8,45.056 L114.808,45.056 L114.808,25.608 L106.8,25.608 L106.8,30.888 L102.4,30.888 L102.4,21.208 L119.56,21.208 L119.56,32.56 L136.104,32.56 L136.104,4.4 L70.808,4.4 L70.808,21.208 L79.168,21.208 L79.168,49.192 L70.808,49.192 L70.808,66 L136.104,66 Z M167.256,43.648 L167.256,32.912 L140.504,32.912 L140.504,43.648 L167.256,43.648 Z M236.072,66 L236.072,37.488 L219.528,37.488 L219.528,49.192 L202.368,49.192 L202.368,38.984 L206.768,38.984 L206.768,45.056 L214.776,45.056 L214.776,25.608 L206.768,25.608 L206.768,30.888 L202.368,30.888 L202.368,21.208 L219.528,21.208 L219.528,32.56 L236.072,32.56 L236.072,4.4 L170.776,4.4 L170.776,21.208 L179.136,21.208 L179.136,49.192 L170.776,49.192 L170.776,66 L236.072,66 Z M274.792,67.144 C287.464,67.144 300.4,62.128 300.4,44.528 L300.4,21.208 L308.848,21.208 L308.848,4.4 L278.576,4.4 L278.576,21.208 L284.12,21.208 L284.12,42.24 C284.12,47.96 281.568,50.072 277.52,50.072 C273.384,50.072 271.184,47.96 271.184,42.24 L271.184,21.208 L276.64,21.208 L276.64,4.4 L239.592,4.4 L239.592,21.208 L247.952,21.208 L247.952,43.56 C247.952,52.536 250.592,57.992 255.608,61.864 C260.008,65.296 266.52,67.144 274.792,67.144 Z M347.04,66 L347.04,49.192 L342.2,49.192 L342.2,44.528 L347.656,40.656 L352.584,49.192 L348.976,49.192 L348.976,66 L384.88,66 L384.88,49.192 L379.336,49.192 L365.96,27.456 L374.672,21.208 L382.68,21.208 L382.68,4.4 L348.976,4.4 L348.976,21.208 L354.696,21.208 L342.2,30.888 L342.2,21.208 L347.04,21.208 L347.04,4.4 L310.608,4.4 L310.608,21.208 L318.968,21.208 L318.968,49.192 L310.608,49.192 L310.608,66 L347.04,66 Z" id="path-1"></path>
        <path d="M429.44,66.968 C443.872,66.968 445.72,54.56 449.328,33.352 C451.604522,20.0993913 454.481989,16.6872599 454.906685,16.2447449 L454.942352,16.2086858 C454.945267,16.2058452 454.947827,16.203382 454.950028,16.2012851 L454.96,16.192 L454.96,16.192 C454.96,16.192 457.952,17.6 460.944,17.6 C464.288,17.6 467.104,14.696 467.104,11.44 C467.104,7.656 464.464,5.808 460.504,5.808 C456.034333,5.808 452.049583,9.76815278 451.725281,10.0981655 L451.704,10.12 L451.704,10.12 C451.704,10.12 446.336,5.808 437.712,5.808 C429.704,5.808 418.176,11.264 418.176,21.824 C418.176,26.224 421.344,30.008 425.832,30.008 C429.264,30.008 432.256,27.72 432.256,24.376 C432.256,20.064 428.12,19.624 428.12,16.808 C428.12,12.408 432.256,8.888 438.328,8.888 C444.4,8.888 449.328,13.552 449.328,13.552 C449.328,13.552 445.192,17.864 440.88,32.912 C436.568,47.96 433.312,60.016 424.6,60.016 C422.048,60.016 419.848,57.112 419.144,57.112 C418.44,57.112 418,57.552 418,58.256 C418,60.28 421.872,66.968 429.44,66.968 Z M476.696,66.88 C486.992,66.88 492.272,61.952 494.824,58.96 C495.44,58.256 495.528,57.992 495.528,57.552 C495.528,57.2 495.176,56.936 494.824,56.936 C494.472,56.936 494.296,57.112 493.416,58.08 C491.128,60.544 487.608,63.096 481.712,63.096 C477.576,63.096 470.096,60.72 470.096,52.096 C470.096,43.208 476.608,38.544 480.656,37.136 C484.704,35.728 487.168,36.872 487.168,34.848 C487.168,33.792 485.672,33.704 484,32.208 C482.504,30.888 480.48,28.16 480.48,22.968 C480.48,13.904 485.232,7.744 491.392,7.744 C493.064,7.744 494.12,8.712 494.12,10.472 C494.12,13.464 490.6,13.904 490.6,17.776 C490.6,20.504 492.712,22.352 495.88,22.352 C499.048,22.352 501.952,19.624 501.952,15.312 C501.952,9.68 497.024,5.632 489.632,5.632 C480.48,5.632 469.92,11.44 469.92,21.648 C469.92,29.568 478.368,33.352 478.368,33.352 C478.368,33.352 458.304,36.608 458.304,52.184 C458.304,63.008 468.864,66.88 476.696,66.88 Z M496.496,49.016 C496.848,49.016 497.552,48.224 500.016,48.224 L511.984,48.224 C516.384,48.224 518.408,43.824 518.408,42.768 C518.408,42.416 518.32,42.24 517.968,42.24 C517.44,42.24 516.824,43.12 514.272,43.12 L502.48,43.12 C498.08,43.12 495.968,47.432 495.968,48.488 C495.968,48.84 496.144,49.016 496.496,49.016 Z M539.792,66.88 C550.176,66.88 555.984,58.608 557.216,56.936 L555.984,55.968 C555.016,57.288 550.528,63.36 542.432,63.36 C538.296,63.36 531.696,60.72 531.696,52.976 C531.696,43.208 538.208,38.544 542.256,37.136 C546.304,35.728 548.768,36.872 548.768,34.848 C548.768,33.792 547.272,33.704 545.6,32.208 C544.104,30.888 542.08,28.16 542.08,22.968 C542.08,13.904 546.832,7.744 552.992,7.744 C554.664,7.744 555.72,8.712 555.72,10.472 C555.72,13.464 552.2,13.904 552.2,17.776 C552.2,20.504 554.312,22.352 557.48,22.352 C560.648,22.352 563.552,19.624 563.552,15.312 C563.552,9.68 558.624,5.632 551.232,5.632 C542.08,5.632 531.52,11.44 531.52,21.648 C531.52,29.568 539.968,33.352 539.968,33.352 C539.968,33.352 519.904,36.608 519.904,52.184 C519.904,63.008 530.464,66.88 539.792,66.88 Z M620.4,66.528 C628.936,66.528 635.712,56.936 635.712,56.936 L634.48,55.968 C633.336,57.464 628.936,63.096 624.888,63.096 C623.04,63.096 621.72,61.776 621.72,59.752 C621.72,55.1722151 623.527007,47.9714566 625.761652,40.8104337 L626.099884,39.7369109 C627.634808,34.9103925 629.333151,30.162593 630.770693,26.311805 L631.085681,25.4711726 C632.223633,22.4454332 633.16757,20.0554839 633.688,18.744 C635.888,13.2 638.704,9.504 638.704,8.272 C638.704,7.04 638.352,6.072 636.944,6.072 C635.536,6.072 632.016,7.744 628.76,8.36 C625.504,8.976 624.36,10.736 623.216,13.464 C622.072,16.192 618.024,30.888 613.36,40.128 C608.608,49.544 599.016,61.512 594.704,61.512 C592.416,61.512 590.744,59.928 590.744,56.848 C590.744,45.584 602.712,27.192 602.712,15.84 C602.712,9.592 597.872,5.72 590.92,5.72 C579.304,5.72 563.728,14.696 563.728,27.544 C563.728,32.912 567.16,37.136 571.736,37.136 C575.608,37.136 578.776,35.112 578.776,30.976 C578.776,25.872 572,26.488 572,21.296 C572,15.4 580.712,9.592 589.248,9.592 C591.624,9.592 593.56,11 593.56,13.64 C593.56,24.288 576.84,43.736 576.84,56.056 C576.84,61.952 580.272,66.44 588.104,66.44 C600.688,66.44 609.4,51.216 611.776,48.048 C611.776,48.048 611.754706,48.1289165 611.718743,48.2857811 L611.664944,48.5289218 C611.428346,49.6341728 610.896,52.5848889 610.896,56.76 C610.896,62.128 613.448,66.528 620.4,66.528 Z M652.168,67.056 C654.016,67.056 660.792,64.768 661.144,63.096 C661.45554,61.5949425 661.810377,59.9708315 662.186509,58.3021405 L662.348947,57.5844866 C662.621638,56.3846104 662.903589,55.1677089 663.186784,53.9623804 L663.356785,53.2408007 C664.263572,49.4022232 665.166663,45.7407215 665.80332,43.1934013 L665.919507,42.7290644 C665.957152,42.5787902 665.993693,42.433097 666.029064,42.2922138 L666.131607,41.8842222 C666.477784,40.5083567 666.688,39.688 666.688,39.688 L666.697883,39.6880289 L666.774023,39.6887794 C667.258378,39.6955339 669.676966,39.7608276 671.176,40.392 C673.112,41.184 674.168,42.152 675.752,52.008 C677.336,61.864 679.624,66.528 687.016,66.528 C694.408,66.528 700.744,56.936 700.744,56.936 L699.512,55.968 C698.984,56.672 697.048,59.4 693.792,59.4 C689.392,59.4 686.928,52.008 685.344,46.552 C683.76,41.184 679.8,37.576 676.192,36.872 C685.872,30.888 699.336,19.36 699.336,12.408 C699.336,8.272 697.4,6.16 693.704,6.16 C690.008,6.16 686.664,9.152 686.664,12.408 C686.664,15.664 687.544,17.424 687.544,19.8 C687.544,22.176 683.056,28.336 677.864,32.384 C672.945263,36.2189474 668.263468,36.3418061 667.784273,36.3441155 L667.748525,36.3440584 C667.745517,36.3440271 667.744,36.344 667.744,36.344 C667.744,36.344 669.944,26.048 676.192,13.552 C677.776,10.384 680.064,8.096 680.064,7.392 C680.064,6.6 679.36,6.16 678.48,6.16 C662.464,6.16 637.384,12.584 637.384,30.888 C637.384,35.992 641.08,39.864 646.272,39.864 C649.704,39.864 652.432,37.4 652.432,34.144 C652.432,28.864 645.656,28.776 645.656,24.816 C645.656,15.576 663.344,10.384 670.384,10.296 C670.12,10.472 667.216,11.704 664.4,14.696 C662.526452,16.6547097 660.323247,25.453794 657.630874,35.1115805 L657.36,36.08 L657.36,36.08 C657.020138,37.2937931 656.683996,38.5098185 656.353765,39.7188391 L656.107233,40.624147 C656.066341,40.7747646 656.025549,40.9252367 655.984863,41.0755452 L655.74204,41.9752892 C652.763642,53.0443631 650.408,63.0201379 650.408,64.592 C650.408,66.264 651.024,67.056 652.168,67.056 Z" id="path-2"></path>
        <path d="M1932.44,66.968 C1946.872,66.968 1948.72,54.56 1952.328,33.352 C1954.60452,20.0993913 1957.48199,16.6872599 1957.90668,16.2447449 L1957.94235,16.2086858 C1957.94527,16.2058452 1957.94783,16.203382 1957.95003,16.2012851 L1957.96,16.192 L1957.96,16.192 C1957.96,16.192 1960.952,17.6 1963.944,17.6 C1967.288,17.6 1970.104,14.696 1970.104,11.44 C1970.104,7.656 1967.464,5.808 1963.504,5.808 C1959.03433,5.808 1955.04958,9.76815278 1954.72528,10.0981655 L1954.704,10.12 L1954.704,10.12 C1954.704,10.12 1949.336,5.808 1940.712,5.808 C1932.704,5.808 1921.176,11.264 1921.176,21.824 C1921.176,26.224 1924.344,30.008 1928.832,30.008 C1932.264,30.008 1935.256,27.72 1935.256,24.376 C1935.256,20.064 1931.12,19.624 1931.12,16.808 C1931.12,12.408 1935.256,8.888 1941.328,8.888 C1947.4,8.888 1952.328,13.552 1952.328,13.552 C1952.328,13.552 1948.192,17.864 1943.88,32.912 C1939.568,47.96 1936.312,60.016 1927.6,60.016 C1925.048,60.016 1922.848,57.112 1922.144,57.112 C1921.44,57.112 1921,57.552 1921,58.256 C1921,60.28 1924.872,66.968 1932.44,66.968 Z M1979.696,66.88 C1989.992,66.88 1995.272,61.952 1997.824,58.96 C1998.44,58.256 1998.528,57.992 1998.528,57.552 C1998.528,57.2 1998.176,56.936 1997.824,56.936 C1997.472,56.936 1997.296,57.112 1996.416,58.08 C1994.128,60.544 1990.608,63.096 1984.712,63.096 C1980.576,63.096 1973.096,60.72 1973.096,52.096 C1973.096,43.208 1979.608,38.544 1983.656,37.136 C1987.704,35.728 1990.168,36.872 1990.168,34.848 C1990.168,33.792 1988.672,33.704 1987,32.208 C1985.504,30.888 1983.48,28.16 1983.48,22.968 C1983.48,13.904 1988.232,7.744 1994.392,7.744 C1996.064,7.744 1997.12,8.712 1997.12,10.472 C1997.12,13.464 1993.6,13.904 1993.6,17.776 C1993.6,20.504 1995.712,22.352 1998.88,22.352 C2002.048,22.352 2004.952,19.624 2004.952,15.312 C2004.952,9.68 2000.024,5.632 1992.632,5.632 C1983.48,5.632 1972.92,11.44 1972.92,21.648 C1972.92,29.568 1981.368,33.352 1981.368,33.352 C1981.368,33.352 1961.304,36.608 1961.304,52.184 C1961.304,63.008 1971.864,66.88 1979.696,66.88 Z M1999.496,49.016 C1999.848,49.016 2000.552,48.224 2003.016,48.224 L2014.984,48.224 C2019.384,48.224 2021.408,43.824 2021.408,42.768 C2021.408,42.416 2021.32,42.24 2020.968,42.24 C2020.44,42.24 2019.824,43.12 2017.272,43.12 L2005.48,43.12 C2001.08,43.12 1998.968,47.432 1998.968,48.488 C1998.968,48.84 1999.144,49.016 1999.496,49.016 Z M2042.792,66.88 C2053.176,66.88 2058.984,58.608 2060.216,56.936 L2058.984,55.968 C2058.016,57.288 2053.528,63.36 2045.432,63.36 C2041.296,63.36 2034.696,60.72 2034.696,52.976 C2034.696,43.208 2041.208,38.544 2045.256,37.136 C2049.304,35.728 2051.768,36.872 2051.768,34.848 C2051.768,33.792 2050.272,33.704 2048.6,32.208 C2047.104,30.888 2045.08,28.16 2045.08,22.968 C2045.08,13.904 2049.832,7.744 2055.992,7.744 C2057.664,7.744 2058.72,8.712 2058.72,10.472 C2058.72,13.464 2055.2,13.904 2055.2,17.776 C2055.2,20.504 2057.312,22.352 2060.48,22.352 C2063.648,22.352 2066.552,19.624 2066.552,15.312 C2066.552,9.68 2061.624,5.632 2054.232,5.632 C2045.08,5.632 2034.52,11.44 2034.52,21.648 C2034.52,29.568 2042.968,33.352 2042.968,33.352 C2042.968,33.352 2022.904,36.608 2022.904,52.184 C2022.904,63.008 2033.464,66.88 2042.792,66.88 Z M2123.4,66.528 C2131.936,66.528 2138.712,56.936 2138.712,56.936 L2137.48,55.968 C2136.336,57.464 2131.936,63.096 2127.888,63.096 C2126.04,63.096 2124.72,61.776 2124.72,59.752 C2124.72,55.1722151 2126.52701,47.9714566 2128.76165,40.8104337 L2129.09988,39.7369109 C2130.63481,34.9103925 2132.33315,30.162593 2133.77069,26.311805 L2134.08568,25.4711726 C2135.22363,22.4454332 2136.16757,20.0554839 2136.688,18.744 C2138.888,13.2 2141.704,9.504 2141.704,8.272 C2141.704,7.04 2141.352,6.072 2139.944,6.072 C2138.536,6.072 2135.016,7.744 2131.76,8.36 C2128.504,8.976 2127.36,10.736 2126.216,13.464 C2125.072,16.192 2121.024,30.888 2116.36,40.128 C2111.608,49.544 2102.016,61.512 2097.704,61.512 C2095.416,61.512 2093.744,59.928 2093.744,56.848 C2093.744,45.584 2105.712,27.192 2105.712,15.84 C2105.712,9.592 2100.872,5.72 2093.92,5.72 C2082.304,5.72 2066.728,14.696 2066.728,27.544 C2066.728,32.912 2070.16,37.136 2074.736,37.136 C2078.608,37.136 2081.776,35.112 2081.776,30.976 C2081.776,25.872 2075,26.488 2075,21.296 C2075,15.4 2083.712,9.592 2092.248,9.592 C2094.624,9.592 2096.56,11 2096.56,13.64 C2096.56,24.288 2079.84,43.736 2079.84,56.056 C2079.84,61.952 2083.272,66.44 2091.104,66.44 C2103.688,66.44 2112.4,51.216 2114.776,48.048 C2114.776,48.048 2114.75471,48.1289165 2114.71874,48.2857811 L2114.66494,48.5289218 C2114.42835,49.6341728 2113.896,52.5848889 2113.896,56.76 C2113.896,62.128 2116.448,66.528 2123.4,66.528 Z M2155.168,67.056 C2157.016,67.056 2163.792,64.768 2164.144,63.096 C2164.45554,61.5949425 2164.81038,59.9708315 2165.18651,58.3021405 L2165.34895,57.5844866 C2165.62164,56.3846104 2165.90359,55.1677089 2166.18678,53.9623804 L2166.35679,53.2408007 C2167.26357,49.4022232 2168.16666,45.7407215 2168.80332,43.1934013 L2168.91951,42.7290644 C2168.95715,42.5787902 2168.99369,42.433097 2169.02906,42.2922138 L2169.13161,41.8842222 C2169.47778,40.5083567 2169.688,39.688 2169.688,39.688 L2169.69788,39.6880289 L2169.77402,39.6887794 C2170.25838,39.6955339 2172.67697,39.7608276 2174.176,40.392 C2176.112,41.184 2177.168,42.152 2178.752,52.008 C2180.336,61.864 2182.624,66.528 2190.016,66.528 C2197.408,66.528 2203.744,56.936 2203.744,56.936 L2202.512,55.968 C2201.984,56.672 2200.048,59.4 2196.792,59.4 C2192.392,59.4 2189.928,52.008 2188.344,46.552 C2186.76,41.184 2182.8,37.576 2179.192,36.872 C2188.872,30.888 2202.336,19.36 2202.336,12.408 C2202.336,8.272 2200.4,6.16 2196.704,6.16 C2193.008,6.16 2189.664,9.152 2189.664,12.408 C2189.664,15.664 2190.544,17.424 2190.544,19.8 C2190.544,22.176 2186.056,28.336 2180.864,32.384 C2175.94526,36.2189474 2171.26347,36.3418061 2170.78427,36.3441155 L2170.74853,36.3440584 C2170.74552,36.3440271 2170.744,36.344 2170.744,36.344 C2170.744,36.344 2172.944,26.048 2179.192,13.552 C2180.776,10.384 2183.064,8.096 2183.064,7.392 C2183.064,6.6 2182.36,6.16 2181.48,6.16 C2165.464,6.16 2140.384,12.584 2140.384,30.888 C2140.384,35.992 2144.08,39.864 2149.272,39.864 C2152.704,39.864 2155.432,37.4 2155.432,34.144 C2155.432,28.864 2148.656,28.776 2148.656,24.816 C2148.656,15.576 2166.344,10.384 2173.384,10.296 C2173.12,10.472 2170.216,11.704 2167.4,14.696 C2165.52645,16.6547097 2163.32325,25.453794 2160.63087,35.1115805 L2160.36,36.08 L2160.36,36.08 C2160.02014,37.2937931 2159.684,38.5098185 2159.35376,39.7188391 L2159.10723,40.624147 C2159.06634,40.7747646 2159.02555,40.9252367 2158.98486,41.0755452 L2158.74204,41.9752892 C2155.76364,53.0443631 2153.408,63.0201379 2153.408,64.592 C2153.408,66.264 2154.024,67.056 2155.168,67.056 Z" id="path-3"></path>
        <path d="M750.2,66 L750.2,3.96 L774.64,3.96 L774.64,2.08 L723.88,2.08 L723.88,3.96 L748.32,3.96 L748.32,66 L750.2,66 Z M829.63,66 L829.63,64.12 L788.27,64.12 L788.27,34.51 L821.17,34.51 L821.17,32.63 L788.27,32.63 L788.27,3.96 L829.63,3.96 L829.63,2.08 L786.39,2.08 L786.39,66 L829.63,66 Z M869.58,37.33 L869.58,35.45 L837.15,35.45 L837.15,37.33 L869.58,37.33 Z M926.45,66 L926.45,64.12 L885.09,64.12 L885.09,34.51 L917.99,34.51 L917.99,32.63 L885.09,32.63 L885.09,3.96 L926.45,3.96 L926.45,2.08 L883.21,2.08 L883.21,66 L926.45,66 Z M964.05,68.82 C967.559333,68.82 970.786667,68.2246671 973.732,67.034 C976.677333,65.8433329 979.199667,64.1356671 981.299,61.911 C983.398333,59.6863329 985.043333,56.976 986.234,53.78 C987.424667,50.584 988.02,46.9806671 988.02,42.97 L988.02,2.08 L986.14,2.08 L986.14,42.97 C986.14,46.73 985.607333,50.0983329 984.542,53.075 C983.476667,56.0516671 981.972667,58.5583329 980.03,60.595 C978.087333,62.6316671 975.753,64.1983329 973.027,65.295 C970.301,66.3916671 967.308667,66.94 964.05,66.94 C960.728667,66.94 957.720667,66.3916671 955.026,65.295 C952.331333,64.1983329 950.012667,62.6316671 948.07,60.595 C946.127333,58.5583329 944.623333,56.0516671 943.558,53.075 C942.492667,50.0983329 941.96,46.73 941.96,42.97 L941.96,2.08 L940.08,2.08 L940.08,42.97 C940.08,46.9806671 940.659667,50.584 941.819,53.78 C942.978333,56.976 944.623333,59.6863329 946.754,61.911 C948.884667,64.1356671 951.422667,65.8433329 954.368,67.034 C957.313333,68.2246671 960.540667,68.82 964.05,68.82 Z M1009.64,66 L1009.64,44.85 L1025.62,28.4 L1049.496,66 L1051.94,66 L1027.03,26.99 L1051,2.08 L1048.18,2.08 L1009.64,42.03 L1009.64,2.08 L1007.76,2.08 L1007.76,66 L1009.64,66 Z" id="path-4"></path>
        <path d="M2253.2,66 L2253.2,3.96 L2277.64,3.96 L2277.64,2.08 L2226.88,2.08 L2226.88,3.96 L2251.32,3.96 L2251.32,66 L2253.2,66 Z M2332.63,66 L2332.63,64.12 L2291.27,64.12 L2291.27,34.51 L2324.17,34.51 L2324.17,32.63 L2291.27,32.63 L2291.27,3.96 L2332.63,3.96 L2332.63,2.08 L2289.39,2.08 L2289.39,66 L2332.63,66 Z M2372.58,37.33 L2372.58,35.45 L2340.15,35.45 L2340.15,37.33 L2372.58,37.33 Z M2429.45,66 L2429.45,64.12 L2388.09,64.12 L2388.09,34.51 L2420.99,34.51 L2420.99,32.63 L2388.09,32.63 L2388.09,3.96 L2429.45,3.96 L2429.45,2.08 L2386.21,2.08 L2386.21,66 L2429.45,66 Z M2467.05,68.82 C2470.55933,68.82 2473.78667,68.2246671 2476.732,67.034 C2479.67733,65.8433329 2482.19967,64.1356671 2484.299,61.911 C2486.39833,59.6863329 2488.04333,56.976 2489.234,53.78 C2490.42467,50.584 2491.02,46.9806671 2491.02,42.97 L2491.02,2.08 L2489.14,2.08 L2489.14,42.97 C2489.14,46.73 2488.60733,50.0983329 2487.542,53.075 C2486.47667,56.0516671 2484.97267,58.5583329 2483.03,60.595 C2481.08733,62.6316671 2478.753,64.1983329 2476.027,65.295 C2473.301,66.3916671 2470.30867,66.94 2467.05,66.94 C2463.72867,66.94 2460.72067,66.3916671 2458.026,65.295 C2455.33133,64.1983329 2453.01267,62.6316671 2451.07,60.595 C2449.12733,58.5583329 2447.62333,56.0516671 2446.558,53.075 C2445.49267,50.0983329 2444.96,46.73 2444.96,42.97 L2444.96,2.08 L2443.08,2.08 L2443.08,42.97 C2443.08,46.9806671 2443.65967,50.584 2444.819,53.78 C2445.97833,56.976 2447.62333,59.6863329 2449.754,61.911 C2451.88467,64.1356671 2454.42267,65.8433329 2457.368,67.034 C2460.31333,68.2246671 2463.54067,68.82 2467.05,68.82 Z M2512.64,66 L2512.64,44.85 L2528.62,28.4 L2552.496,66 L2554.94,66 L2530.03,26.99 L2554,2.08 L2551.18,2.08 L2512.64,42.03 L2512.64,2.08 L2510.76,2.08 L2510.76,66 L2512.64,66 Z" id="path-5"></path>
        <path d="M1137.76,66 L1137.76,35.826 L1125.164,35.826 L1125.164,29.058 L1138.606,29.058 C1141.332,29.058 1141.99,30.75 1141.99,33.006 L1141.99,34.228 L1151.296,34.228 L1151.296,0.2 L1089.35,0.2 L1089.35,34.228 L1098.656,34.228 L1098.656,33.006 C1098.656,30.75 1099.22,29.058 1101.946,29.058 L1115.482,29.058 L1115.482,30.468 C1115.482,34.886 1113.508,36.202 1109.654,36.202 L1102.886,36.202 L1102.886,66 L1137.76,66 Z M1210.986,66 L1210.986,36.014 L1201.774,36.014 L1201.774,37.424 C1201.774,39.492 1201.304,40.996 1198.39,40.996 L1171.694,40.996 C1169.814,40.996 1168.968,39.398 1168.968,37.988 C1168.968,36.578 1169.814,34.98 1171.694,34.98 L1194.63,34.98 C1196.416,34.98 1197.356,33.758 1197.356,32.348 C1197.356,30.938 1196.416,29.81 1194.63,29.81 L1171.506,29.81 C1169.814,29.81 1168.968,28.212 1168.968,26.802 C1168.968,25.392 1169.814,23.794 1171.506,23.794 L1197.262,23.794 C1199.894,23.794 1200.646,24.922 1200.646,27.366 L1200.646,28.024 L1209.858,28.024 L1209.858,0.2 L1172.54,0.2 C1160.79,0.2 1155.526,9.224 1155.526,18.154 C1155.526,24.358 1157.688,29.528 1161.824,32.724 C1156.936,36.108 1154.586,41.56 1154.586,47.764 C1154.586,57.164 1160.602,66 1172.54,66 L1210.986,66 Z M1256.106,40.996 L1256.106,23.794 L1215.686,23.794 L1215.686,40.996 L1256.106,40.996 Z M1316.736,66 L1316.736,36.014 L1307.524,36.014 L1307.524,37.424 C1307.524,39.492 1307.054,40.996 1304.14,40.996 L1277.444,40.996 C1275.564,40.996 1274.718,39.398 1274.718,37.988 C1274.718,36.578 1275.564,34.98 1277.444,34.98 L1300.38,34.98 C1302.166,34.98 1303.106,33.758 1303.106,32.348 C1303.106,30.938 1302.166,29.81 1300.38,29.81 L1277.256,29.81 C1275.564,29.81 1274.718,28.212 1274.718,26.802 C1274.718,25.392 1275.564,23.794 1277.256,23.794 L1303.012,23.794 C1305.644,23.794 1306.396,24.922 1306.396,27.366 L1306.396,28.024 L1315.608,28.024 L1315.608,0.2 L1278.29,0.2 C1266.54,0.2 1261.276,9.224 1261.276,18.154 C1261.276,24.358 1263.438,29.528 1267.574,32.724 C1262.686,36.108 1260.336,41.56 1260.336,47.764 C1260.336,57.164 1266.352,66 1278.29,66 L1316.736,66 Z M1360.634,66.376 C1371.068,66.376 1381.408,62.71 1381.408,49.08 L1381.408,35.638 C1381.408,31.126 1383.57,29.152 1387.988,29.152 L1388.364,29.152 L1388.364,0.2 L1356.686,0.2 L1356.686,29.81 L1372.666,29.81 L1372.666,32.066 C1372.666,33.946 1371.632,34.98 1370.128,34.98 L1338.732,34.98 C1337.228,34.98 1336.194,33.946 1336.194,32.066 L1336.194,29.81 L1352.174,29.81 L1352.174,0.2 L1320.496,0.2 L1320.496,29.152 L1320.872,29.152 C1325.29,29.152 1327.452,31.126 1327.452,35.638 L1327.452,49.08 C1327.452,62.71 1337.792,66.376 1348.226,66.376 L1360.634,66.376 Z M1425.212,66 L1425.212,40.996 L1409.608,40.996 L1409.608,34.98 L1426.998,34.98 C1429.066,34.98 1429.818,35.544 1429.818,37.706 L1429.818,58.104 C1429.818,62.804 1432.826,66 1440.722,66 L1464.034,66 C1465.82,66 1466.76,64.684 1466.76,63.274 C1466.76,61.958 1465.82,60.548 1464.034,60.548 C1462.154,60.548 1461.402,59.796 1461.402,57.916 L1461.402,40.526 C1461.402,34.698 1457.172,29.81 1448.148,29.81 L1440.722,29.81 L1440.722,28.306 L1454.352,23.794 L1461.402,23.794 L1461.402,0.2 L1429.818,0.2 L1429.818,23.794 L1434.988,23.794 L1434.988,25.58 L1421.17,29.81 L1409.608,29.81 L1409.608,23.794 L1425.212,23.794 L1425.212,0.2 L1393.064,0.2 L1393.064,23.794 L1399.926,23.794 L1399.926,34.604 C1399.926,39.022 1397.952,41.654 1393.44,41.654 L1393.064,41.654 L1393.064,66 L1425.212,66 Z" id="path-6"></path>
        <path d="M1557,66 L1557,49.192 L1548.64,49.192 L1548.64,21.208 L1553.744,21.208 L1553.744,32.56 L1570.288,32.56 L1570.288,4.4 L1503.76,4.4 L1503.76,32.56 L1520.304,32.56 L1520.304,21.208 L1525.408,21.208 L1525.408,49.192 L1517.048,49.192 L1517.048,66 L1557,66 Z M1639.104,66 L1639.104,37.488 L1622.56,37.488 L1622.56,49.192 L1605.4,49.192 L1605.4,38.984 L1609.8,38.984 L1609.8,45.056 L1617.808,45.056 L1617.808,25.608 L1609.8,25.608 L1609.8,30.888 L1605.4,30.888 L1605.4,21.208 L1622.56,21.208 L1622.56,32.56 L1639.104,32.56 L1639.104,4.4 L1573.808,4.4 L1573.808,21.208 L1582.168,21.208 L1582.168,49.192 L1573.808,49.192 L1573.808,66 L1639.104,66 Z M1670.256,43.648 L1670.256,32.912 L1643.504,32.912 L1643.504,43.648 L1670.256,43.648 Z M1739.072,66 L1739.072,37.488 L1722.528,37.488 L1722.528,49.192 L1705.368,49.192 L1705.368,38.984 L1709.768,38.984 L1709.768,45.056 L1717.776,45.056 L1717.776,25.608 L1709.768,25.608 L1709.768,30.888 L1705.368,30.888 L1705.368,21.208 L1722.528,21.208 L1722.528,32.56 L1739.072,32.56 L1739.072,4.4 L1673.776,4.4 L1673.776,21.208 L1682.136,21.208 L1682.136,49.192 L1673.776,49.192 L1673.776,66 L1739.072,66 Z M1777.792,67.144 C1790.464,67.144 1803.4,62.128 1803.4,44.528 L1803.4,21.208 L1811.848,21.208 L1811.848,4.4 L1781.576,4.4 L1781.576,21.208 L1787.12,21.208 L1787.12,42.24 C1787.12,47.96 1784.568,50.072 1780.52,50.072 C1776.384,50.072 1774.184,47.96 1774.184,42.24 L1774.184,21.208 L1779.64,21.208 L1779.64,4.4 L1742.592,4.4 L1742.592,21.208 L1750.952,21.208 L1750.952,43.56 C1750.952,52.536 1753.592,57.992 1758.608,61.864 C1763.008,65.296 1769.52,67.144 1777.792,67.144 Z M1850.04,66 L1850.04,49.192 L1845.2,49.192 L1845.2,44.528 L1850.656,40.656 L1855.584,49.192 L1851.976,49.192 L1851.976,66 L1887.88,66 L1887.88,49.192 L1882.336,49.192 L1868.96,27.456 L1877.672,21.208 L1885.68,21.208 L1885.68,4.4 L1851.976,4.4 L1851.976,21.208 L1857.696,21.208 L1845.2,30.888 L1845.2,21.208 L1850.04,21.208 L1850.04,4.4 L1813.608,4.4 L1813.608,21.208 L1821.968,21.208 L1821.968,49.192 L1813.608,49.192 L1813.608,66 L1850.04,66 Z" id="path-7"></path>
    </defs>
    <g id="Artboard" stroke="none" stroke-width="1" fill="none" fill-rule="evenodd">
        <g id="title_2" transform="translate(17.000000, 10.000000)" fill-rule="nonzero">
            <g id="TE-EUK">
                <use fill="#000000" xlink:href="#path-1"></use>
                <use fill="#FFFFFF" xlink:href="#path-1"></use>
            </g>
            <g id="TE-EUK">
                <use fill="#000000" xlink:href="#path-2"></use>
                <use fill="#FFFFFF" xlink:href="#path-2"></use>
            </g>
            <g id="TE-EUK">
                <use fill="#000000" xlink:href="#path-3"></use>
                <use fill="#FFFFFF" xlink:href="#path-3"></use>
            </g>
            <g id="TE-EUK">
                <use fill="#000000" xlink:href="#path-4"></use>
                <use fill="#FFFFFF" xlink:href="#path-4"></use>
            </g>
            <g id="TE-EUK">
                <use fill="#000000" xlink:href="#path-5"></use>
                <use fill="#FFFFFF" xlink:href="#path-5"></use>
            </g>
            <g id="TE-EUK">
                <use fill="#000000" xlink:href="#path-6"></use>
                <use fill="#FFFFFF" xlink:href="#path-6"></use>
            </g>
            <g id="TE-EUK">
                <use fill="#000000" xlink:href="#path-7"></use>
                <use fill="#FFFFFF" xlink:href="#path-7"></use>
            </g>
        </g>
    </g>
</svg>