<?xml version="1.0" encoding="UTF-8"?>
<svg width="153px" height="54px" viewBox="0 0 153 54" version="1.1" xmlns="http://www.w3.org/2000/svg" xmlns:xlink="http://www.w3.org/1999/xlink">
    <title>star</title>
    <g id="Page-1" stroke="none" stroke-width="1" fill="none" fill-rule="evenodd">
        <polygon id="star" fill="#000000" points="76.5 48.2544643 65.0982666 53.6984323 58.7495539 47.3101881 43.307894 51.3261594 42.5763128 44.5612625 24.4667856 46.7924005 29.4173403 40.2519417 10.2490566 40.5 20.4418686 34.7651278 1.91801472 33.0080652 16.4474079 28.5883481 0.213909516 24.9822875 17.7888836 22.2704368 5.28815823 17.1357923 24.3470996 16.3727679 16.6898916 10.1657753 35.5393297 11.4193752 33.4060156 4.69155309 50.3710951 7.85038937 53.9512292 1.19953424 67.5245284 5.98293052 76.5 0 85.4754716 5.98293052 99.0487708 1.19953424 102.628905 7.85038937 119.593984 4.69155309 117.46067 11.4193752 136.310108 10.1657753 128.6529 16.3727679 147.711842 17.1357923 135.211116 22.2704368 152.78609 24.9822875 136.552592 28.5883481 151.081985 33.0080652 132.558131 34.7651278 142.750943 40.5 123.58266 40.2519417 128.533214 46.7924005 110.423687 44.5612625 109.692106 51.3261594 94.2504461 47.3101881 87.9017334 53.6984323"></polygon>
    </g>
</svg>