<?xml version="1.0" standalone="no"?>
<!DOCTYPE svg PUBLIC "-//W3C//DTD SVG 1.1//EN" "http://www.w3.org/Graphics/SVG/1.1/DTD/svg11.dtd" >
<svg xmlns="http://www.w3.org/2000/svg" xmlns:xlink="http://www.w3.org/1999/xlink" version="1.1">
<metadata>
Created by FontForge 20170924 at Thu Sep  3 12:19:11 2015
 By www-data
Copyright (c) 2015 by Typetype. Designer Ivan Gladkikh, technical designers Maria Mizernitskaya, Nadyr Rakhimov. All rights reserved.
</metadata>
<defs>
<font id="TTFirs-ExtraBold" horiz-adv-x="570" >
  <font-face 
    font-family="TTFirs-ExtraBold"
    font-weight="400"
    font-stretch="normal"
    units-per-em="1000"
    panose-1="2 0 9 3 2 0 0 2 0 3"
    ascent="760"
    descent="-240"
    x-height="480"
    cap-height="700"
    bbox="-85 -314 1130 990"
    underline-thickness="50"
    underline-position="-200"
    unicode-range="U+000D-F6D4"
  />
<missing-glyph horiz-adv-x="0" 
 />
    <glyph glyph-name=".notdef" horiz-adv-x="0" 
 />
    <glyph glyph-name=".null" horiz-adv-x="0" 
 />
    <glyph glyph-name=".null" horiz-adv-x="0" 
 />
    <glyph glyph-name="nonmarkingreturn" unicode="&#xd;" horiz-adv-x="0" 
 />
    <glyph glyph-name="space" unicode=" " horiz-adv-x="190" 
 />
    <glyph glyph-name="exclam" unicode="!" horiz-adv-x="280" 
d="M215 375l-28 -150h-94l-28 150v325h150v-325zM60 60q0 34 23 57t57 23t57 -23t23 -57t-23 -57t-57 -23t-57 23t-23 57z" />
    <glyph glyph-name="quotedbl" unicode="&#x22;" horiz-adv-x="395" 
d="M165 570l-20 -110h-75l-20 110v130h115v-130zM345 570l-20 -110h-75l-20 110v130h115v-130z" />
    <glyph glyph-name="numbersign" unicode="#" horiz-adv-x="710" 
d="M65 0l50 170h-85v120h120l30 115h-90v120h125l50 175h140l-50 -175h110l50 175h140l-50 -175h75v-120h-110l-30 -115h80v-120h-115l-50 -170h-140l50 170h-110l-50 -170h-140zM290 290h110l30 115h-110z" />
    <glyph glyph-name="dollar" unicode="$" horiz-adv-x="540" 
d="M205 70q-36 6 -66.5 21t-54.5 38t-40.5 52.5t-23.5 63.5l125 20q11 -34 41.5 -59.5t83.5 -25.5t76.5 19.5t23.5 45.5q0 19 -23.5 29t-59.5 18t-77 18t-77 28t-59.5 48t-23.5 79q0 60 41.5 102.5t113.5 57.5v95h120v-95q75 -11 120.5 -53.5t64.5 -106.5l-125 -20
q-11 30 -35.5 50t-69.5 20q-49 0 -69.5 -16t-20.5 -39q0 -21 23.5 -31.5t59.5 -18.5t77 -17t77 -26t59.5 -46t23.5 -76q0 -30 -13.5 -58.5t-38 -51.5t-58.5 -40.5t-75 -24.5v-93h-120v93z" />
    <glyph glyph-name="percent" unicode="%" horiz-adv-x="755" 
d="M245 0h-150l415 700h150zM180 480q19 0 34.5 18t15.5 52t-15.5 52t-34.5 18t-34.5 -18t-15.5 -52t15.5 -52t34.5 -18zM180 380q-32 0 -61 13t-51 36t-35 54t-13 67t13 67t35 54t51 36t61 13t61 -13t51 -36t35 -54t13 -67t-13 -67t-35 -54t-51 -36t-61 -13zM575 80
q19 0 34.5 18t15.5 52t-15.5 52t-34.5 18t-34.5 -18t-15.5 -52t15.5 -52t34.5 -18zM575 -20q-32 0 -61 13t-51 36t-35 54t-13 67t13 67t35 54t51 36t61 13t61 -13t51 -36t35 -54t13 -67t-13 -67t-35 -54t-51 -36t-61 -13z" />
    <glyph glyph-name="ampersand" unicode="&#x26;" horiz-adv-x="665" 
d="M205 420l-95 140v140h445v-140h-255v-10l375 -550h-185l-35 50h-10q-19 -22 -45 -40q-23 -15 -58 -27.5t-84 -12.5q-50 0 -92 16.5t-72 45t-47 67t-17 81.5q0 64 27 108t60 71q39 32 88 51v10zM285 110q23 0 40.5 7.5t29.5 17.5q14 11 25 25l-105 155q-25 -11 -43 -28
q-16 -14 -29 -35.5t-13 -51.5q0 -38 26.5 -64t68.5 -26z" />
    <glyph glyph-name="quotesingle" unicode="'" horiz-adv-x="215" 
d="M165 570l-20 -110h-75l-20 110v130h115v-130z" />
    <glyph glyph-name="parenleft" unicode="(" horiz-adv-x="370" 
d="M195 290q0 -83 25.5 -148t56.5 -110q36 -53 83 -92l-65 -120q-72 52 -128 122q-24 30 -47 67t-40.5 80.5t-28.5 94t-11 106.5t11 106t28.5 93.5t40.5 80.5t47 67q56 70 128 123l65 -120q-47 -40 -83 -93q-31 -45 -56.5 -109.5t-25.5 -147.5z" />
    <glyph glyph-name="parenright" unicode=")" horiz-adv-x="370" 
d="M175 290q0 41 -7 78t-19 69t-27 59.5t-30 50.5q-36 53 -82 93l65 120q71 -53 127 -123q24 -30 47 -67t41 -80.5t29 -93.5t11 -106t-11 -106.5t-29 -94t-41 -80.5t-47 -67q-56 -70 -127 -122l-65 120q46 39 82 92q15 22 30 50t27 60.5t19 69.5t7 78z" />
    <glyph glyph-name="asterisk" unicode="*" horiz-adv-x="380" 
d="M130 360l-80 55l60 85h-80v100h110v100h100v-100h110v-100h-80l60 -85l-80 -55l-60 90z" />
    <glyph glyph-name="plus" unicode="+" horiz-adv-x="455" 
d="M435 370v-125h-145v-150h-125v150h-145v125h145v150h125v-150h145z" />
    <glyph glyph-name="comma" unicode="," horiz-adv-x="220" 
d="M30 60q0 34 23 57t57 23t57 -23t23 -57q0 -11 -2.5 -20t-5.5 -16l-7 -14l-80 -110h-60l35 90q-11 6 -20 16q-8 8 -14 21.5t-6 32.5z" />
    <glyph glyph-name="hyphen" unicode="-" horiz-adv-x="420" 
d="M20 245v125h380v-125h-380z" />
    <glyph glyph-name="period" unicode="." horiz-adv-x="220" 
d="M30 60q0 34 23 57t57 23t57 -23t23 -57t-23 -57t-57 -23t-57 23t-23 57z" />
    <glyph glyph-name="slash" unicode="/" horiz-adv-x="430" 
d="M265 700h155l-255 -700h-155z" />
    <glyph glyph-name="zero" unicode="0" horiz-adv-x="730" 
d="M185 350q0 -56 15.5 -100.5t41 -75.5t57.5 -47.5t66 -16.5t66 16.5t57.5 47.5t41 75.5t15.5 100.5t-15.5 100.5t-41 75.5t-57.5 47.5t-66 16.5t-66 -16.5t-57.5 -47.5t-41 -75.5t-15.5 -100.5zM700 350q0 -83 -27.5 -152.5t-74 -120t-107 -79t-126.5 -28.5t-126.5 28.5
t-107 79t-74 120t-27.5 152.5q0 82 27.5 152t74 120.5t107 79t126.5 28.5t126.5 -28.5t107 -79t74 -120.5t27.5 -152z" />
    <glyph glyph-name="one" unicode="1" horiz-adv-x="355" 
d="M140 480h-120v105q26 0 49.5 10t41.5 26.5t28.5 37t10.5 41.5h145v-700h-155v480z" />
    <glyph glyph-name="two" unicode="2" horiz-adv-x="625" 
d="M430 500q0 17 -8 33t-22.5 29t-35 20.5t-44.5 7.5q-57 0 -88.5 -27.5t-46.5 -72.5l-155 15q9 43 34 83.5t62.5 72t86.5 50.5t107 19t106.5 -19t84 -51t55 -73.5t19.5 -86.5q0 -60 -28 -101t-71 -70t-93.5 -50t-95 -41t-76 -43t-36.5 -55h398v-140h-553v120
q0 60 29.5 102.5t74 74t96.5 55t96.5 45.5t74 46t29.5 57z" />
    <glyph glyph-name="three" unicode="3" horiz-adv-x="610" 
d="M155 220q11 -45 48 -77.5t97 -32.5q28 0 51 8.5t39.5 23t25.5 33.5t9 40t-9 40t-25.5 33.5t-39.5 23t-51 8.5h-105v115l140 115v10h-260v140h480v-120l-165 -135v-10q54 -10 97 -38q18 -12 36 -29t31.5 -40.5t22 -54t8.5 -68.5q0 -47 -20 -89.5t-57 -75t-89.5 -51.5
t-118.5 -19q-62 0 -112.5 18.5t-88.5 49.5t-63 72t-36 86z" />
    <glyph glyph-name="four" unicode="4" horiz-adv-x="630" 
d="M380 0v125h-360v140l220 435h175l-220 -435h185v160h155v-160h85v-140h-85v-125h-155z" />
    <glyph glyph-name="five" unicode="5" horiz-adv-x="605" 
d="M80 330l60 370h400v-140h-270l-15 -90h45q66 0 118.5 -19.5t89.5 -53t57 -79.5t20 -98q0 -53 -20 -98.5t-57 -79t-89.5 -53t-118.5 -19.5q-62 0 -112.5 18.5t-88.5 49.5t-63 72t-36 86l155 24q11 -45 48 -77.5t97 -32.5q28 0 51 8.5t39.5 23.5t25.5 35t9 43q0 22 -9 42
t-25.5 35t-39.5 24t-51 9h-220z" />
    <glyph glyph-name="six" unicode="6" horiz-adv-x="620" 
d="M30 230q0 32 7.5 61.5t17.5 51.5q11 26 25 47l220 310h175l-160 -220q64 0 116.5 -20t90 -54.5t58 -79.5t20.5 -96q0 -54 -20.5 -101.5t-58 -83t-90 -55.5t-116.5 -20t-116.5 20t-90 55.5t-58 83t-20.5 101.5zM190 230q0 -24 9.5 -46t26.5 -38.5t40 -26t49 -9.5t49 9.5
t40 26t26.5 38.5t9.5 46q0 26 -9.5 48t-26.5 38t-39.5 25t-49.5 9t-49.5 -9t-39.5 -25t-26.5 -38t-9.5 -48z" />
    <glyph glyph-name="seven" unicode="7" horiz-adv-x="515" 
d="M65 0l265 550v10h-320v140h495v-140l-270 -560h-170z" />
    <glyph glyph-name="eight" unicode="8" horiz-adv-x="640" 
d="M320 110q32 0 57 8.5t42.5 22t26.5 30.5t9 34t-9 34t-26.5 30.5t-42.5 22t-57 8.5t-57 -8.5t-42.5 -22t-26.5 -30.5t-9 -34t9 -34t26.5 -30.5t42.5 -22t57 -8.5zM320 430q49 0 77 25t28 55t-28 55t-77 25t-77 -25t-28 -55t28 -55t77 -25zM320 -30q-68 0 -122.5 19.5
t-92.5 51.5t-59 72.5t-21 81.5q0 53 20.5 86.5t46.5 53.5q30 23 68 35v10q-30 12 -53 32q-20 17 -36 45.5t-16 72.5q0 37 18 73t52.5 64.5t83.5 45.5t111 17t111 -17t83.5 -45.5t52.5 -64.5t18 -73q0 -44 -16.5 -72.5t-36.5 -45.5q-23 -20 -52 -32v-10q37 -12 67 -35
q26 -20 47 -53.5t21 -86.5q0 -41 -21 -81.5t-59 -72.5t-93 -51.5t-122 -19.5z" />
    <glyph glyph-name="nine" unicode="9" horiz-adv-x="620" 
d="M590 470q0 -33 -8 -62t-17 -51q-11 -26 -25 -47l-220 -310h-175l160 220q-64 0 -116.5 20t-90 54.5t-58 79.5t-20.5 96q0 54 20.5 101.5t58 83t90 55.5t116.5 20t116.5 -20t90 -55.5t58 -83t20.5 -101.5zM430 470q0 24 -9.5 46t-26.5 38.5t-40 26t-49 9.5t-49 -9.5
t-40 -26t-26.5 -38.5t-9.5 -46q0 -26 9.5 -48t26.5 -38t39.5 -25t49.5 -9t49.5 9t39.5 25t26.5 38t9.5 48z" />
    <glyph glyph-name="colon" unicode=":" horiz-adv-x="220" 
d="M30 60q0 34 23 57t57 23t57 -23t23 -57t-23 -57t-57 -23t-57 23t-23 57zM30 420q0 34 23 57t57 23t57 -23t23 -57t-23 -57t-57 -23t-57 23t-23 57z" />
    <glyph glyph-name="semicolon" unicode=";" horiz-adv-x="220" 
d="M30 60q0 34 23 57t57 23t57 -23t23 -57q0 -11 -2.5 -20t-5.5 -16l-7 -14l-80 -110h-60l35 90q-11 6 -20 16q-8 8 -14 21.5t-6 32.5zM30 420q0 34 23 57t57 23t57 -23t23 -57t-23 -57t-57 -23t-57 23t-23 57z" />
    <glyph glyph-name="less" unicode="&#x3c;" horiz-adv-x="485" 
d="M455 340q-70 -25 -138 -50t-137 -50v-10q69 -25 137 -50t138 -50v-125l-425 155v150l425 155v-125z" />
    <glyph glyph-name="equal" unicode="=" horiz-adv-x="435" 
d="M30 150v115h375v-115h-375zM30 340v115h375v-115h-375z" />
    <glyph glyph-name="greater" unicode="&#x3e;" horiz-adv-x="485" 
d="M30 465l425 -155v-150l-425 -155v125q70 25 138 50t137 50v10q-69 25 -137 50t-138 50v125z" />
    <glyph glyph-name="question" unicode="?" horiz-adv-x="550" 
d="M275 590q-45 0 -75 -27.5t-45 -72.5l-155 20q9 45 32 85t58.5 70t82 47.5t102.5 17.5q54 0 101 -19t81 -50t53.5 -70.5t19.5 -80.5q0 -46 -14 -76.5t-35 -52t-46.5 -37t-49 -32.5t-41.5 -38.5t-24 -53.5h-130q0 46 13.5 77.5t34.5 54t44.5 38.5t44.5 32t34.5 34t13.5 44
q0 38 -27.5 64t-72.5 26zM175 60q0 34 23 57t57 23t57 -23t23 -57t-23 -57t-57 -23t-57 23t-23 57z" />
    <glyph glyph-name="at" unicode="@" horiz-adv-x="820" 
d="M475 190h-10q-6 -11 -17 -20q-9 -8 -24 -14t-36 -6q-29 0 -56.5 13t-49 36t-34.5 54t-13 67t13 67t34.5 54t49 36t56.5 13q21 0 36 -6t24 -14q11 -9 17 -20h10v30h110v-215q34 8 59.5 38t25.5 87q0 41 -16.5 77.5t-48.5 63.5t-78.5 43t-106.5 16q-56 0 -105.5 -21
t-86 -57.5t-57.5 -86t-21 -105.5t21 -105.5t57.5 -86t86 -57.5t105.5 -21q39 0 73 7.5t59 17.5q29 11 53 25v-115q-24 -13 -53 -23q-25 -8 -59 -15t-73 -7q-83 0 -154 30t-123.5 81.5t-82.5 120.5t-30 148t30 148t82.5 120.5t123.5 81.5t154 30q86 0 154.5 -24.5
t116.5 -66.5t73.5 -98.5t25.5 -120.5q0 -47 -18.5 -88.5t-52 -73t-79.5 -50t-100 -18.5h-65v30zM475 345q-8 12 -18 22q-8 8 -20 15.5t-27 7.5q-26 0 -45.5 -20t-19.5 -50t19.5 -50t45.5 -20q15 0 27 7t20 15q10 10 18 23v50z" />
    <glyph glyph-name="A" unicode="A" horiz-adv-x="715" 
d="M180 700h355l170 -700h-160l-35 145h-305l-35 -145h-160zM240 285h235l-65 275h-105z" />
    <glyph glyph-name="B" unicode="B" horiz-adv-x="710" 
d="M385 700q51 0 92.5 -15.5t71 -41t45.5 -57.5t16 -66q0 -36 -13.5 -59t-29.5 -37q-18 -16 -42 -24v-10q46 -9 82 -32q15 -10 30 -23.5t27 -31.5t19 -41t7 -52q0 -43 -17.5 -81.5t-50 -67t-80 -45t-107.5 -16.5h-375v700h325zM435 140q45 0 70 23t25 57t-25 57t-70 23h-220
v-160h220zM215 560v-120h170q30 0 47.5 17t17.5 43t-17.5 43t-47.5 17h-170z" />
    <glyph glyph-name="C" unicode="C" horiz-adv-x="780" 
d="M410 -30q-77 0 -146 30.5t-121 82.5t-82.5 121t-30.5 146t30.5 146t82.5 121t121 82.5t146 30.5q67 0 122.5 -20t97 -52.5t69.5 -75t41 -87.5l-155 -20q-11 22 -27.5 43t-38.5 37t-50 25.5t-64 9.5q-43 0 -83 -18.5t-70.5 -51t-48.5 -76t-18 -94.5t18 -94.5t48.5 -76
t70.5 -51t83 -18.5q39 0 70.5 10.5t56 28.5t42.5 41.5t31 49.5l155 -20q-13 -47 -42.5 -92t-74 -80t-103.5 -56.5t-130 -21.5z" />
    <glyph glyph-name="D" unicode="D" horiz-adv-x="715" 
d="M530 350q0 45 -16 83.5t-44.5 66.5t-68 44t-86.5 16h-100v-420h100q47 0 86.5 16t68 44t44.5 66.5t16 83.5zM685 350q0 -73 -27.5 -137t-77 -111t-117 -74.5t-148.5 -27.5h-255v700h255q81 0 148.5 -27.5t117 -74.5t77 -111t27.5 -137z" />
    <glyph glyph-name="E" unicode="E" horiz-adv-x="635" 
d="M615 140v-140h-555v700h555v-140h-400v-140h315v-140h-315v-140h400z" />
    <glyph glyph-name="F" unicode="F" horiz-adv-x="605" 
d="M215 0h-155v700h535v-140h-380v-165h305v-140h-305v-255z" />
    <glyph glyph-name="G" unicode="G" horiz-adv-x="795" 
d="M405 110q39 0 70.5 10.5t55.5 27t41 38t28 44.5v10h-185v140h350v-60q0 -73 -27.5 -137t-75 -111t-112.5 -74.5t-140 -27.5q-77 0 -146 30.5t-121 82.5t-82.5 121t-30.5 146t30.5 146t82.5 121t121 82.5t146 30.5q67 0 122.5 -20t97 -52.5t69.5 -75t41 -87.5l-155 -20
q-11 22 -27.5 43t-38.5 37t-50 25.5t-64 9.5q-43 0 -83 -18.5t-70.5 -51t-48.5 -76t-18 -94.5t18 -94.5t48.5 -76t70.5 -51t83 -18.5z" />
    <glyph glyph-name="H" unicode="H" horiz-adv-x="725" 
d="M60 700h155v-285h295v285h155v-700h-155v275h-295v-275h-155v700z" />
    <glyph glyph-name="I" unicode="I" horiz-adv-x="275" 
d="M215 0h-155v700h155v-700z" />
    <glyph glyph-name="J" unicode="J" horiz-adv-x="590" 
d="M530 235q0 -60 -19 -109t-54.5 -83.5t-86.5 -53.5t-114 -19q-53 0 -96.5 16.5t-76.5 44t-54.5 64t-28.5 75.5l150 35q11 -42 39.5 -68.5t70.5 -26.5q49 0 82 34t33 91v465h155v-465z" />
    <glyph glyph-name="K" unicode="K" horiz-adv-x="695" 
d="M320 315l-105 -115v-200h-155v700h155v-295l275 295h190l-250 -270l265 -430h-180z" />
    <glyph glyph-name="L" unicode="L" horiz-adv-x="590" 
d="M215 140h365v-140h-520v700h155v-560z" />
    <glyph glyph-name="M" unicode="M" horiz-adv-x="880" 
d="M225 485h-10v-485h-155v700h170l210 -260l210 260h170v-700h-155v485h-10l-215 -265z" />
    <glyph glyph-name="N" unicode="N" horiz-adv-x="725" 
d="M500 260h10v440h155v-700h-170l-270 440h-10v-440h-155v700h170z" />
    <glyph glyph-name="O" unicode="O" horiz-adv-x="830" 
d="M185 350q0 -51 18.5 -94.5t50 -76t73 -51t88.5 -18.5t88.5 18.5t73 51t50 76t18.5 94.5t-18.5 94.5t-50 76t-73 51t-88.5 18.5t-88.5 -18.5t-73 -51t-50 -76t-18.5 -94.5zM800 350q0 -79 -30 -148t-82 -120.5t-122 -81.5t-151 -30t-151 30t-122 81.5t-82 120.5t-30 148
t30 148t82 120.5t122 81.5t151 30t151 -30t122 -81.5t82 -120.5t30 -148z" />
    <glyph glyph-name="P" unicode="P" horiz-adv-x="715" 
d="M530 440q0 24 -10 46t-27.5 38.5t-42.5 26t-55 9.5h-180v-240h180q30 0 55 9.5t42.5 26t27.5 38.5t10 46zM685 440q0 -54 -20.5 -101.5t-58.5 -83t-91.5 -55.5t-119.5 -20h-180v-180h-155v700h335q66 0 119.5 -20t91.5 -55.5t58.5 -83t20.5 -101.5z" />
    <glyph glyph-name="Q" unicode="Q" horiz-adv-x="835" 
d="M800 350q0 -51 -12 -92.5t-26 -70.5q-17 -34 -37 -62l100 -100l-105 -105l-105 105q-25 -16 -57 -28q-27 -11 -63.5 -19t-79.5 -8q-81 0 -151 30t-122 81.5t-82 120.5t-30 148t30 148t82 120.5t122 81.5t151 30t151 -30t122 -81.5t82 -120.5t30 -148zM185 350
q0 -51 18.5 -94.5t50 -76t73 -51t88.5 -18.5q23 0 40.5 3t29.5 7q14 4 25 10l-45 45l105 105l45 -45q8 15 15 33q5 16 10 36.5t5 45.5q0 51 -18.5 94.5t-50 76t-73 51t-88.5 18.5t-88.5 -18.5t-73 -51t-50 -76t-18.5 -94.5z" />
    <glyph glyph-name="R" unicode="R" horiz-adv-x="715" 
d="M215 210v-210h-155v700h345q62 0 112 -18.5t85 -51.5t54 -78t19 -97q0 -31 -6 -56.5t-15.5 -46.5t-21.5 -37.5t-25 -28.5q-30 -29 -67 -46l130 -240h-165q-29 54 -57.5 105t-57.5 105h-175zM405 350q53 0 84 30t31 75t-31 75t-84 30h-190v-210h190z" />
    <glyph glyph-name="S" unicode="S" horiz-adv-x="635" 
d="M455 200q0 32 -30 51t-75 34t-97.5 30t-97.5 40t-75 63.5t-30 101.5q0 39 19 77t54 67.5t85 47.5t112 18t111 -16.5t85 -46t59.5 -68.5t34.5 -84l-155 -20q-15 41 -47 68t-88 27q-53 0 -81.5 -25t-28.5 -55t30 -47.5t75 -31t97.5 -29t97.5 -41t75 -66t30 -105.5
q0 -41 -20 -80.5t-57.5 -70.5t-91.5 -50t-121 -19q-68 0 -120.5 17.5t-91.5 49t-64.5 74.5t-38.5 94l155 20q15 -49 53.5 -82t106.5 -33t99 26t31 64z" />
    <glyph glyph-name="T" unicode="T" horiz-adv-x="615" 
d="M10 560v140h595v-140h-220v-560h-155v560h-220z" />
    <glyph glyph-name="U" unicode="U" horiz-adv-x="730" 
d="M365 110q68 0 109 41.5t41 113.5v435h155v-435q0 -66 -21.5 -120t-61.5 -93t-96.5 -60.5t-125.5 -21.5t-125.5 21.5t-96.5 60.5t-61.5 93t-21.5 120v435h155v-435q0 -72 41 -113.5t109 -41.5z" />
    <glyph glyph-name="V" unicode="V" horiz-adv-x="715" 
d="M15 700h160l135 -560h95l135 560h160l-170 -700h-345z" />
    <glyph glyph-name="W" unicode="W" horiz-adv-x="985" 
d="M390 700h205l100 -525h15q26 133 50.5 262.5t49.5 262.5h155q-33 -176 -67 -350t-68 -350h-230l-100 500h-15l-100 -500h-230q-34 176 -68 350t-67 350h155q25 -133 49.5 -262.5t50.5 -262.5h15z" />
    <glyph glyph-name="X" unicode="X" horiz-adv-x="670" 
d="M175 0h-180l230 360l-200 340h175l130 -230h10l130 230h175l-200 -340l230 -360h-180l-155 250h-10z" />
    <glyph glyph-name="Y" unicode="Y" horiz-adv-x="675" 
d="M415 0h-155v230l-265 470h175l165 -300h5l165 300h175l-265 -470v-230z" />
    <glyph glyph-name="Z" unicode="Z" horiz-adv-x="645" 
d="M30 140l370 410v10h-360v140h565v-140l-370 -410v-10h380v-140h-585v140z" />
    <glyph glyph-name="bracketleft" unicode="[" horiz-adv-x="360" 
d="M215 590v-600h125v-140h-280v880h280v-140h-125z" />
    <glyph glyph-name="backslash" unicode="\" horiz-adv-x="430" 
d="M420 0h-155l-255 700h155z" />
    <glyph glyph-name="bracketright" unicode="]" horiz-adv-x="360" 
d="M20 590v140h280v-880h-280v140h125v600h-125z" />
    <glyph glyph-name="asciicircum" unicode="^" horiz-adv-x="430" 
d="M410 360h-120l-70 185h-10l-70 -185h-120l131 340h128z" />
    <glyph glyph-name="underscore" unicode="_" horiz-adv-x="380" 
d="M0 -205v120h380v-120h-380z" />
    <glyph glyph-name="grave" unicode="`" horiz-adv-x="260" 
d="M75 695l155 -80l-35 -80l-165 60z" />
    <glyph glyph-name="a" unicode="a" horiz-adv-x="585" 
d="M30 240q0 56 19 104t50.5 82.5t72 54t83.5 19.5q35 0 60 -11t41 -24q18 -16 29 -35h10v50h140v-480h-140v50h-10q-11 -20 -29 -35q-16 -14 -41 -24.5t-60 -10.5q-43 0 -83.5 19.5t-72 54t-50.5 82.5t-19 104zM395 290q-12 24 -29 42q-14 16 -34.5 29.5t-46.5 13.5
q-49 0 -82 -35.5t-33 -99.5t33 -99.5t82 -35.5q26 0 46.5 13t34.5 29q17 18 29 43v100z" />
    <glyph glyph-name="b" unicode="b" horiz-adv-x="590" 
d="M560 240q0 -56 -19 -104t-50.5 -82.5t-72 -54t-83.5 -19.5q-36 0 -60.5 10.5t-40.5 24.5q-18 15 -29 35h-10v-50h-140v700h140v-270h10q11 19 29 35q16 13 40.5 24t60.5 11q43 0 83.5 -19.5t72 -54t50.5 -82.5t19 -104zM195 190q12 -25 29 -43q14 -16 34.5 -29t46.5 -13
q49 0 82 35.5t33 99.5t-33 99.5t-82 35.5q-26 0 -46.5 -13.5t-34.5 -29.5q-17 -18 -29 -42v-100z" />
    <glyph glyph-name="c" unicode="c" horiz-adv-x="550" 
d="M285 -20q-51 0 -97 21t-81 56.5t-56 82.5t-21 100q0 52 21 99.5t56 83t81 56.5t97 21q49 0 89 -14.5t70 -38t49 -53t27 -59.5l-140 -20q-11 23 -34 41.5t-61 18.5q-23 0 -43.5 -10t-36.5 -27.5t-25.5 -42.5t-9.5 -55t9.5 -55t25.5 -42.5t36.5 -27.5t43.5 -10
q42 0 68 22.5t37 52.5l140 -20q-8 -36 -27.5 -68.5t-50 -57t-73 -39.5t-94.5 -15z" />
    <glyph glyph-name="d" unicode="d" horiz-adv-x="590" 
d="M30 240q0 56 19 104t50.5 82.5t72 54t83.5 19.5q35 0 60 -11t41 -24q18 -16 29 -35h10v270h140v-700h-140v50h-10q-11 -20 -29 -35q-16 -14 -41 -24.5t-60 -10.5q-43 0 -83.5 19.5t-72 54t-50.5 82.5t-19 104zM395 290q-12 24 -29 42q-14 16 -34.5 29.5t-46.5 13.5
q-49 0 -82 -35.5t-33 -99.5t33 -99.5t82 -35.5q26 0 46.5 13t34.5 29q17 18 29 43v100z" />
    <glyph glyph-name="e" unicode="e" 
d="M285 500q54 0 101.5 -20t83 -55.5t55.5 -83t20 -101.5l-50 -50h-315q11 -38 37 -61.5t68 -23.5q24 0 41.5 4.5t30.5 12t21.5 17.5t16.5 21l140 -20q-11 -30 -32 -59t-52 -51.5t-72.5 -36t-93.5 -13.5q-51 0 -97 21t-81 56.5t-56 82.5t-21 100q0 52 21 99.5t56 83t81 56.5
t97 21zM285 375q-42 0 -68 -23.5t-37 -61.5h210q-11 38 -37 61.5t-68 23.5z" />
    <glyph glyph-name="f" unicode="f" horiz-adv-x="325" 
d="M20 480h55v45q0 43 14 79t38.5 61.5t57 40t70.5 14.5q20 0 38.5 -3t32.5 -7q16 -4 29 -10l-20 -120q-7 3 -16 7q-8 3 -18 5.5t-21 2.5q-30 0 -47.5 -18t-17.5 -52v-45h100v-125h-100v-355h-140v355h-55v125z" />
    <glyph glyph-name="g" unicode="g" horiz-adv-x="585" 
d="M30 250q0 52 19 98t50.5 79.5t72 53t83.5 19.5q35 0 60 -11t41 -24q18 -16 29 -35h10v50h140v-466q0 -47 -19.5 -89t-52.5 -74.5t-77.5 -51.5t-95.5 -19t-90.5 13t-69 35t-49.5 51t-31 61l140 20q11 -19 35 -37t65 -18q45 0 75 30.5t30 79.5v55h-10q-11 -20 -29 -35
q-16 -14 -41 -24.5t-60 -10.5q-43 0 -83.5 19.5t-72 53t-50.5 79t-19 98.5zM395 290q-12 24 -29 42q-14 16 -34.5 29.5t-46.5 13.5q-49 0 -82 -34t-33 -91t33 -91t82 -34q26 0 46.5 13t34.5 29q17 18 29 43v80z" />
    <glyph glyph-name="h" unicode="h" 
d="M525 0h-140v275q0 45 -25.5 72.5t-59.5 27.5q-25 0 -44 -13.5t-33 -29.5q-16 -18 -28 -42v-290h-140v700h140v-270h10q11 19 29 35q15 13 38.5 24t57.5 11q39 0 74.5 -16t62.5 -45.5t42.5 -71t15.5 -92.5v-275z" />
    <glyph glyph-name="i" unicode="i" horiz-adv-x="250" 
d="M195 0h-140v480h140v-480zM45 650q0 34 23 57t57 23t57 -23t23 -57t-23 -57t-57 -23t-57 23t-23 57z" />
    <glyph glyph-name="j" unicode="j" horiz-adv-x="250" 
d="M195 -25q0 -43 -14 -79t-38.5 -61.5t-57.5 -40t-70 -14.5q-21 0 -39 3t-32 7q-16 4 -29 10l20 120q7 -4 16 -8q17 -7 39 -7q30 0 47.5 18t17.5 52v505h140v-505zM45 650q0 34 23 57t57 23t57 -23t23 -57t-23 -57t-57 -23t-57 23t-23 57z" />
    <glyph glyph-name="k" unicode="k" horiz-adv-x="540" 
d="M195 0h-140v700h140v-390l160 170h170l-170 -180l185 -300h-155l-125 200l-65 -70v-130z" />
    <glyph glyph-name="l" unicode="l" horiz-adv-x="270" 
d="M75 575h-65v125h205v-700h-140v575z" />
    <glyph glyph-name="m" unicode="m" horiz-adv-x="795" 
d="M470 0h-140v295q0 38 -17.5 59t-47.5 21q-17 0 -30.5 -12t-23.5 -26q-11 -17 -21 -37v-300h-140v480h140v-50h10q11 19 27 35q14 13 33.5 24t47.5 11q31 0 54 -11t38 -24q18 -16 30 -35h10q12 19 32 35q17 13 43.5 24t64.5 11q34 0 64.5 -14.5t54 -41t37.5 -64.5t14 -85
v-295h-140v295q0 34 -20 57t-50 23t-50 -23t-20 -57v-295z" />
    <glyph glyph-name="n" unicode="n" horiz-adv-x="565" 
d="M520 0h-140v275q0 45 -25.5 72.5t-59.5 27.5q-25 0 -44 -13.5t-33 -29.5q-16 -18 -28 -42v-290h-140v480h140v-50h10q11 19 29 35q15 13 38.5 24t57.5 11q39 0 74.5 -16t62.5 -45.5t42.5 -71t15.5 -92.5v-275z" />
    <glyph glyph-name="o" unicode="o" horiz-adv-x="590" 
d="M295 105q24 0 47 10.5t40 29t27.5 43t10.5 52.5t-10.5 52.5t-27.5 43t-40 29t-47 10.5t-47 -10.5t-40 -29t-27.5 -43t-10.5 -52.5t10.5 -52.5t27.5 -43t40 -29t47 -10.5zM295 -20q-54 0 -102.5 21t-84.5 56.5t-57 82.5t-21 100q0 52 21 99.5t57 83t84.5 56.5t102.5 21
t102.5 -21t84.5 -56.5t57 -83t21 -99.5q0 -53 -21 -100t-57 -82.5t-84.5 -56.5t-102.5 -21z" />
    <glyph glyph-name="p" unicode="p" horiz-adv-x="585" 
d="M555 240q0 -56 -19 -104t-50.5 -82.5t-72 -54t-83.5 -19.5q-36 0 -60.5 10.5t-40.5 24.5q-18 15 -29 35h-10v-250h-140v680h140v-50h10q11 19 29 35q16 13 40.5 24t60.5 11q43 0 83.5 -19.5t72 -54t50.5 -82.5t19 -104zM190 190q12 -25 29 -43q14 -16 34.5 -29t46.5 -13
q49 0 82 35.5t33 99.5t-33 99.5t-82 35.5q-26 0 -46.5 -13.5t-34.5 -29.5q-17 -18 -29 -42v-100z" />
    <glyph glyph-name="q" unicode="q" horiz-adv-x="585" 
d="M30 240q0 56 19 104t50.5 82.5t72 54t83.5 19.5q35 0 60 -11t41 -24q18 -16 29 -35h10v50h140v-680h-140v250h-10q-11 -20 -29 -35q-16 -14 -41 -24.5t-60 -10.5q-43 0 -83.5 19.5t-72 54t-50.5 82.5t-19 104zM395 290q-12 24 -29 42q-14 16 -34.5 29.5t-46.5 13.5
q-49 0 -82 -35.5t-33 -99.5t33 -99.5t82 -35.5q26 0 46.5 13t34.5 29q17 18 29 43v100z" />
    <glyph glyph-name="r" unicode="r" horiz-adv-x="345" 
d="M335 355h-45q-30 0 -49.5 -12t-30.5 -26q-13 -17 -20 -37v-280h-140v480h140v-50h10q11 17 29 30q15 11 38.5 20.5t57.5 9.5h10v-135z" />
    <glyph glyph-name="s" unicode="s" horiz-adv-x="495" 
d="M40 355q0 26 14 52t41 46.5t67 33.5t93 13q45 0 81.5 -13t64 -33.5t46.5 -46.5t28 -52l-130 -20q-8 15 -30 32.5t-60 17.5q-30 0 -47.5 -15t-17.5 -30q0 -16 21 -25.5t53 -18t68.5 -19t68.5 -29t53 -48t21 -75.5q0 -26 -14 -52t-42 -46.5t-70.5 -33.5t-98.5 -13
q-51 0 -90.5 13t-69 34.5t-49.5 49.5t-31 58l140 20q11 -23 34.5 -41.5t65.5 -18.5q38 0 56.5 15t18.5 30q0 16 -21 25.5t-53 18t-68.5 19t-68.5 29t-53 48t-21 75.5z" />
    <glyph glyph-name="t" unicode="t" horiz-adv-x="375" 
d="M20 480h55v120h140v-120h100v-125h-100v-180q0 -34 17.5 -52t47.5 -18q11 0 21 2t18 5q9 4 16 8l20 -120q-13 -6 -29 -10q-14 -4 -32.5 -7t-38.5 -3q-38 0 -70.5 14.5t-57 40t-38.5 61.5t-14 79v180h-55v125z" />
    <glyph glyph-name="u" unicode="u" 
d="M50 480h140v-275q0 -45 25.5 -72.5t59.5 -27.5q24 0 43.5 13t33.5 29q16 18 28 43v290h140v-480h-140v50h-10q-11 -20 -29 -35q-15 -14 -38.5 -24.5t-57.5 -10.5q-39 0 -74.5 16t-62.5 45.5t-42.5 71t-15.5 92.5v275z" />
    <glyph glyph-name="v" unicode="v" horiz-adv-x="535" 
d="M20 480h140l75 -355h65l76 355h139l-100 -480h-295z" />
    <glyph glyph-name="w" unicode="w" horiz-adv-x="760" 
d="M375 310l-55 -310h-210l-90 480h140l55 -330h15l60 330h180l60 -330h15l55 330h140l-90 -480h-210l-55 310h-10z" />
    <glyph glyph-name="x" unicode="x" horiz-adv-x="500" 
d="M255 160h-10l-90 -160h-155l150 250l-140 230h150l85 -140h10l85 140h150l-140 -230l150 -250h-155z" />
    <glyph glyph-name="y" unicode="y" horiz-adv-x="540" 
d="M520 480l-100 -480q-25 -120 -77 -175t-123 -55q-21 0 -39 3t-32 7q-16 4 -29 10l20 120q7 -4 16 -8q17 -7 39 -7q30 0 52 24t33 81h-155l-105 480h140l76 -355h69l75 355h140z" />
    <glyph glyph-name="z" unicode="z" horiz-adv-x="485" 
d="M450 355l-230 -220v-10h240v-125h-435v125l230 220v10h-220v125h415v-125z" />
    <glyph glyph-name="braceleft" unicode="{" horiz-adv-x="350" 
d="M195 285q18 -5 32 -16q12 -10 22.5 -26.5t10.5 -42.5q0 -19 -4.5 -41t-10.5 -44.5t-10.5 -44t-4.5 -40.5q0 -40 45 -40h55v-140h-60q-105 0 -150 40.5t-45 119.5q0 19 5.5 40.5t12 44t12 44.5t5.5 41q0 40 -40 40h-40v140h40q40 0 40 40q0 19 -5.5 40.5t-12 44t-12 44.5
t-5.5 41q0 79 45 119.5t150 40.5h60v-140h-55q-45 0 -45 -40q0 -19 4.5 -41t10.5 -44.5t10.5 -44t4.5 -40.5q0 -26 -10.5 -43t-22.5 -26q-14 -11 -32 -16v-10z" />
    <glyph glyph-name="bar" unicode="|" horiz-adv-x="270" 
d="M210 -100h-150v850h150v-850z" />
    <glyph glyph-name="braceright" unicode="}" horiz-adv-x="350" 
d="M155 295q-19 5 -33 16q-12 9 -22 26t-10 43q0 19 4.5 40.5t10.5 44t10.5 44.5t4.5 41q0 40 -45 40h-55v140h60q105 0 150 -40.5t45 -119.5q0 -19 -5.5 -41t-12 -44.5t-12 -44t-5.5 -40.5q0 -40 40 -40h40v-140h-40q-40 0 -40 -40q0 -19 5.5 -41t12 -44.5t12 -44
t5.5 -40.5q0 -79 -45 -119.5t-150 -40.5h-60v140h55q45 0 45 40q0 19 -4.5 40.5t-10.5 44t-10.5 44.5t-4.5 41q0 26 10 42.5t22 26.5q14 11 33 16v10z" />
    <glyph glyph-name="asciitilde" unicode="~" horiz-adv-x="450" 
d="M175 275q-23 0 -35 -13t-20 -47l-100 60q0 26 9.5 49t25 40t35 26.5t40.5 9.5q26 0 45.5 -8.5t36 -19t31.5 -19t32 -8.5q23 0 35 13t20 47l100 -60q0 -26 -9.5 -49t-25 -40t-35 -26.5t-40.5 -9.5q-26 0 -45.5 8.5t-36 19t-31.5 19t-32 8.5z" />
    <glyph glyph-name="nonbreakingspace" unicode="&#xa0;" horiz-adv-x="0" 
 />
    <glyph glyph-name="exclamdown" unicode="&#xa1;" horiz-adv-x="280" 
d="M215 -200h-150v305l28 150h94l28 -150v-305zM60 420q0 34 23 57t57 23t57 -23t23 -57t-23 -57t-57 -23t-57 23t-23 57z" />
    <glyph glyph-name="cent" unicode="&#xa2;" horiz-adv-x="550" 
d="M360 489q66 -19 107 -62.5t53 -91.5l-140 -20q-11 23 -34 41.5t-61 18.5q-23 0 -43.5 -10t-36.5 -27.5t-25.5 -42.5t-9.5 -55t9.5 -55t25.5 -42.5t36.5 -27.5t43.5 -10q42 0 68 22.5t37 52.5l140 -20q-12 -58 -55 -105.5t-115 -65.5v-84h-140v85q-40 11 -75 35t-60.5 57
t-40 73.5t-14.5 84.5t14.5 84.5t40 73.5t60.5 57t75 35v90h140v-91z" />
    <glyph glyph-name="sterling" unicode="&#xa3;" horiz-adv-x="549" 
d="M294 220q0 -19 -5 -32.5t-10 -21.5q-7 -10 -15 -16v-10h275v-140h-519v140h45q32 0 53 21t21 59v80h-75v140h75v90q0 94 48 147t142 53q19 0 37.5 -3t33.5 -7q18 -4 34 -10l-15 -130q-7 2 -17 5q-8 2 -19 3.5t-25 1.5q-30 0 -47 -17t-17 -43v-90h110v-140h-110v-80z" />
    <glyph glyph-name="currency" unicode="&#xa4;" horiz-adv-x="675" 
d="M30 375h70v325h270q67 0 118.5 -17t86.5 -47t52.5 -71t17.5 -90t-17.5 -90t-52.5 -71t-86.5 -47t-118.5 -17h-115v-45h220v-125h-220v-80h-155v80h-70v125h70v45h-70v125zM255 575v-200h115q57 0 88.5 29t31.5 71t-31.5 71t-88.5 29h-115z" />
    <glyph glyph-name="yen" unicode="&#xa5;" horiz-adv-x="660" 
d="M250 165v50h-135v96h91l-211 389h175l155 -300h5l160 300h175l-215 -389h90v-96h-135v-50h135v-95h-135v-70h-155v70h-135v95h135z" />
    <glyph glyph-name="brokenbar" unicode="&#xa6;" horiz-adv-x="270" 
d="M210 383h-150v367h150v-367zM210 -100h-150v367h150v-367z" />
    <glyph glyph-name="section" unicode="&#xa7;" horiz-adv-x="510" 
d="M185 360q0 -19 14.5 -31t32.5 -20q21 -9 48 -14q12 4 22 12q8 7 15.5 17.5t7.5 25.5q0 19 -15 31t-33 20q-21 9 -47 14q-13 -5 -23 -13q-8 -7 -15 -17t-7 -25zM465 360q0 -31 -12.5 -51t-27.5 -32q-18 -14 -40 -22v-10q22 -8 40 -23q15 -13 27.5 -34t12.5 -53
q0 -28 -16 -57.5t-45.5 -53.5t-71 -39t-92.5 -15q-43 0 -80 14.5t-65.5 37.5t-48 51.5t-26.5 56.5l135 20q8 -19 29.5 -37t55.5 -18q42 0 61 15.5t19 34.5q0 18 -20.5 29t-51 21t-66 21t-66 28t-51 42t-20.5 64q0 31 12.5 51t27.5 32q18 14 40 22v10q-19 8 -33 23
q-12 13 -22 34t-10 53q0 28 14.5 56t41.5 50t66 35.5t88 13.5q41 0 75.5 -13t61.5 -33.5t45.5 -46.5t27.5 -52l-135 -20q-11 15 -28 27.5t-47 12.5q-34 0 -49.5 -13t-15.5 -27q0 -18 19.5 -29t48 -21t62.5 -21t62.5 -28t48 -42t19.5 -64z" />
    <glyph glyph-name="dieresis" unicode="&#xa8;" horiz-adv-x="400" 
d="M30 630q0 30 20 50t50 20t50 -20t20 -50t-20 -50t-50 -20t-50 20t-20 50zM230 630q0 30 20 50t50 20t50 -20t20 -50t-20 -50t-50 -20t-50 20t-20 50z" />
    <glyph glyph-name="copyright" unicode="&#xa9;" horiz-adv-x="900" 
d="M460 115q-37 0 -69.5 14t-57 38t-39 55.5t-14.5 67.5t14 67.5t38.5 55.5t57.5 38t70 14q32 0 58 -9.5t46.5 -26t34 -38.5t21.5 -46l-105 -15q-4 11 -18 23t-37 12q-26 0 -45.5 -20.5t-19.5 -54.5t19.5 -54.5t45.5 -20.5q31 0 46 12.5t19 27.5l105 -15q-8 -26 -22.5 -48.5
t-35.5 -39.5t-49 -27t-63 -10zM30 290q0 88 33.5 165.5t90.5 135t133.5 91t162.5 33.5t162.5 -33.5t133.5 -91.5t90.5 -135t33.5 -165t-33.5 -165.5t-90.5 -135t-133.5 -91t-162.5 -33.5t-162.5 33.5t-133.5 91t-90.5 135t-33.5 165.5zM150 290q0 -62 24.5 -117.5t65.5 -97
t95.5 -66t114.5 -24.5t114.5 24.5t95.5 66t65.5 97t24.5 117.5t-24.5 117.5t-65.5 97t-95.5 66t-114.5 24.5t-114.5 -24.5t-95.5 -66t-65.5 -97t-24.5 -117.5z" />
    <glyph glyph-name="ordfeminine" unicode="&#xaa;" horiz-adv-x="350" 
d="M155 440q11 0 22.5 6t21.5 14q11 9 21 20v10h-65q-35 0 -35 -25t35 -25zM170 700q34 0 61.5 -10.5t47 -29t30.5 -43t11 -52.5v-195h-100v30h-10q-9 -11 -21 -20q-11 -8 -25.5 -14t-33.5 -6q-24 0 -44.5 9.5t-35 24.5t-22.5 33.5t-8 37.5q0 45 33.5 75t101.5 30h65
q0 19 -13.5 34.5t-36.5 15.5t-35 -9.5t-20 -20.5l-85 30q4 11 15 25t29 26t42 20.5t54 8.5z" />
    <glyph glyph-name="guillemotleft" unicode="&#xab;" horiz-adv-x="510" 
d="M140 440h130l-110 -200l110 -200h-130l-110 200zM350 440h130l-110 -200l110 -200h-130l-110 200z" />
    <glyph glyph-name="logicalnot" unicode="&#xac;" horiz-adv-x="425" 
d="M270 275h-250v125h375v-230h-125v105z" />
    <glyph glyph-name="uni00AD" unicode="&#xad;" horiz-adv-x="420" 
d="M20 245v125h380v-125h-380z" />
    <glyph glyph-name="registered" unicode="&#xae;" horiz-adv-x="900" 
d="M490 460q32 0 58.5 -10.5t46 -28.5t30 -41.5t10.5 -49.5q0 -27 -8.5 -45.5t-19.5 -29.5q-12 -13 -27 -20l70 -115h-120l-50 80h-70v-80h-105v340h185zM410 365v-70h80q19 0 29.5 10t10.5 25t-10.5 25t-29.5 10h-80zM30 290q0 88 33.5 165.5t90.5 135t133.5 91t162.5 33.5
t162.5 -33.5t133.5 -91.5t90.5 -135t33.5 -165t-33.5 -165.5t-90.5 -135t-133.5 -91t-162.5 -33.5t-162.5 33.5t-133.5 91t-90.5 135t-33.5 165.5zM150 290q0 -62 24.5 -117.5t65.5 -97t95.5 -66t114.5 -24.5t114.5 24.5t95.5 66t65.5 97t24.5 117.5t-24.5 117.5t-65.5 97
t-95.5 66t-114.5 24.5t-114.5 -24.5t-95.5 -66t-65.5 -97t-24.5 -117.5z" />
    <glyph glyph-name="macron" unicode="&#xaf;" horiz-adv-x="330" 
d="M30 700h270v-110h-270v110z" />
    <glyph glyph-name="degree" unicode="&#xb0;" horiz-adv-x="330" 
d="M165 705q28 0 52.5 -10.5t43 -29t29 -43t10.5 -52.5t-10.5 -52.5t-29 -43t-43 -29t-52.5 -10.5q-29 0 -53.5 10.5t-42.5 29t-28.5 43t-10.5 52.5t10.5 52.5t29 43t43 29t52.5 10.5zM165 510q26 0 43 17t17 43t-17 43t-43 17t-43 -17t-17 -43t17 -43t43 -17z" />
    <glyph glyph-name="plusminus" unicode="&#xb1;" horiz-adv-x="475" 
d="M445 390v-125h-145v-115h140v-120h-405v120h140v115h-145v125h145v150h125v-150h145z" />
    <glyph glyph-name="twosuperior" unicode="&#xb2;" horiz-adv-x="330" 
d="M205 595q0 11 -10.5 20.5t-29.5 9.5q-23 0 -35 -10t-20 -25l-90 15q11 45 48 77.5t97 32.5q34 0 60.5 -9.5t45.5 -25.5t29 -37t10 -43q0 -27 -13 -46.5t-32.5 -32.5t-42 -22t-42 -16.5t-32.5 -15t-13 -17.5h170v-90h-275v70q0 30 13 49.5t32.5 32.5t42 21.5t42 16.5
t32.5 18.5t13 26.5z" />
    <glyph glyph-name="threesuperior" unicode="&#xb3;" horiz-adv-x="320" 
d="M155 435q23 0 34 10t11 25t-11 25t-34 10h-60v55l60 50v5h-120v85h250v-70l-75 -60v-5q25 -6 45 -18q17 -11 31 -30.5t14 -51.5q0 -23 -9.5 -44.5t-27.5 -38.5t-45 -27t-63 -10q-59 0 -95 31t-50 79l95 15q4 -15 15.5 -25t34.5 -10z" />
    <glyph glyph-name="acute" unicode="&#xb4;" horiz-adv-x="260" 
d="M230 595l-165 -60l-35 80l155 80z" />
    <glyph glyph-name="mu" unicode="&#xb5;" 
d="M50 480h140v-280q0 -19 8 -36t21 -30t30 -21t36 -8t36 8t30 21t21 30t8 36v280h140v-480h-140v40h-10q-8 -15 -20 -26q-11 -10 -26.5 -17.5t-38.5 -7.5t-38.5 7.5t-26.5 17.5q-12 11 -20 26h-10v-240h-140v680z" />
    <glyph glyph-name="paragraph" unicode="&#xb6;" horiz-adv-x="510" 
d="M30 485q0 47 16 86.5t45 68t69.5 44.5t88.5 16h241v-140h-90v-760h-150v470q-45 0 -85 17.5t-70 47t-47.5 68.5t-17.5 82z" />
    <glyph glyph-name="periodcentered" unicode="&#xb7;" horiz-adv-x="190" 
d="M15 350q0 34 23 57t57 23t57 -23t23 -57t-23 -57t-57 -23t-57 23t-23 57z" />
    <glyph glyph-name="cedilla" unicode="&#xb8;" horiz-adv-x="285" 
d="M175 -45q22 -6 40 -18q15 -11 27.5 -30.5t12.5 -51.5q0 -53 -35 -86.5t-95 -33.5q-23 0 -40.5 7t-29.5 15q-14 10 -25 23l45 55q5 -6 13 -10q6 -4 15.5 -7t21.5 -3q19 0 32 12.5t13 27.5t-13 27.5t-32 12.5h-50l50 120h75z" />
    <glyph glyph-name="onesuperior" unicode="&#xb9;" horiz-adv-x="210" 
d="M80 565h-60v75q30 0 47.5 17t17.5 43h95v-340h-100v205z" />
    <glyph glyph-name="ordmasculine" unicode="&#xba;" horiz-adv-x="360" 
d="M240 530q0 38 -18.5 59t-41.5 21t-41.5 -21.5t-18.5 -58.5q0 -38 18.5 -59t41.5 -21t41.5 21t18.5 59zM340 530q0 -36 -13 -67t-35 -54t-51 -36t-61 -13t-61 13t-51 36t-35 54t-13 67t13 67t35 54t51 36t61 13t61 -13t51 -36t35 -54t13 -67z" />
    <glyph glyph-name="guillemotright" unicode="&#xbb;" horiz-adv-x="510" 
d="M480 240l-110 -200h-130l110 200l-110 200h130zM270 240l-110 -200h-130l110 200l-110 200h130z" />
    <glyph glyph-name="onequarter" unicode="&#xbc;" horiz-adv-x="735" 
d="M210 0h-150l415 700h150zM100 565h-60v75q30 0 47.5 17t17.5 43h95v-340h-100v205zM580 1v55h-170v90l90 195h110l-90 -195h60v50h100v-50h35v-90h-35v-55h-100z" />
    <glyph glyph-name="onehalf" unicode="&#xbd;" horiz-adv-x="755" 
d="M210 0h-150l415 700h150zM100 565h-60v75q30 0 47.5 17t17.5 43h95v-340h-100v205zM610 236q0 11 -10.5 20.5t-29.5 9.5q-23 0 -35 -10t-20 -25l-90 15q11 45 48 77.5t97 32.5q34 0 60.5 -9.5t45.5 -25.5t29 -37t10 -43q0 -27 -13 -46.5t-32.5 -32.5t-42 -22t-42 -16.5
t-32.5 -15t-13 -17.5h170v-90h-275v70q0 30 13 49.5t32.5 32.5t42 21.5t42 16.5t32.5 18.5t13 26.5z" />
    <glyph glyph-name="threequarters" unicode="&#xbe;" horiz-adv-x="775" 
d="M250 0h-150l415 700h150zM620 1v55h-170v90l90 195h110l-90 -195h60v50h100v-50h35v-90h-35v-55h-100zM155 435q23 0 34 10t11 25t-11 25t-34 10h-60v55l60 50v5h-120v85h250v-70l-75 -60v-5q25 -6 45 -18q17 -11 31 -30.5t14 -51.5q0 -23 -9.5 -44.5t-27.5 -38.5
t-45 -27t-63 -10q-59 0 -95 31t-50 79l95 15q4 -15 15.5 -25t34.5 -10z" />
    <glyph glyph-name="questiondown" unicode="&#xbf;" horiz-adv-x="550" 
d="M275 -85q45 0 75 27.5t45 72.5l155 -20q-9 -45 -32 -85t-58.5 -70t-82 -47.5t-102.5 -17.5q-54 0 -101 19t-81 50t-53.5 70.5t-19.5 80.5q0 46 14 74.5t35 47.5t46.5 31.5t49 26.5t41.5 33t24 52h130q0 -46 -13.5 -75.5t-34.5 -49.5t-44.5 -32.5t-44.5 -25.5t-34.5 -29.5
t-13.5 -42.5q0 -38 27.5 -64t72.5 -26zM375 420q0 -34 -23 -57t-57 -23t-57 23t-23 57t23 57t57 23t57 -23t23 -57z" />
    <glyph glyph-name="Agrave" unicode="&#xc0;" horiz-adv-x="715" 
d="M180 700h355l170 -700h-160l-35 145h-305l-35 -145h-160zM240 285h235l-65 275h-105zM305 950l155 -80l-35 -80l-165 60z" />
    <glyph glyph-name="Aacute" unicode="&#xc1;" horiz-adv-x="715" 
d="M180 700h355l170 -700h-160l-35 145h-305l-35 -145h-160zM240 285h235l-65 275h-105zM460 850l-165 -60l-35 80l155 80z" />
    <glyph glyph-name="Acircumflex" unicode="&#xc2;" horiz-adv-x="715" 
d="M180 700h355l170 -700h-160l-35 145h-305l-35 -145h-160zM240 285h235l-65 275h-105zM410 944l120 -170h-110l-55 75h-10l-55 -75h-110l120 170h100z" />
    <glyph glyph-name="Atilde" unicode="&#xc3;" horiz-adv-x="715" 
d="M180 700h355l170 -700h-160l-35 145h-305l-35 -145h-160zM240 285h235l-65 275h-105zM320 830q-11 0 -18 -7.5t-7 -22.5v-10h-85v35q0 57 21.5 81t63.5 24q25 0 38.5 -8t23.5 -17t19 -17t24 -8q11 0 18 7.5t7 22.5v10h85v-35q0 -57 -21.5 -81t-63.5 -24q-25 0 -39 8
t-23.5 17t-18.5 17t-24 8z" />
    <glyph glyph-name="Adieresis" unicode="&#xc4;" horiz-adv-x="715" 
d="M180 700h355l170 -700h-160l-35 145h-305l-35 -145h-160zM240 285h235l-65 275h-105zM190 855q0 30 20 50t50 20t50 -20t20 -50t-20 -50t-50 -20t-50 20t-20 50zM390 855q0 30 20 50t50 20t50 -20t20 -50t-20 -50t-50 -20t-50 20t-20 50z" />
    <glyph glyph-name="Aring" unicode="&#xc5;" horiz-adv-x="715" 
d="M180 700h355l170 -700h-160l-35 145h-305l-35 -145h-160zM240 285h235l-65 275h-105zM250 865q0 22 8.5 42t23.5 35t35 24t43 9q22 0 42 -9t35 -24t24 -35t9 -42q0 -23 -9 -43t-24 -35t-35 -23.5t-42 -8.5q-23 0 -43 8.5t-35 23.5t-23.5 35t-8.5 43zM315 865
q0 -23 13 -36.5t33 -13.5q18 0 31 13.5t13 36.5t-13 36.5t-32 13.5t-32 -13.5t-13 -36.5z" />
    <glyph glyph-name="AE" unicode="&#xc6;" horiz-adv-x="1000" 
d="M980 140v-140h-540v145h-250l-35 -145h-155l170 700h810v-140h-385v-140h300v-140h-300v-140h385zM225 285h215v275h-150z" />
    <glyph glyph-name="Ccedilla" unicode="&#xc7;" horiz-adv-x="780" 
d="M760 220q-12 -44 -39 -86t-67 -76.5t-92.5 -57.5t-115.5 -28l-11 -27q22 -6 40 -18q15 -11 27.5 -30.5t12.5 -51.5q0 -53 -35 -86.5t-95 -33.5q-23 0 -40.5 7t-29.5 15q-14 10 -25 23l45 55q5 -6 13 -10q6 -4 15.5 -7t21.5 -3q19 0 32 12.5t13 27.5t-13 27.5t-32 12.5
h-50l36 88q-71 7 -133 40t-108 84t-73 116t-27 137q0 77 30.5 146t82.5 121t121 82.5t146 30.5q67 0 122.5 -20t97 -52.5t69.5 -75t41 -87.5l-155 -20q-11 22 -27.5 43t-38.5 37t-50 25.5t-64 9.5q-43 0 -83 -18.5t-70.5 -51t-48.5 -76t-18 -94.5t18 -94.5t48.5 -76
t70.5 -51t83 -18.5q39 0 70.5 10.5t56 28.5t42.5 41.5t31 49.5z" />
    <glyph glyph-name="Egrave" unicode="&#xc8;" horiz-adv-x="635" 
d="M615 140v-140h-555v700h555v-140h-400v-140h315v-140h-315v-140h400zM295 940l155 -80l-35 -80l-165 60z" />
    <glyph glyph-name="Eacute" unicode="&#xc9;" horiz-adv-x="635" 
d="M615 140v-140h-555v700h555v-140h-400v-140h315v-140h-315v-140h400zM445 840l-165 -60l-35 80l155 80z" />
    <glyph glyph-name="Ecircumflex" unicode="&#xca;" horiz-adv-x="635" 
d="M615 140v-140h-555v700h555v-140h-400v-140h315v-140h-315v-140h400zM385 950l120 -170h-110l-55 75h-10l-55 -75h-110l120 170h100z" />
    <glyph glyph-name="Edieresis" unicode="&#xcb;" horiz-adv-x="635" 
d="M615 140v-140h-555v700h555v-140h-400v-140h315v-140h-315v-140h400zM170 860q0 30 20 50t50 20t50 -20t20 -50t-20 -50t-50 -20t-50 20t-20 50zM370 860q0 30 20 50t50 20t50 -20t20 -50t-20 -50t-50 -20t-50 20t-20 50z" />
    <glyph glyph-name="Igrave" unicode="&#xcc;" horiz-adv-x="280" 
d="M215 0h-155v700h155v-700zM66 940l155 -80l-35 -80l-165 60z" />
    <glyph glyph-name="Iacute" unicode="&#xcd;" horiz-adv-x="280" 
d="M215 0h-155v700h155v-700zM260 850l-165 -60l-35 80l155 80z" />
    <glyph glyph-name="Icircumflex" unicode="&#xce;" horiz-adv-x="280" 
d="M215 0h-155v700h155v-700zM191 960l120 -170h-110l-55 75h-10l-55 -75h-110l120 170h100z" />
    <glyph glyph-name="Idieresis" unicode="&#xcf;" horiz-adv-x="280" 
d="M215 0h-155v700h155v-700zM-29 865q0 30 20 50t50 20t50 -20t20 -50t-20 -50t-50 -20t-50 20t-20 50zM171 865q0 30 20 50t50 20t50 -20t20 -50t-20 -50t-50 -20t-50 20t-20 50z" />
    <glyph glyph-name="Eth" unicode="&#xd0;" horiz-adv-x="740" 
d="M710 350q0 -73 -27.5 -137t-77 -111t-117 -74.5t-148.5 -27.5h-255v285h-75v130h75v285h255q81 0 148.5 -27.5t117 -74.5t77 -111t27.5 -137zM555 350q0 45 -16 83.5t-44.5 66.5t-68 44t-86.5 16h-100v-145h120v-130h-120v-145h100q47 0 86.5 16t68 44t44.5 66.5t16 83.5
z" />
    <glyph glyph-name="Ntilde" unicode="&#xd1;" horiz-adv-x="725" 
d="M500 260h10v440h155v-700h-170l-270 440h-10v-440h-155v700h170zM330 835q-11 0 -18 -7.5t-7 -22.5v-10h-85v35q0 57 21.5 81t63.5 24q25 0 38.5 -8t23.5 -17t19 -17t24 -8q11 0 18 7.5t7 22.5v10h85v-35q0 -57 -21.5 -81t-63.5 -24q-25 0 -39 8t-23.5 17t-18.5 17t-24 8
z" />
    <glyph glyph-name="Ograve" unicode="&#xd2;" horiz-adv-x="830" 
d="M185 350q0 -51 18.5 -94.5t50 -76t73 -51t88.5 -18.5t88.5 18.5t73 51t50 76t18.5 94.5t-18.5 94.5t-50 76t-73 51t-88.5 18.5t-88.5 -18.5t-73 -51t-50 -76t-18.5 -94.5zM800 350q0 -79 -30 -148t-82 -120.5t-122 -81.5t-151 -30t-151 30t-122 81.5t-82 120.5t-30 148
t30 148t82 120.5t122 81.5t151 30t151 -30t122 -81.5t82 -120.5t30 -148zM365 950l155 -80l-35 -80l-165 60z" />
    <glyph glyph-name="Oacute" unicode="&#xd3;" horiz-adv-x="830" 
d="M185 350q0 -51 18.5 -94.5t50 -76t73 -51t88.5 -18.5t88.5 18.5t73 51t50 76t18.5 94.5t-18.5 94.5t-50 76t-73 51t-88.5 18.5t-88.5 -18.5t-73 -51t-50 -76t-18.5 -94.5zM800 350q0 -79 -30 -148t-82 -120.5t-122 -81.5t-151 -30t-151 30t-122 81.5t-82 120.5t-30 148
t30 148t82 120.5t122 81.5t151 30t151 -30t122 -81.5t82 -120.5t30 -148zM515 855l-165 -60l-35 80l155 80z" />
    <glyph glyph-name="Ocircumflex" unicode="&#xd4;" horiz-adv-x="830" 
d="M185 350q0 -51 18.5 -94.5t50 -76t73 -51t88.5 -18.5t88.5 18.5t73 51t50 76t18.5 94.5t-18.5 94.5t-50 76t-73 51t-88.5 18.5t-88.5 -18.5t-73 -51t-50 -76t-18.5 -94.5zM800 350q0 -79 -30 -148t-82 -120.5t-122 -81.5t-151 -30t-151 30t-122 81.5t-82 120.5t-30 148
t30 148t82 120.5t122 81.5t151 30t151 -30t122 -81.5t82 -120.5t30 -148zM475 960l120 -170h-110l-55 75h-10l-55 -75h-110l120 170h100z" />
    <glyph glyph-name="Otilde" unicode="&#xd5;" horiz-adv-x="830" 
d="M185 350q0 -51 18.5 -94.5t50 -76t73 -51t88.5 -18.5t88.5 18.5t73 51t50 76t18.5 94.5t-18.5 94.5t-50 76t-73 51t-88.5 18.5t-88.5 -18.5t-73 -51t-50 -76t-18.5 -94.5zM800 350q0 -79 -30 -148t-82 -120.5t-122 -81.5t-151 -30t-151 30t-122 81.5t-82 120.5t-30 148
t30 148t82 120.5t122 81.5t151 30t151 -30t122 -81.5t82 -120.5t30 -148zM380 845q-11 0 -18 -7.5t-7 -22.5v-10h-85v35q0 57 21.5 81t63.5 24q25 0 38.5 -8t23.5 -17t19 -17t24 -8q11 0 18 7.5t7 22.5v10h85v-35q0 -57 -21.5 -81t-63.5 -24q-25 0 -39 8t-23.5 17t-18.5 17
t-24 8z" />
    <glyph glyph-name="Odieresis" unicode="&#xd6;" horiz-adv-x="830" 
d="M185 350q0 -51 18.5 -94.5t50 -76t73 -51t88.5 -18.5t88.5 18.5t73 51t50 76t18.5 94.5t-18.5 94.5t-50 76t-73 51t-88.5 18.5t-88.5 -18.5t-73 -51t-50 -76t-18.5 -94.5zM800 350q0 -79 -30 -148t-82 -120.5t-122 -81.5t-151 -30t-151 30t-122 81.5t-82 120.5t-30 148
t30 148t82 120.5t122 81.5t151 30t151 -30t122 -81.5t82 -120.5t30 -148zM250 880q0 30 20 50t50 20t50 -20t20 -50t-20 -50t-50 -20t-50 20t-20 50zM450 880q0 30 20 50t50 20t50 -20t20 -50t-20 -50t-50 -20t-50 20t-20 50z" />
    <glyph glyph-name="multiply" unicode="&#xd7;" horiz-adv-x="440" 
d="M410 205l-85 -85l-105 105l-105 -105l-85 85l105 105l-105 105l85 85l105 -105l105 105l85 -85l-105 -105z" />
    <glyph glyph-name="Oslash" unicode="&#xd8;" horiz-adv-x="870" 
d="M820 350q0 -79 -30 -148t-82 -120.5t-122 -81.5t-151 -30q-52 0 -100 12.5t-90 36t-77 56t-60 72.5l-108 -47v120l64 28q-14 50 -14 102q0 79 30 148t82 120.5t122 81.5t151 30q52 0 100 -13t90 -36t76.5 -56t59.5 -73l109 48v-120l-64 -28q14 -51 14 -102zM665 350
q0 19 -3 39l-413 -180q32 -46 80.5 -72.5t105.5 -26.5q47 0 88.5 18.5t73 51t50 76t18.5 94.5zM205 350q0 -21 3 -39l413 180q-32 46 -80.5 72.5t-105.5 26.5q-47 0 -88.5 -18.5t-73 -51t-50 -76t-18.5 -94.5z" />
    <glyph glyph-name="Ugrave" unicode="&#xd9;" horiz-adv-x="730" 
d="M365 110q68 0 109 41.5t41 113.5v435h155v-435q0 -66 -21.5 -120t-61.5 -93t-96.5 -60.5t-125.5 -21.5t-125.5 21.5t-96.5 60.5t-61.5 93t-21.5 120v435h155v-435q0 -72 41 -113.5t109 -41.5zM305 950l155 -80l-35 -80l-165 60z" />
    <glyph glyph-name="Uacute" unicode="&#xda;" horiz-adv-x="730" 
d="M365 110q68 0 109 41.5t41 113.5v435h155v-435q0 -66 -21.5 -120t-61.5 -93t-96.5 -60.5t-125.5 -21.5t-125.5 21.5t-96.5 60.5t-61.5 93t-21.5 120v435h155v-435q0 -72 41 -113.5t109 -41.5zM475 850l-165 -60l-35 80l155 80z" />
    <glyph glyph-name="Ucircumflex" unicode="&#xdb;" horiz-adv-x="730" 
d="M365 110q68 0 109 41.5t41 113.5v435h155v-435q0 -66 -21.5 -120t-61.5 -93t-96.5 -60.5t-125.5 -21.5t-125.5 21.5t-96.5 60.5t-61.5 93t-21.5 120v435h155v-435q0 -72 41 -113.5t109 -41.5zM420 960l120 -170h-110l-55 75h-10l-55 -75h-110l120 170h100z" />
    <glyph glyph-name="Udieresis" unicode="&#xdc;" horiz-adv-x="730" 
d="M365 110q68 0 109 41.5t41 113.5v435h155v-435q0 -66 -21.5 -120t-61.5 -93t-96.5 -60.5t-125.5 -21.5t-125.5 21.5t-96.5 60.5t-61.5 93t-21.5 120v435h155v-435q0 -72 41 -113.5t109 -41.5zM185 865q0 30 20 50t50 20t50 -20t20 -50t-20 -50t-50 -20t-50 20t-20 50z
M385 865q0 30 20 50t50 20t50 -20t20 -50t-20 -50t-50 -20t-50 20t-20 50z" />
    <glyph glyph-name="Yacute" unicode="&#xdd;" horiz-adv-x="675" 
d="M415 0h-155v230l-265 470h175l165 -300h5l165 300h175l-265 -470v-230zM450 840l-165 -60l-35 80l155 80z" />
    <glyph glyph-name="Thorn" unicode="&#xde;" horiz-adv-x="655" 
d="M290 660q77 0 139 -23t105.5 -64.5t67 -98.5t23.5 -124q0 -68 -23.5 -124.5t-67 -98t-105.5 -64.5t-139 -23h-75v-60h-155v740h155v-60h75zM215 520v-340h75q41 0 74.5 12.5t57 35t36 53.5t12.5 69q0 37 -12.5 68.5t-36 54t-57 35t-74.5 12.5h-75z" />
    <glyph glyph-name="germandbls" unicode="&#xdf;" horiz-adv-x="565" 
d="M250 435q42 0 66 23t24 57t-20 57t-50 23t-52.5 -23t-22.5 -57v-515h-140v520q0 41 16 77.5t44.5 63.5t68 43t86.5 16t85.5 -15t66.5 -39.5t43 -57t15 -68.5q0 -42 -13.5 -68.5t-29.5 -42.5q-18 -18 -42 -29v-10q40 -11 72 -35q27 -20 50 -56.5t23 -94.5q0 -43 -16.5 -80
t-46.5 -64.5t-72.5 -43.5t-94.5 -16h-60v125h60q38 0 64 26t26 64t-26 64t-64 26h-60v130z" />
    <glyph glyph-name="agrave" unicode="&#xe0;" horiz-adv-x="585" 
d="M30 240q0 56 19 104t50.5 82.5t72 54t83.5 19.5q35 0 60 -11t41 -24q18 -16 29 -35h10v50h140v-480h-140v50h-10q-11 -20 -29 -35q-16 -14 -41 -24.5t-60 -10.5q-43 0 -83.5 19.5t-72 54t-50.5 82.5t-19 104zM395 290q-12 24 -29 42q-14 16 -34.5 29.5t-46.5 13.5
q-49 0 -82 -35.5t-33 -99.5t33 -99.5t82 -35.5q26 0 46.5 13t34.5 29q17 18 29 43v100zM235 730l155 -80l-35 -80l-165 60z" />
    <glyph glyph-name="aacute" unicode="&#xe1;" horiz-adv-x="585" 
d="M30 240q0 56 19 104t50.5 82.5t72 54t83.5 19.5q35 0 60 -11t41 -24q18 -16 29 -35h10v50h140v-480h-140v50h-10q-11 -20 -29 -35q-16 -14 -41 -24.5t-60 -10.5q-43 0 -83.5 19.5t-72 54t-50.5 82.5t-19 104zM395 290q-12 24 -29 42q-14 16 -34.5 29.5t-46.5 13.5
q-49 0 -82 -35.5t-33 -99.5t33 -99.5t82 -35.5q26 0 46.5 13t34.5 29q17 18 29 43v100zM400 630l-165 -60l-35 80l155 80z" />
    <glyph glyph-name="acircumflex" unicode="&#xe2;" horiz-adv-x="585" 
d="M30 240q0 56 19 104t50.5 82.5t72 54t83.5 19.5q35 0 60 -11t41 -24q18 -16 29 -35h10v50h140v-480h-140v50h-10q-11 -20 -29 -35q-16 -14 -41 -24.5t-60 -10.5q-43 0 -83.5 19.5t-72 54t-50.5 82.5t-19 104zM395 290q-12 24 -29 42q-14 16 -34.5 29.5t-46.5 13.5
q-49 0 -82 -35.5t-33 -99.5t33 -99.5t82 -35.5q26 0 46.5 13t34.5 29q17 18 29 43v100zM345 740l120 -170h-110l-55 75h-10l-55 -75h-110l120 170h100z" />
    <glyph glyph-name="atilde" unicode="&#xe3;" horiz-adv-x="585" 
d="M30 240q0 56 19 104t50.5 82.5t72 54t83.5 19.5q35 0 60 -11t41 -24q18 -16 29 -35h10v50h140v-480h-140v50h-10q-11 -20 -29 -35q-16 -14 -41 -24.5t-60 -10.5q-43 0 -83.5 19.5t-72 54t-50.5 82.5t-19 104zM395 290q-12 24 -29 42q-14 16 -34.5 29.5t-46.5 13.5
q-49 0 -82 -35.5t-33 -99.5t33 -99.5t82 -35.5q26 0 46.5 13t34.5 29q17 18 29 43v100zM260 620q-11 0 -18 -7.5t-7 -22.5v-10h-85v35q0 57 21.5 81t63.5 24q25 0 38.5 -8t23.5 -17t19 -17t24 -8q11 0 18 7.5t7 22.5v10h85v-35q0 -57 -21.5 -81t-63.5 -24q-25 0 -39 8
t-23.5 17t-18.5 17t-24 8z" />
    <glyph glyph-name="adieresis" unicode="&#xe4;" horiz-adv-x="585" 
d="M30 240q0 56 19 104t50.5 82.5t72 54t83.5 19.5q35 0 60 -11t41 -24q18 -16 29 -35h10v50h140v-480h-140v50h-10q-11 -20 -29 -35q-16 -14 -41 -24.5t-60 -10.5q-43 0 -83.5 19.5t-72 54t-50.5 82.5t-19 104zM395 290q-12 24 -29 42q-14 16 -34.5 29.5t-46.5 13.5
q-49 0 -82 -35.5t-33 -99.5t33 -99.5t82 -35.5q26 0 46.5 13t34.5 29q17 18 29 43v100zM125 645q0 30 20 50t50 20t50 -20t20 -50t-20 -50t-50 -20t-50 20t-20 50zM325 645q0 30 20 50t50 20t50 -20t20 -50t-20 -50t-50 -20t-50 20t-20 50z" />
    <glyph glyph-name="aring" unicode="&#xe5;" horiz-adv-x="585" 
d="M30 240q0 56 19 104t50.5 82.5t72 54t83.5 19.5q35 0 60 -11t41 -24q18 -16 29 -35h10v50h140v-480h-140v50h-10q-11 -20 -29 -35q-16 -14 -41 -24.5t-60 -10.5q-43 0 -83.5 19.5t-72 54t-50.5 82.5t-19 104zM395 290q-12 24 -29 42q-14 16 -34.5 29.5t-46.5 13.5
q-49 0 -82 -35.5t-33 -99.5t33 -99.5t82 -35.5q26 0 46.5 13t34.5 29q17 18 29 43v100zM180 670q0 22 8.5 42t23.5 35t35 24t43 9q22 0 42 -9t35 -24t24 -35t9 -42q0 -23 -9 -43t-24 -35t-35 -23.5t-42 -8.5q-23 0 -43 8.5t-35 23.5t-23.5 35t-8.5 43zM245 670
q0 -23 13 -36.5t33 -13.5q18 0 31 13.5t13 36.5t-13 36.5t-32 13.5t-32 -13.5t-13 -36.5z" />
    <glyph glyph-name="ae" unicode="&#xe6;" horiz-adv-x="855" 
d="M215 105q22 0 41.5 7.5t33.5 20t22 27.5t8 30h-105q-30 0 -45 -13t-15 -32q0 -40 60 -40zM575 375q-38 0 -63.5 -23.5t-36.5 -61.5h200q-11 38 -36.5 61.5t-63.5 23.5zM395 60q-19 -22 -45 -40q-23 -15 -57.5 -27.5t-82.5 -12.5q-45 0 -81 13t-61.5 34t-39 48t-13.5 55
q0 71 49.5 115.5t150.5 44.5h105q0 42 -21 63t-57 21q-20 0 -34 -7t-23 -15q-11 -10 -17 -21q-29 11 -58 23l-58 24q14 34 40 61q23 23 60.5 42t94.5 19q42 0 70.5 -12.5t45.5 -27.5q20 -18 32 -40h10q14 22 38 40q20 15 52 27.5t80 12.5q52 0 98.5 -20t81.5 -55.5t55 -83
t20 -101.5l-50 -50h-305q11 -38 36.5 -61.5t63.5 -23.5q45 0 67.5 16t37.5 39l140 -20q-11 -30 -32 -59t-51.5 -51.5t-70.5 -36t-91 -13.5q-42 0 -73 12.5t-53 27.5q-26 18 -44 40h-10z" />
    <glyph glyph-name="ccedilla" unicode="&#xe7;" horiz-adv-x="550" 
d="M530 160q-7 -33 -24 -63.5t-44 -54.5t-63 -40t-81 -20l-13 -32q22 -6 40 -18q15 -11 27.5 -30.5t12.5 -51.5q0 -53 -35 -86.5t-95 -33.5q-23 0 -40.5 7t-29.5 15q-14 10 -25 23l45 55q5 -6 13 -10q6 -4 15.5 -7t21.5 -3q19 0 32 12.5t13 27.5t-13 27.5t-32 12.5h-50
l39 94q-44 7 -83 30.5t-68 58t-46 77.5t-17 90q0 52 21 99.5t56 83t81 56.5t97 21q49 0 89 -14.5t70 -38t49 -53t27 -59.5l-140 -20q-11 23 -34 41.5t-61 18.5q-23 0 -43.5 -10t-36.5 -27.5t-25.5 -42.5t-9.5 -55t9.5 -55t25.5 -42.5t36.5 -27.5t43.5 -10q42 0 68 22.5
t37 52.5z" />
    <glyph glyph-name="egrave" unicode="&#xe8;" 
d="M285 500q54 0 101.5 -20t83 -55.5t55.5 -83t20 -101.5l-50 -50h-315q11 -38 37 -61.5t68 -23.5q24 0 41.5 4.5t30.5 12t21.5 17.5t16.5 21l140 -20q-11 -30 -32 -59t-52 -51.5t-72.5 -36t-93.5 -13.5q-51 0 -97 21t-81 56.5t-56 82.5t-21 100q0 52 21 99.5t56 83t81 56.5
t97 21zM285 375q-42 0 -68 -23.5t-37 -61.5h210q-11 38 -37 61.5t-68 23.5zM240 730l155 -80l-35 -80l-165 60z" />
    <glyph glyph-name="eacute" unicode="&#xe9;" 
d="M285 500q54 0 101.5 -20t83 -55.5t55.5 -83t20 -101.5l-50 -50h-315q11 -38 37 -61.5t68 -23.5q24 0 41.5 4.5t30.5 12t21.5 17.5t16.5 21l140 -20q-11 -30 -32 -59t-52 -51.5t-72.5 -36t-93.5 -13.5q-51 0 -97 21t-81 56.5t-56 82.5t-21 100q0 52 21 99.5t56 83t81 56.5
t97 21zM285 375q-42 0 -68 -23.5t-37 -61.5h210q-11 38 -37 61.5t-68 23.5zM395 630l-165 -60l-35 80l155 80z" />
    <glyph glyph-name="ecircumflex" unicode="&#xea;" 
d="M285 500q54 0 101.5 -20t83 -55.5t55.5 -83t20 -101.5l-50 -50h-315q11 -38 37 -61.5t68 -23.5q24 0 41.5 4.5t30.5 12t21.5 17.5t16.5 21l140 -20q-11 -30 -32 -59t-52 -51.5t-72.5 -36t-93.5 -13.5q-51 0 -97 21t-81 56.5t-56 82.5t-21 100q0 52 21 99.5t56 83t81 56.5
t97 21zM285 375q-42 0 -68 -23.5t-37 -61.5h210q-11 38 -37 61.5t-68 23.5zM335 735l120 -170h-110l-55 75h-10l-55 -75h-110l120 170h100z" />
    <glyph glyph-name="edieresis" unicode="&#xeb;" 
d="M285 500q54 0 101.5 -20t83 -55.5t55.5 -83t20 -101.5l-50 -50h-315q11 -38 37 -61.5t68 -23.5q24 0 41.5 4.5t30.5 12t21.5 17.5t16.5 21l140 -20q-11 -30 -32 -59t-52 -51.5t-72.5 -36t-93.5 -13.5q-51 0 -97 21t-81 56.5t-56 82.5t-21 100q0 52 21 99.5t56 83t81 56.5
t97 21zM285 375q-42 0 -68 -23.5t-37 -61.5h210q-11 38 -37 61.5t-68 23.5zM110 640q0 30 20 50t50 20t50 -20t20 -50t-20 -50t-50 -20t-50 20t-20 50zM310 640q0 30 20 50t50 20t50 -20t20 -50t-20 -50t-50 -20t-50 20t-20 50z" />
    <glyph glyph-name="igrave" unicode="&#xec;" horiz-adv-x="260" 
d="M46 725l155 -80l-35 -80l-165 60zM200 0h-140v480h140v-480z" />
    <glyph glyph-name="iacute" unicode="&#xed;" horiz-adv-x="260" 
d="M240 625l-165 -60l-35 80l155 80zM200 0h-140v480h140v-480z" />
    <glyph glyph-name="icircumflex" unicode="&#xee;" horiz-adv-x="260" 
d="M200 0h-140v480h140v-480zM181 720l120 -170h-110l-55 75h-10l-55 -75h-110l120 170h100z" />
    <glyph glyph-name="idieresis" unicode="&#xef;" horiz-adv-x="280" 
d="M-29 630q0 30 20 50t50 20t50 -20t20 -50t-20 -50t-50 -20t-50 20t-20 50zM171 630q0 30 20 50t50 20t50 -20t20 -50t-20 -50t-50 -20t-50 20t-20 50zM210 0h-140v480h140v-480z" />
    <glyph glyph-name="eth" unicode="&#xf0;" horiz-adv-x="560" 
d="M275 495l-60 80l60 45l-55 65l95 80l65 -70l60 45l60 -80l-65 -45q24 -24 42 -60q16 -31 29.5 -79t13.5 -116v-140q0 -53 -18 -97t-50 -75.5t-77.5 -49.5t-99.5 -18t-99.5 17.5t-77.5 49t-50 74.5t-18 94t17.5 94t48.5 74.5t73 49t91 17.5q26 0 46.5 -8t34.5 -17
q17 -11 29 -25h10q0 38 -7.5 64t-15.5 43q-10 19 -22 33zM275 105q45 0 75 30.5t30 79.5t-30 79.5t-75 30.5t-75 -30t-30 -80q0 -49 30 -79.5t75 -30.5z" />
    <glyph glyph-name="ntilde" unicode="&#xf1;" horiz-adv-x="565" 
d="M520 0h-140v275q0 45 -25.5 72.5t-59.5 27.5q-25 0 -44 -13.5t-33 -29.5q-16 -18 -28 -42v-290h-140v480h140v-50h10q11 19 29 35q15 13 38.5 24t57.5 11q39 0 74.5 -16t62.5 -45.5t42.5 -71t15.5 -92.5v-275zM240 625q-11 0 -18 -7.5t-7 -22.5v-10h-85v35q0 57 21.5 81
t63.5 24q25 0 38.5 -8t23.5 -17t19 -17t24 -8q11 0 18 7.5t7 22.5v10h85v-35q0 -57 -21.5 -81t-63.5 -24q-25 0 -39 8t-23.5 17t-18.5 17t-24 8z" />
    <glyph glyph-name="ograve" unicode="&#xf2;" horiz-adv-x="590" 
d="M295 105q24 0 47 10.5t40 29t27.5 43t10.5 52.5t-10.5 52.5t-27.5 43t-40 29t-47 10.5t-47 -10.5t-40 -29t-27.5 -43t-10.5 -52.5t10.5 -52.5t27.5 -43t40 -29t47 -10.5zM295 -20q-54 0 -102.5 21t-84.5 56.5t-57 82.5t-21 100q0 52 21 99.5t57 83t84.5 56.5t102.5 21
t102.5 -21t84.5 -56.5t57 -83t21 -99.5q0 -53 -21 -100t-57 -82.5t-84.5 -56.5t-102.5 -21zM235 720l155 -80l-35 -80l-165 60z" />
    <glyph glyph-name="oacute" unicode="&#xf3;" horiz-adv-x="590" 
d="M295 105q24 0 47 10.5t40 29t27.5 43t10.5 52.5t-10.5 52.5t-27.5 43t-40 29t-47 10.5t-47 -10.5t-40 -29t-27.5 -43t-10.5 -52.5t10.5 -52.5t27.5 -43t40 -29t47 -10.5zM295 -20q-54 0 -102.5 21t-84.5 56.5t-57 82.5t-21 100q0 52 21 99.5t57 83t84.5 56.5t102.5 21
t102.5 -21t84.5 -56.5t57 -83t21 -99.5q0 -53 -21 -100t-57 -82.5t-84.5 -56.5t-102.5 -21zM390 630l-165 -60l-35 80l155 80z" />
    <glyph glyph-name="ocircumflex" unicode="&#xf4;" horiz-adv-x="590" 
d="M295 105q24 0 47 10.5t40 29t27.5 43t10.5 52.5t-10.5 52.5t-27.5 43t-40 29t-47 10.5t-47 -10.5t-40 -29t-27.5 -43t-10.5 -52.5t10.5 -52.5t27.5 -43t40 -29t47 -10.5zM295 -20q-54 0 -102.5 21t-84.5 56.5t-57 82.5t-21 100q0 52 21 99.5t57 83t84.5 56.5t102.5 21
t102.5 -21t84.5 -56.5t57 -83t21 -99.5q0 -53 -21 -100t-57 -82.5t-84.5 -56.5t-102.5 -21zM345 740l120 -170h-110l-55 75h-10l-55 -75h-110l120 170h100z" />
    <glyph glyph-name="otilde" unicode="&#xf5;" horiz-adv-x="590" 
d="M295 105q24 0 47 10.5t40 29t27.5 43t10.5 52.5t-10.5 52.5t-27.5 43t-40 29t-47 10.5t-47 -10.5t-40 -29t-27.5 -43t-10.5 -52.5t10.5 -52.5t27.5 -43t40 -29t47 -10.5zM295 -20q-54 0 -102.5 21t-84.5 56.5t-57 82.5t-21 100q0 52 21 99.5t57 83t84.5 56.5t102.5 21
t102.5 -21t84.5 -56.5t57 -83t21 -99.5q0 -53 -21 -100t-57 -82.5t-84.5 -56.5t-102.5 -21zM255 610q-11 0 -18 -7.5t-7 -22.5v-10h-85v35q0 57 21.5 81t63.5 24q25 0 38.5 -8t23.5 -17t19 -17t24 -8q11 0 18 7.5t7 22.5v10h85v-35q0 -57 -21.5 -81t-63.5 -24q-25 0 -39 8
t-23.5 17t-18.5 17t-24 8z" />
    <glyph glyph-name="odieresis" unicode="&#xf6;" horiz-adv-x="590" 
d="M295 105q24 0 47 10.5t40 29t27.5 43t10.5 52.5t-10.5 52.5t-27.5 43t-40 29t-47 10.5t-47 -10.5t-40 -29t-27.5 -43t-10.5 -52.5t10.5 -52.5t27.5 -43t40 -29t47 -10.5zM295 -20q-54 0 -102.5 21t-84.5 56.5t-57 82.5t-21 100q0 52 21 99.5t57 83t84.5 56.5t102.5 21
t102.5 -21t84.5 -56.5t57 -83t21 -99.5q0 -53 -21 -100t-57 -82.5t-84.5 -56.5t-102.5 -21zM115 650q0 30 20 50t50 20t50 -20t20 -50t-20 -50t-50 -20t-50 20t-20 50zM315 650q0 30 20 50t50 20t50 -20t20 -50t-20 -50t-50 -20t-50 20t-20 50z" />
    <glyph glyph-name="divide" unicode="&#xf7;" horiz-adv-x="420" 
d="M400 250h-380v120h380v-120zM130 510q0 34 23 57t57 23t57 -23t23 -57t-23 -57t-57 -23t-57 23t-23 57zM20 370h380v-120h-380v120zM290 110q0 -34 -23 -57t-57 -23t-57 23t-23 57t23 57t57 23t57 -23t23 -57z" />
    <glyph glyph-name="oslash" unicode="&#xf8;" horiz-adv-x="590" 
d="M295 -20q-70 0 -128.5 33t-94.5 87l-72 -30v90l38 16q-4 16 -6 31.5t-2 32.5q0 52 21 99.5t57 83t84.5 56.5t102.5 21q69 0 128 -33.5t94 -87.5l73 31v-90l-39 -17q9 -30 9 -63q0 -53 -21 -100t-57 -82.5t-84.5 -56.5t-102.5 -21zM295 105q24 0 47 10.5t40 29t27.5 43
t10.5 52.5v8l-221 -94q18 -23 43 -36t53 -13zM170 232l220 93q-17 23 -42 36.5t-53 13.5q-24 0 -47 -10.5t-40 -29t-27.5 -43t-10.5 -52.5v-8z" />
    <glyph glyph-name="ugrave" unicode="&#xf9;" 
d="M50 480h140v-275q0 -45 25.5 -72.5t59.5 -27.5q24 0 43.5 13t33.5 29q16 18 28 43v290h140v-480h-140v50h-10q-11 -20 -29 -35q-15 -14 -38.5 -24.5t-57.5 -10.5q-39 0 -74.5 16t-62.5 45.5t-42.5 71t-15.5 92.5v275zM235 715l155 -80l-35 -80l-165 60z" />
    <glyph glyph-name="uacute" unicode="&#xfa;" 
d="M50 480h140v-275q0 -45 25.5 -72.5t59.5 -27.5q24 0 43.5 13t33.5 29q16 18 28 43v290h140v-480h-140v50h-10q-11 -20 -29 -35q-15 -14 -38.5 -24.5t-57.5 -10.5q-39 0 -74.5 16t-62.5 45.5t-42.5 71t-15.5 92.5v275zM385 610l-165 -60l-35 80l155 80z" />
    <glyph glyph-name="ucircumflex" unicode="&#xfb;" 
d="M50 480h140v-275q0 -45 25.5 -72.5t59.5 -27.5q24 0 43.5 13t33.5 29q16 18 28 43v290h140v-480h-140v50h-10q-11 -20 -29 -35q-15 -14 -38.5 -24.5t-57.5 -10.5q-39 0 -74.5 16t-62.5 45.5t-42.5 71t-15.5 92.5v275zM330 730l120 -170h-110l-55 75h-10l-55 -75h-110
l120 170h100z" />
    <glyph glyph-name="udieresis" unicode="&#xfc;" 
d="M50 480h140v-275q0 -45 25.5 -72.5t59.5 -27.5q24 0 43.5 13t33.5 29q16 18 28 43v290h140v-480h-140v50h-10q-11 -20 -29 -35q-15 -14 -38.5 -24.5t-57.5 -10.5q-39 0 -74.5 16t-62.5 45.5t-42.5 71t-15.5 92.5v275zM105 635q0 30 20 50t50 20t50 -20t20 -50t-20 -50
t-50 -20t-50 20t-20 50zM305 635q0 30 20 50t50 20t50 -20t20 -50t-20 -50t-50 -20t-50 20t-20 50z" />
    <glyph glyph-name="yacute" unicode="&#xfd;" horiz-adv-x="540" 
d="M520 480l-100 -480q-25 -120 -77 -175t-123 -55q-21 0 -39 3t-32 7q-16 4 -29 10l20 120q7 -4 16 -8q17 -7 39 -7q30 0 52 24t33 81h-155l-105 480h140l76 -355h69l75 355h140zM370 620l-165 -60l-35 80l155 80z" />
    <glyph glyph-name="thorn" unicode="&#xfe;" horiz-adv-x="590" 
d="M560 240q0 -56 -19 -104t-50.5 -82.5t-72 -54t-83.5 -19.5q-36 0 -60.5 10.5t-40.5 24.5q-18 15 -29 35h-10v-250h-140v900h140v-270h10q11 19 29 35q16 13 40.5 24t60.5 11q43 0 83.5 -19.5t72 -54t50.5 -82.5t19 -104zM195 190q12 -25 29 -43q14 -16 34.5 -29t46.5 -13
q49 0 82 35.5t33 99.5t-33 99.5t-82 35.5q-26 0 -46.5 -13.5t-34.5 -29.5q-17 -18 -29 -42v-100z" />
    <glyph glyph-name="ydieresis" unicode="&#xff;" horiz-adv-x="540" 
d="M520 480l-100 -480q-25 -120 -77 -175t-123 -55q-21 0 -39 3t-32 7q-16 4 -29 10l20 120q7 -4 16 -8q17 -7 39 -7q30 0 52 24t33 81h-155l-105 480h140l76 -355h69l75 355h140zM90 640q0 30 20 50t50 20t50 -20t20 -50t-20 -50t-50 -20t-50 20t-20 50zM290 640
q0 30 20 50t50 20t50 -20t20 -50t-20 -50t-50 -20t-50 20t-20 50z" />
    <glyph glyph-name="Amacron" unicode="&#x100;" horiz-adv-x="715" 
d="M180 700h355l170 -700h-160l-35 145h-305l-35 -145h-160zM240 285h235l-65 275h-105zM208 900h270v-110h-270v110z" />
    <glyph glyph-name="amacron" unicode="&#x101;" horiz-adv-x="585" 
d="M30 240q0 56 19 104t50.5 82.5t72 54t83.5 19.5q35 0 60 -11t41 -24q18 -16 29 -35h10v50h140v-480h-140v50h-10q-11 -20 -29 -35q-16 -14 -41 -24.5t-60 -10.5q-43 0 -83.5 19.5t-72 54t-50.5 82.5t-19 104zM395 290q-12 24 -29 42q-14 16 -34.5 29.5t-46.5 13.5
q-49 0 -82 -35.5t-33 -99.5t33 -99.5t82 -35.5q26 0 46.5 13t34.5 29q17 18 29 43v100zM143 696h270v-110h-270v110z" />
    <glyph glyph-name="Abreve" unicode="&#x102;" horiz-adv-x="715" 
d="M180 700h355l170 -700h-160l-35 145h-305l-35 -145h-160zM240 285h235l-65 275h-105zM360 790q-34 0 -62.5 11.5t-49 31.5t-32 47.5t-11.5 59.5h100q4 -23 18.5 -36.5t36.5 -13.5t36.5 13.5t18.5 36.5h100q0 -32 -11.5 -59.5t-32 -47.5t-49 -31.5t-62.5 -11.5z" />
    <glyph glyph-name="abreve" unicode="&#x103;" horiz-adv-x="585" 
d="M30 240q0 56 19 104t50.5 82.5t72 54t83.5 19.5q35 0 60 -11t41 -24q18 -16 29 -35h10v50h140v-480h-140v50h-10q-11 -20 -29 -35q-16 -14 -41 -24.5t-60 -10.5q-43 0 -83.5 19.5t-72 54t-50.5 82.5t-19 104zM395 290q-12 24 -29 42q-14 16 -34.5 29.5t-46.5 13.5
q-49 0 -82 -35.5t-33 -99.5t33 -99.5t82 -35.5q26 0 46.5 13t34.5 29q17 18 29 43v100zM295 575q-34 0 -62.5 11.5t-49 31.5t-32 47.5t-11.5 59.5h100q4 -23 18.5 -36.5t36.5 -13.5t36.5 13.5t18.5 36.5h100q0 -32 -11.5 -59.5t-32 -47.5t-49 -31.5t-62.5 -11.5z" />
    <glyph glyph-name="Aogonek" unicode="&#x104;" horiz-adv-x="715" 
d="M615 -250q-53 0 -81.5 27.5t-28.5 72.5q0 35 20.5 63t46.5 48q30 23 68 39h-95l-35 145h-305l-35 -145h-160l170 700h355l170 -700q-32 -20 -58 -43q-22 -20 -39.5 -44t-17.5 -48q0 -40 40 -40q18 0 32 7q7 4 13 8l20 -70q-11 -6 -23 -10q-11 -4 -25.5 -7t-31.5 -3z
M240 285h235l-65 275h-105z" />
    <glyph glyph-name="aogonek" unicode="&#x105;" horiz-adv-x="585" 
d="M445 -250q-53 0 -81.5 27.5t-28.5 72.5q0 35 20.5 63t46.5 48q30 23 68 39h-75v50h-10q-11 -20 -29 -35q-16 -14 -41 -24.5t-60 -10.5q-43 0 -83.5 19.5t-72 54t-50.5 82.5t-19 104t19 104t50.5 82.5t72 54t83.5 19.5q35 0 60 -11t41 -24q18 -16 29 -35h10v50h140v-480
q-32 -20 -58 -43q-22 -20 -39.5 -44t-17.5 -48q0 -40 40 -40q18 0 32 7q7 4 13 8l20 -70q-11 -6 -23 -10q-11 -4 -25.5 -7t-31.5 -3zM395 290q-12 24 -29 42q-14 16 -34.5 29.5t-46.5 13.5q-49 0 -82 -35.5t-33 -99.5t33 -99.5t82 -35.5q26 0 46.5 13t34.5 29q17 18 29 43
v100z" />
    <glyph glyph-name="Cacute" unicode="&#x106;" horiz-adv-x="780" 
d="M410 -30q-77 0 -146 30.5t-121 82.5t-82.5 121t-30.5 146t30.5 146t82.5 121t121 82.5t146 30.5q67 0 122.5 -20t97 -52.5t69.5 -75t41 -87.5l-155 -20q-11 22 -27.5 43t-38.5 37t-50 25.5t-64 9.5q-43 0 -83 -18.5t-70.5 -51t-48.5 -76t-18 -94.5t18 -94.5t48.5 -76
t70.5 -51t83 -18.5q39 0 70.5 10.5t56 28.5t42.5 41.5t31 49.5l155 -20q-13 -47 -42.5 -92t-74 -80t-103.5 -56.5t-130 -21.5zM520 855l-165 -60l-35 80l155 80z" />
    <glyph glyph-name="cacute" unicode="&#x107;" horiz-adv-x="550" 
d="M285 -20q-51 0 -97 21t-81 56.5t-56 82.5t-21 100q0 52 21 99.5t56 83t81 56.5t97 21q49 0 89 -14.5t70 -38t49 -53t27 -59.5l-140 -20q-11 23 -34 41.5t-61 18.5q-23 0 -43.5 -10t-36.5 -27.5t-25.5 -42.5t-9.5 -55t9.5 -55t25.5 -42.5t36.5 -27.5t43.5 -10
q42 0 68 22.5t37 52.5l140 -20q-8 -36 -27.5 -68.5t-50 -57t-73 -39.5t-94.5 -15zM385 630l-165 -60l-35 80l155 80z" />
    <glyph glyph-name="Ccircumflex" unicode="&#x108;" horiz-adv-x="780" 
d="M410 -30q-77 0 -146 30.5t-121 82.5t-82.5 121t-30.5 146t30.5 146t82.5 121t121 82.5t146 30.5q67 0 122.5 -20t97 -52.5t69.5 -75t41 -87.5l-155 -20q-11 22 -27.5 43t-38.5 37t-50 25.5t-64 9.5q-43 0 -83 -18.5t-70.5 -51t-48.5 -76t-18 -94.5t18 -94.5t48.5 -76
t70.5 -51t83 -18.5q39 0 70.5 10.5t56 28.5t42.5 41.5t31 49.5l155 -20q-13 -47 -42.5 -92t-74 -80t-103.5 -56.5t-130 -21.5zM455 955l120 -170h-110l-55 75h-10l-55 -75h-110l120 170h100z" />
    <glyph glyph-name="ccircumflex" unicode="&#x109;" horiz-adv-x="550" 
d="M285 -20q-51 0 -97 21t-81 56.5t-56 82.5t-21 100q0 52 21 99.5t56 83t81 56.5t97 21q49 0 89 -14.5t70 -38t49 -53t27 -59.5l-140 -20q-11 23 -34 41.5t-61 18.5q-23 0 -43.5 -10t-36.5 -27.5t-25.5 -42.5t-9.5 -55t9.5 -55t25.5 -42.5t36.5 -27.5t43.5 -10
q42 0 68 22.5t37 52.5l140 -20q-8 -36 -27.5 -68.5t-50 -57t-73 -39.5t-94.5 -15zM340 740l120 -170h-110l-55 75h-10l-55 -75h-110l120 170h100z" />
    <glyph glyph-name="Ccaron" unicode="&#x10c;" horiz-adv-x="780" 
d="M410 -30q-77 0 -146 30.5t-121 82.5t-82.5 121t-30.5 146t30.5 146t82.5 121t121 82.5t146 30.5q67 0 122.5 -20t97 -52.5t69.5 -75t41 -87.5l-155 -20q-11 22 -27.5 43t-38.5 37t-50 25.5t-64 9.5q-43 0 -83 -18.5t-70.5 -51t-48.5 -76t-18 -94.5t18 -94.5t48.5 -76
t70.5 -51t83 -18.5q39 0 70.5 10.5t56 28.5t42.5 41.5t31 49.5l155 -20q-13 -47 -42.5 -92t-74 -80t-103.5 -56.5t-130 -21.5zM355 795l-120 170h110l55 -75h10l55 75h110l-120 -170h-100z" />
    <glyph glyph-name="ccaron" unicode="&#x10d;" horiz-adv-x="550" 
d="M285 -20q-51 0 -97 21t-81 56.5t-56 82.5t-21 100q0 52 21 99.5t56 83t81 56.5t97 21q49 0 89 -14.5t70 -38t49 -53t27 -59.5l-140 -20q-11 23 -34 41.5t-61 18.5q-23 0 -43.5 -10t-36.5 -27.5t-25.5 -42.5t-9.5 -55t9.5 -55t25.5 -42.5t36.5 -27.5t43.5 -10
q42 0 68 22.5t37 52.5l140 -20q-8 -36 -27.5 -68.5t-50 -57t-73 -39.5t-94.5 -15zM240 570l-120 170h110l55 -75h10l55 75h110l-120 -170h-100z" />
    <glyph glyph-name="Dcaron" unicode="&#x10e;" horiz-adv-x="715" 
d="M530 350q0 45 -16 83.5t-44.5 66.5t-68 44t-86.5 16h-100v-420h100q47 0 86.5 16t68 44t44.5 66.5t16 83.5zM685 350q0 -73 -27.5 -137t-77 -111t-117 -74.5t-148.5 -27.5h-255v700h255q81 0 148.5 -27.5t117 -74.5t77 -111t27.5 -137zM295 790l-120 170h110l55 -75h10
l55 75h110l-120 -170h-100z" />
    <glyph glyph-name="dcaron" unicode="&#x10f;" horiz-adv-x="675" 
d="M30 240q0 56 19 104t50.5 82.5t72 54t83.5 19.5q35 0 60 -11t41 -24q18 -16 29 -35h10v270h140v-700h-140v50h-10q-11 -20 -29 -35q-16 -14 -41 -24.5t-60 -10.5q-43 0 -83.5 19.5t-72 54t-50.5 82.5t-19 104zM395 290q-12 24 -29 42q-14 16 -34.5 29.5t-46.5 13.5
q-49 0 -82 -35.5t-33 -99.5t33 -99.5t82 -35.5q26 0 46.5 13t34.5 29q17 18 29 43v100zM565 640q0 13 6 25.5t16 22.5t22.5 16t25.5 6t25.5 -6t22.5 -16t16 -22.5t6 -25.5q0 -10 -1.5 -17t-3.5 -12q-3 -6 -5 -11l-75 -110h-50l30 90q-10 5 -18 13q-7 7 -12 18.5t-5 28.5z
" />
    <glyph glyph-name="Dcroat" unicode="&#x110;" horiz-adv-x="740" 
d="M710 350q0 -73 -27.5 -137t-77 -111t-117 -74.5t-148.5 -27.5h-255v285h-75v130h75v285h255q81 0 148.5 -27.5t117 -74.5t77 -111t27.5 -137zM555 350q0 45 -16 83.5t-44.5 66.5t-68 44t-86.5 16h-100v-145h120v-130h-120v-145h100q47 0 86.5 16t68 44t44.5 66.5t16 83.5
z" />
    <glyph glyph-name="dcroat" unicode="&#x111;" horiz-adv-x="600" 
d="M30 230q0 52 19 98t50.5 79.5t72 53t83.5 19.5q35 0 60 -11t41 -24q18 -16 29 -35h10v115h-105v115h105v60h140v-60h55v-115h-55v-525h-140v50h-10q-11 -20 -29 -35q-16 -14 -41 -24.5t-60 -10.5q-43 0 -83.5 19.5t-72 53t-50.5 79t-19 98.5zM395 270q-12 24 -29 42
q-14 16 -34.5 29.5t-46.5 13.5q-49 0 -82 -34t-33 -91t33 -91t82 -34q26 0 46.5 13t34.5 29q17 18 29 43v80z" />
    <glyph glyph-name="Emacron" unicode="&#x112;" horiz-adv-x="635" 
d="M615 140v-140h-555v700h555v-140h-400v-140h315v-140h-315v-140h400zM193 905h270v-110h-270v110z" />
    <glyph glyph-name="emacron" unicode="&#x113;" 
d="M285 500q54 0 101.5 -20t83 -55.5t55.5 -83t20 -101.5l-50 -50h-315q11 -38 37 -61.5t68 -23.5q24 0 41.5 4.5t30.5 12t21.5 17.5t16.5 21l140 -20q-11 -30 -32 -59t-52 -51.5t-72.5 -36t-93.5 -13.5q-51 0 -97 21t-81 56.5t-56 82.5t-21 100q0 52 21 99.5t56 83t81 56.5
t97 21zM285 375q-42 0 -68 -23.5t-37 -61.5h210q-11 38 -37 61.5t-68 23.5zM138 686h270v-110h-270v110z" />
    <glyph glyph-name="Edotaccent" unicode="&#x116;" horiz-adv-x="635" 
d="M615 140v-140h-555v700h555v-140h-400v-140h315v-140h-315v-140h400zM260 860q0 34 23 57t57 23t57 -23t23 -57t-23 -57t-57 -23t-57 23t-23 57z" />
    <glyph glyph-name="edotaccent" unicode="&#x117;" 
d="M285 500q54 0 101.5 -20t83 -55.5t55.5 -83t20 -101.5l-50 -50h-315q11 -38 37 -61.5t68 -23.5q24 0 41.5 4.5t30.5 12t21.5 17.5t16.5 21l140 -20q-11 -30 -32 -59t-52 -51.5t-72.5 -36t-93.5 -13.5q-51 0 -97 21t-81 56.5t-56 82.5t-21 100q0 52 21 99.5t56 83t81 56.5
t97 21zM285 375q-42 0 -68 -23.5t-37 -61.5h210q-11 38 -37 61.5t-68 23.5zM210 645q0 34 23 57t57 23t57 -23t23 -57t-23 -57t-57 -23t-57 23t-23 57z" />
    <glyph glyph-name="Eogonek" unicode="&#x118;" horiz-adv-x="635" 
d="M515 -250q-53 0 -81.5 27.5t-28.5 72.5q0 35 20.5 63t46.5 48q30 23 68 39h-480v700h555v-140h-400v-140h315v-140h-315v-140h400v-140h-10q-32 -20 -58 -43q-22 -20 -39.5 -44t-17.5 -48q0 -40 40 -40q18 0 32 7q7 4 13 8l20 -70q-11 -6 -23 -10q-11 -4 -25.5 -7
t-31.5 -3z" />
    <glyph glyph-name="eogonek" unicode="&#x119;" 
d="M300 -250q-53 0 -81.5 27.5t-28.5 72.5q0 23 9.5 43t23.5 36.5t31 29t32 21.5h-1q-51 0 -97 21t-81 56.5t-56 82.5t-21 100q0 52 21 99.5t56 83t81 56.5t97 21q54 0 101.5 -20t83 -55.5t55.5 -83t20 -101.5l-50 -50h-315q11 -38 37 -61.5t68 -23.5q24 0 41.5 4.5t30.5 12
t21.5 17.5t16.5 21l140 -20q-17 -45 -54.5 -85t-99.5 -60q-9 -6 -26.5 -19t-35.5 -31t-31 -38.5t-13 -41.5q0 -40 40 -40q18 0 32 7q7 4 13 8l20 -70q-11 -6 -23 -10q-11 -4 -25.5 -7t-31.5 -3zM285 375q-42 0 -68 -23.5t-37 -61.5h210q-11 38 -37 61.5t-68 23.5z" />
    <glyph glyph-name="Ecaron" unicode="&#x11a;" horiz-adv-x="635" 
d="M615 140v-140h-555v700h555v-140h-400v-140h315v-140h-315v-140h400zM285 790l-120 170h110l55 -75h10l55 75h110l-120 -170h-100z" />
    <glyph glyph-name="ecaron" unicode="&#x11b;" 
d="M285 500q54 0 101.5 -20t83 -55.5t55.5 -83t20 -101.5l-50 -50h-315q11 -38 37 -61.5t68 -23.5q24 0 41.5 4.5t30.5 12t21.5 17.5t16.5 21l140 -20q-11 -30 -32 -59t-52 -51.5t-72.5 -36t-93.5 -13.5q-51 0 -97 21t-81 56.5t-56 82.5t-21 100q0 52 21 99.5t56 83t81 56.5
t97 21zM285 375q-42 0 -68 -23.5t-37 -61.5h210q-11 38 -37 61.5t-68 23.5zM240 565l-120 170h110l55 -75h10l55 75h110l-120 -170h-100z" />
    <glyph glyph-name="Gbreve" unicode="&#x11e;" horiz-adv-x="795" 
d="M405 110q39 0 70.5 10.5t55.5 27t41 38t28 44.5v10h-185v140h350v-60q0 -73 -27.5 -137t-75 -111t-112.5 -74.5t-140 -27.5q-77 0 -146 30.5t-121 82.5t-82.5 121t-30.5 146t30.5 146t82.5 121t121 82.5t146 30.5q67 0 122.5 -20t97 -52.5t69.5 -75t41 -87.5l-155 -20
q-11 22 -27.5 43t-38.5 37t-50 25.5t-64 9.5q-43 0 -83 -18.5t-70.5 -51t-48.5 -76t-18 -94.5t18 -94.5t48.5 -76t70.5 -51t83 -18.5zM415 790q-34 0 -62.5 11.5t-49 31.5t-32 47.5t-11.5 59.5h100q4 -23 18.5 -36.5t36.5 -13.5t36.5 13.5t18.5 36.5h100q0 -32 -11.5 -59.5
t-32 -47.5t-49 -31.5t-62.5 -11.5z" />
    <glyph glyph-name="gbreve" unicode="&#x11f;" horiz-adv-x="585" 
d="M30 250q0 52 19 98t50.5 79.5t72 53t83.5 19.5q35 0 60 -11t41 -24q18 -16 29 -35h10v50h140v-466q0 -47 -19.5 -89t-52.5 -74.5t-77.5 -51.5t-95.5 -19t-90.5 13t-69 35t-49.5 51t-31 61l140 20q11 -19 35 -37t65 -18q45 0 75 30.5t30 79.5v55h-10q-11 -20 -29 -35
q-16 -14 -41 -24.5t-60 -10.5q-43 0 -83.5 19.5t-72 53t-50.5 79t-19 98.5zM395 290q-12 24 -29 42q-14 16 -34.5 29.5t-46.5 13.5q-49 0 -82 -34t-33 -91t33 -91t82 -34q26 0 46.5 13t34.5 29q17 18 29 43v80zM290 565q-34 0 -62.5 11.5t-49 31.5t-32 47.5t-11.5 59.5h100
q4 -23 18.5 -36.5t36.5 -13.5t36.5 13.5t18.5 36.5h100q0 -32 -11.5 -59.5t-32 -47.5t-49 -31.5t-62.5 -11.5z" />
    <glyph glyph-name="Gcommaaccent" unicode="&#x122;" horiz-adv-x="795" 
d="M405 110q39 0 70.5 10.5t55.5 27t41 38t28 44.5v10h-185v140h350v-60q0 -73 -27.5 -137t-75 -111t-112.5 -74.5t-140 -27.5q-77 0 -146 30.5t-121 82.5t-82.5 121t-30.5 146t30.5 146t82.5 121t121 82.5t146 30.5q67 0 122.5 -20t97 -52.5t69.5 -75t41 -87.5l-155 -20
q-11 22 -27.5 43t-38.5 37t-50 25.5t-64 9.5q-43 0 -83 -18.5t-70.5 -51t-48.5 -76t-18 -94.5t18 -94.5t48.5 -76t70.5 -51t83 -18.5zM340 -160q0 13 6 25.5t16 22.5t22.5 16t25.5 6t25.5 -6t22.5 -16t16 -22.5t6 -25.5q0 -10 -1.5 -17t-3.5 -12q-3 -6 -5 -11l-75 -110h-50
l30 90q-10 5 -18 13q-7 7 -12 18.5t-5 28.5z" />
    <glyph glyph-name="gcommaaccent" unicode="&#x123;" horiz-adv-x="585" 
d="M375 640q0 -30 -22.5 -52.5t-52.5 -22.5t-52.5 22.5t-22.5 52.5q0 18 7 32q4 7 8 13l80 105h50l-35 -85q11 -6 20 -16q8 -8 14 -20t6 -29zM30 250q0 52 19 98t50.5 79.5t72 53t83.5 19.5q35 0 60 -11t41 -24q18 -16 29 -35h10v50h140v-466q0 -47 -19.5 -89t-52.5 -74.5
t-77.5 -51.5t-95.5 -19t-90.5 13t-69 35t-49.5 51t-31 61l140 20q11 -19 35 -37t65 -18q45 0 75 30.5t30 79.5v55h-10q-11 -20 -29 -35q-16 -14 -41 -24.5t-60 -10.5q-43 0 -83.5 19.5t-72 53t-50.5 79t-19 98.5zM395 290q-12 24 -29 42q-14 16 -34.5 29.5t-46.5 13.5
q-49 0 -82 -34t-33 -91t33 -91t82 -34q26 0 46.5 13t34.5 29q17 18 29 43v80z" />
    <glyph glyph-name="Imacron" unicode="&#x12a;" horiz-adv-x="280" 
d="M215 0h-155v700h155v-700zM-11 895h270v-110h-270v110z" />
    <glyph glyph-name="imacron" unicode="&#x12b;" horiz-adv-x="260" 
d="M-21 691h270v-110h-270v110zM205 0h-140v480h140v-480z" />
    <glyph glyph-name="Iogonek" unicode="&#x12e;" horiz-adv-x="280" 
d="M130 -250q-53 0 -81.5 27.5t-28.5 72.5q0 35 20.5 63t46.5 48q30 23 68 39h-90v700h155v-700q-32 -20 -58 -43q-22 -20 -39.5 -44t-17.5 -48q0 -40 40 -40q18 0 32 7q7 4 13 8l20 -70q-11 -6 -23 -10q-11 -4 -25.5 -7t-31.5 -3z" />
    <glyph glyph-name="iogonek" unicode="&#x12f;" horiz-adv-x="255" 
d="M110 -250q-53 0 -81.5 27.5t-28.5 72.5q0 35 20.5 63t46.5 48q30 23 68 39h-75v480h140v-480q-32 -20 -58 -43q-22 -20 -39.5 -44t-17.5 -48q0 -40 40 -40q18 0 32 7q7 4 13 8l20 -70q-11 -6 -23 -10q-11 -4 -25.5 -7t-31.5 -3zM50 650q0 34 23 57t57 23t57 -23t23 -57
t-23 -57t-57 -23t-57 23t-23 57z" />
    <glyph glyph-name="Idotaccent" unicode="&#x130;" horiz-adv-x="270" 
d="M211 0h-155v700h155v-700zM55 865q0 34 23 57t57 23t57 -23t23 -57t-23 -57t-57 -23t-57 23t-23 57z" />
    <glyph glyph-name="dotlessi" unicode="&#x131;" horiz-adv-x="240" 
d="M190 0h-140v480h140v-480z" />
    <glyph glyph-name="Kcommaaccent" unicode="&#x136;" horiz-adv-x="695" 
d="M320 315l-105 -115v-200h-155v700h155v-295l275 295h190l-250 -270l265 -430h-180zM280 -140q0 13 6 25.5t16 22.5t22.5 16t25.5 6t25.5 -6t22.5 -16t16 -22.5t6 -25.5q0 -10 -1.5 -17t-3.5 -12q-3 -6 -5 -11l-75 -110h-50l30 90q-10 5 -18 13q-7 7 -12 18.5t-5 28.5z
" />
    <glyph glyph-name="kcommaaccent" unicode="&#x137;" horiz-adv-x="535" 
d="M195 0h-140v700h140v-390l160 170h170l-170 -180l185 -300h-155l-125 200l-65 -70v-130zM215 -145q0 13 6 25.5t16 22.5t22.5 16t25.5 6t25.5 -6t22.5 -16t16 -22.5t6 -25.5q0 -10 -1.5 -17t-3.5 -12q-3 -6 -5 -11l-75 -110h-50l30 90q-10 5 -18 13q-7 7 -12 18.5
t-5 28.5z" />
    <glyph glyph-name="Lacute" unicode="&#x139;" horiz-adv-x="590" 
d="M215 140h365v-140h-520v700h155v-560zM270 835l-165 -60l-35 80l155 80z" />
    <glyph glyph-name="lacute" unicode="&#x13a;" horiz-adv-x="280" 
d="M75 575h-65v125h205v-700h-140v575zM250 840l-165 -60l-35 80l155 80z" />
    <glyph glyph-name="Lcommaaccent" unicode="&#x13b;" horiz-adv-x="590" 
d="M215 140h365v-140h-520v700h155v-560zM255 -150q0 13 6 25.5t16 22.5t22.5 16t25.5 6t25.5 -6t22.5 -16t16 -22.5t6 -25.5q0 -10 -1.5 -17t-3.5 -12q-3 -6 -5 -11l-75 -110h-50l30 90q-10 5 -18 13q-7 7 -12 18.5t-5 28.5z" />
    <glyph glyph-name="lcommaaccent" unicode="&#x13c;" horiz-adv-x="270" 
d="M75 575h-65v125h205v-700h-140v575zM70 -140q0 13 6 25.5t16 22.5t22.5 16t25.5 6t25.5 -6t22.5 -16t16 -22.5t6 -25.5q0 -10 -1.5 -17t-3.5 -12q-3 -6 -5 -11l-75 -110h-50l30 90q-10 5 -18 13q-7 7 -12 18.5t-5 28.5z" />
    <glyph glyph-name="Lcaron" unicode="&#x13d;" horiz-adv-x="590" 
d="M215 140h365v-140h-520v700h155v-560zM270 635q0 30 22.5 52.5t52.5 22.5t52.5 -22.5t22.5 -52.5q0 -10 -2.5 -18t-5.5 -14q-4 -7 -7 -13l-80 -105h-50l35 85q-11 6 -20 16q-8 8 -14 20t-6 29z" />
    <glyph glyph-name="lcaron" unicode="&#x13e;" horiz-adv-x="370" 
d="M75 575h-65v125h205v-700h-140v575zM250 640q0 13 6 25.5t16 22.5t22.5 16t25.5 6t25.5 -6t22.5 -16t16 -22.5t6 -25.5q0 -10 -1.5 -17t-3.5 -12q-3 -6 -5 -11l-75 -110h-50l30 90q-10 5 -18 13q-7 7 -12 18.5t-5 28.5z" />
    <glyph glyph-name="Lslash" unicode="&#x141;" horiz-adv-x="620" 
d="M245 470l105 45v-130l-105 -45v-201h365v-139h-520v280l-80 -30v130l80 30v290h155v-230z" />
    <glyph glyph-name="lslash" unicode="&#x142;" horiz-adv-x="325" 
d="M10 340l75 30v205h-65v125h205v-275l90 35v-135l-90 -35v-290h-140v235l-75 -30v135z" />
    <glyph glyph-name="Nacute" unicode="&#x143;" horiz-adv-x="725" 
d="M500 260h10v440h155v-700h-170l-270 440h-10v-440h-155v700h170zM475 850l-165 -60l-35 80l155 80z" />
    <glyph glyph-name="nacute" unicode="&#x144;" horiz-adv-x="565" 
d="M520 0h-140v275q0 45 -25.5 72.5t-59.5 27.5q-25 0 -44 -13.5t-33 -29.5q-16 -18 -28 -42v-290h-140v480h140v-50h10q11 19 29 35q15 13 38.5 24t57.5 11q39 0 74.5 -16t62.5 -45.5t42.5 -71t15.5 -92.5v-275zM390 630l-165 -60l-35 80l155 80z" />
    <glyph glyph-name="Ncommaaccent" unicode="&#x145;" horiz-adv-x="725" 
d="M500 260h10v440h155v-700h-170l-270 440h-10v-440h-155v700h170zM290 -145q0 13 6 25.5t16 22.5t22.5 16t25.5 6t25.5 -6t22.5 -16t16 -22.5t6 -25.5q0 -10 -1.5 -17t-3.5 -12q-3 -6 -5 -11l-75 -110h-50l30 90q-10 5 -18 13q-7 7 -12 18.5t-5 28.5z" />
    <glyph glyph-name="ncommaaccent" unicode="&#x146;" horiz-adv-x="565" 
d="M520 0h-140v275q0 45 -25.5 72.5t-59.5 27.5q-25 0 -44 -13.5t-33 -29.5q-16 -18 -28 -42v-290h-140v480h140v-50h10q11 19 29 35q15 13 38.5 24t57.5 11q39 0 74.5 -16t62.5 -45.5t42.5 -71t15.5 -92.5v-275zM215 -150q0 13 6 25.5t16 22.5t22.5 16t25.5 6t25.5 -6
t22.5 -16t16 -22.5t6 -25.5q0 -10 -1.5 -17t-3.5 -12q-3 -6 -5 -11l-75 -110h-50l30 90q-10 5 -18 13q-7 7 -12 18.5t-5 28.5z" />
    <glyph glyph-name="Ncaron" unicode="&#x147;" horiz-adv-x="725" 
d="M500 260h10v440h155v-700h-170l-270 440h-10v-440h-155v700h170zM320 790l-120 170h110l55 -75h10l55 75h110l-120 -170h-100z" />
    <glyph glyph-name="ncaron" unicode="&#x148;" horiz-adv-x="565" 
d="M520 0h-140v275q0 45 -25.5 72.5t-59.5 27.5q-25 0 -44 -13.5t-33 -29.5q-16 -18 -28 -42v-290h-140v480h140v-50h10q11 19 29 35q15 13 38.5 24t57.5 11q39 0 74.5 -16t62.5 -45.5t42.5 -71t15.5 -92.5v-275zM235 570l-120 170h110l55 -75h10l55 75h110l-120 -170h-100z
" />
    <glyph glyph-name="Omacron" unicode="&#x14c;" horiz-adv-x="830" 
d="M185 350q0 -51 18.5 -94.5t50 -76t73 -51t88.5 -18.5t88.5 18.5t73 51t50 76t18.5 94.5t-18.5 94.5t-50 76t-73 51t-88.5 18.5t-88.5 -18.5t-73 -51t-50 -76t-18.5 -94.5zM800 350q0 -79 -30 -148t-82 -120.5t-122 -81.5t-151 -30t-151 30t-122 81.5t-82 120.5t-30 148
t30 148t82 120.5t122 81.5t151 30t151 -30t122 -81.5t82 -120.5t30 -148zM263 920h270v-110h-270v110z" />
    <glyph glyph-name="omacron" unicode="&#x14d;" horiz-adv-x="590" 
d="M295 105q24 0 47 10.5t40 29t27.5 43t10.5 52.5t-10.5 52.5t-27.5 43t-40 29t-47 10.5t-47 -10.5t-40 -29t-27.5 -43t-10.5 -52.5t10.5 -52.5t27.5 -43t40 -29t47 -10.5zM295 -20q-54 0 -102.5 21t-84.5 56.5t-57 82.5t-21 100q0 52 21 99.5t57 83t84.5 56.5t102.5 21
t102.5 -21t84.5 -56.5t57 -83t21 -99.5q0 -53 -21 -100t-57 -82.5t-84.5 -56.5t-102.5 -21zM148 691h270v-110h-270v110z" />
    <glyph glyph-name="Ohungarumlaut" unicode="&#x150;" horiz-adv-x="830" 
d="M185 350q0 -51 18.5 -94.5t50 -76t73 -51t88.5 -18.5t88.5 18.5t73 51t50 76t18.5 94.5t-18.5 94.5t-50 76t-73 51t-88.5 18.5t-88.5 -18.5t-73 -51t-50 -76t-18.5 -94.5zM800 350q0 -79 -30 -148t-82 -120.5t-122 -81.5t-151 -30t-151 30t-122 81.5t-82 120.5t-30 148
t30 148t82 120.5t122 81.5t151 30t151 -30t122 -81.5t82 -120.5t30 -148zM370 950h115l-100 -160h-75zM525 950h115l-100 -160h-75z" />
    <glyph glyph-name="ohungarumlaut" unicode="&#x151;" horiz-adv-x="590" 
d="M295 105q24 0 47 10.5t40 29t27.5 43t10.5 52.5t-10.5 52.5t-27.5 43t-40 29t-47 10.5t-47 -10.5t-40 -29t-27.5 -43t-10.5 -52.5t10.5 -52.5t27.5 -43t40 -29t47 -10.5zM295 -20q-54 0 -102.5 21t-84.5 56.5t-57 82.5t-21 100q0 52 21 99.5t57 83t84.5 56.5t102.5 21
t102.5 -21t84.5 -56.5t57 -83t21 -99.5q0 -53 -21 -100t-57 -82.5t-84.5 -56.5t-102.5 -21zM225 720h115l-100 -160h-75zM380 720h115l-100 -160h-75z" />
    <glyph glyph-name="OE" unicode="&#x152;" horiz-adv-x="1045" 
d="M1025 140v-140h-620q-83 0 -151.5 27.5t-118.5 74.5t-77.5 111t-27.5 137t27.5 137t77.5 111t118.5 74.5t151.5 27.5h620v-140h-385v-140h300v-140h-300v-140h385zM185 350q0 -43 17 -81.5t46.5 -67t69.5 -45t87 -16.5h80v420h-80q-47 0 -87 -16.5t-69.5 -45t-46.5 -67
t-17 -81.5z" />
    <glyph glyph-name="oe" unicode="&#x153;" horiz-adv-x="935" 
d="M285 -20q-53 0 -99 20t-81 55.5t-55 83t-20 101.5t20 101.5t55 83t81 55.5t99 20q47 0 81.5 -13.5t57.5 -29.5q27 -18 46 -42h10q18 24 44 42q22 16 54.5 29.5t76.5 13.5q52 0 98.5 -20t81.5 -55.5t55 -83t20 -101.5l-50 -50h-305q11 -38 36.5 -61.5t63.5 -23.5
q45 0 67.5 16t37.5 39l140 -20q-11 -30 -32 -59t-51.5 -51.5t-70.5 -36t-91 -13.5q-44 0 -76.5 13t-54.5 29q-26 18 -44 43h-10q-19 -25 -46 -43q-23 -16 -57.5 -29t-81.5 -13zM285 105q22 0 43 10t37 27.5t25.5 42.5t9.5 55t-11 55t-28 42.5t-37 27.5t-39 10t-39 -10
t-37 -27.5t-28 -42.5t-11 -55t9.5 -55t25.5 -42.5t36.5 -27.5t43.5 -10zM655 375q-38 0 -63.5 -23.5t-36.5 -61.5h200q-11 38 -36.5 61.5t-63.5 23.5z" />
    <glyph glyph-name="Racute" unicode="&#x154;" horiz-adv-x="715" 
d="M215 210v-210h-155v700h345q62 0 112 -18.5t85 -51.5t54 -78t19 -97q0 -31 -6 -56.5t-15.5 -46.5t-21.5 -37.5t-25 -28.5q-30 -29 -67 -46l130 -240h-165q-29 54 -57.5 105t-57.5 105h-175zM405 350q53 0 84 30t31 75t-31 75t-84 30h-190v-210h190zM450 840l-165 -60
l-35 80l155 80z" />
    <glyph glyph-name="racute" unicode="&#x155;" horiz-adv-x="345" 
d="M335 355h-45q-30 0 -49.5 -12t-30.5 -26q-13 -17 -20 -37v-280h-140v480h140v-50h10q11 17 29 30q15 11 38.5 20.5t57.5 9.5h10v-135zM305 630l-165 -60l-35 80l155 80z" />
    <glyph glyph-name="Rcommaaccent" unicode="&#x156;" horiz-adv-x="715" 
d="M215 210v-210h-155v700h345q62 0 112 -18.5t85 -51.5t54 -78t19 -97q0 -31 -6 -56.5t-15.5 -46.5t-21.5 -37.5t-25 -28.5q-30 -29 -67 -46l130 -240h-165q-29 54 -57.5 105t-57.5 105h-175zM405 350q53 0 84 30t31 75t-31 75t-84 30h-190v-210h190zM295 -140q0 13 6 25.5
t16 22.5t22.5 16t25.5 6t25.5 -6t22.5 -16t16 -22.5t6 -25.5q0 -10 -1.5 -17t-3.5 -12q-3 -6 -5 -11l-75 -110h-50l30 90q-10 5 -18 13q-7 7 -12 18.5t-5 28.5z" />
    <glyph glyph-name="rcommaaccent" unicode="&#x157;" horiz-adv-x="345" 
d="M335 355h-45q-30 0 -49.5 -12t-30.5 -26q-13 -17 -20 -37v-280h-140v480h140v-50h10q11 17 29 30q15 11 38.5 20.5t57.5 9.5h10v-135zM50 -155q0 13 6 25.5t16 22.5t22.5 16t25.5 6t25.5 -6t22.5 -16t16 -22.5t6 -25.5q0 -10 -1.5 -17t-3.5 -12q-3 -6 -5 -11l-75 -110
h-50l30 90q-10 5 -18 13q-7 7 -12 18.5t-5 28.5z" />
    <glyph glyph-name="Rcaron" unicode="&#x158;" horiz-adv-x="715" 
d="M215 210v-210h-155v700h345q62 0 112 -18.5t85 -51.5t54 -78t19 -97q0 -31 -6 -56.5t-15.5 -46.5t-21.5 -37.5t-25 -28.5q-30 -29 -67 -46l130 -240h-165q-29 54 -57.5 105t-57.5 105h-175zM405 350q53 0 84 30t31 75t-31 75t-84 30h-190v-210h190zM300 780l-120 170h110
l55 -75h10l55 75h110l-120 -170h-100z" />
    <glyph glyph-name="rcaron" unicode="&#x159;" horiz-adv-x="340" 
d="M335 355h-45q-30 0 -49.5 -12t-30.5 -26q-13 -17 -20 -37v-280h-140v480h140v-50h10q11 17 29 30q15 11 38.5 20.5t57.5 9.5h10v-135zM150 570l-120 170h110l55 -75h10l55 75h110l-120 -170h-100z" />
    <glyph glyph-name="Sacute" unicode="&#x15a;" horiz-adv-x="635" 
d="M455 200q0 32 -30 51t-75 34t-97.5 30t-97.5 40t-75 63.5t-30 101.5q0 39 19 77t54 67.5t85 47.5t112 18t111 -16.5t85 -46t59.5 -68.5t34.5 -84l-155 -20q-15 41 -47 68t-88 27q-53 0 -81.5 -25t-28.5 -55t30 -47.5t75 -31t97.5 -29t97.5 -41t75 -66t30 -105.5
q0 -41 -20 -80.5t-57.5 -70.5t-91.5 -50t-121 -19q-68 0 -120.5 17.5t-91.5 49t-64.5 74.5t-38.5 94l155 20q15 -49 53.5 -82t106.5 -33t99 26t31 64zM440 855l-165 -60l-35 80l155 80z" />
    <glyph glyph-name="sacute" unicode="&#x15b;" horiz-adv-x="495" 
d="M40 355q0 26 14 52t41 46.5t67 33.5t93 13q45 0 81.5 -13t64 -33.5t46.5 -46.5t28 -52l-130 -20q-8 15 -30 32.5t-60 17.5q-30 0 -47.5 -15t-17.5 -30q0 -16 21 -25.5t53 -18t68.5 -19t68.5 -29t53 -48t21 -75.5q0 -26 -14 -52t-42 -46.5t-70.5 -33.5t-98.5 -13
q-51 0 -90.5 13t-69 34.5t-49.5 49.5t-31 58l140 20q11 -23 34.5 -41.5t65.5 -18.5q38 0 56.5 15t18.5 30q0 16 -21 25.5t-53 18t-68.5 19t-68.5 29t-53 48t-21 75.5zM360 630l-165 -60l-35 80l155 80z" />
    <glyph glyph-name="Scedilla" unicode="&#x15e;" horiz-adv-x="635" 
d="M455 200q0 32 -30 51t-75 34t-97.5 30t-97.5 40t-75 63.5t-30 101.5q0 39 19 77t54 67.5t85 47.5t112 18t111 -16.5t85 -46t59.5 -68.5t34.5 -84l-155 -20q-15 41 -47 68t-88 27q-53 0 -81.5 -25t-28.5 -55t30 -47.5t75 -31t97.5 -29t97.5 -41t75 -66t30 -105.5
q0 -38 -17 -74.5t-49 -66t-77.5 -50t-103.5 -26.5l-13 -33q22 -6 40 -18q15 -11 27.5 -30.5t12.5 -51.5q0 -53 -35 -86.5t-95 -33.5q-23 0 -40.5 7t-29.5 15q-14 10 -25 23l45 55q5 -6 13 -10q6 -4 15.5 -7t21.5 -3q19 0 32 12.5t13 27.5t-13 27.5t-32 12.5h-50l38 91
q-60 4 -107 23.5t-82 50t-58.5 71.5t-35.5 89l155 20q15 -49 53.5 -82t106.5 -33t99 26t31 64z" />
    <glyph glyph-name="scedilla" unicode="&#x15f;" horiz-adv-x="495" 
d="M40 355q0 26 14 52t41 46.5t67 33.5t93 13q45 0 81.5 -13t64 -33.5t46.5 -46.5t28 -52l-130 -20q-8 15 -30 32.5t-60 17.5q-30 0 -47.5 -15t-17.5 -30q0 -16 21 -25.5t53 -18t68.5 -19t68.5 -29t53 -48t21 -75.5q0 -24 -12 -48.5t-36 -44.5t-60 -33.5t-84 -17.5l-13 -31
q22 -6 40 -18q15 -11 27.5 -30.5t12.5 -51.5q0 -53 -35 -86.5t-95 -33.5q-23 0 -40.5 7t-29.5 15q-14 10 -25 23l45 55q5 -6 13 -10q6 -4 15.5 -7t21.5 -3q19 0 32 12.5t13 27.5t-13 27.5t-32 12.5h-50l38 93q-41 5 -73 19t-56.5 34.5t-41.5 46t-27 52.5l140 20
q11 -23 34.5 -41.5t65.5 -18.5q38 0 56.5 15t18.5 30q0 16 -21 25.5t-53 18t-68.5 19t-68.5 29t-53 48t-21 75.5z" />
    <glyph glyph-name="Scaron" unicode="&#x160;" horiz-adv-x="635" 
d="M455 200q0 32 -30 51t-75 34t-97.5 30t-97.5 40t-75 63.5t-30 101.5q0 39 19 77t54 67.5t85 47.5t112 18t111 -16.5t85 -46t59.5 -68.5t34.5 -84l-155 -20q-15 41 -47 68t-88 27q-53 0 -81.5 -25t-28.5 -55t30 -47.5t75 -31t97.5 -29t97.5 -41t75 -66t30 -105.5
q0 -41 -20 -80.5t-57.5 -70.5t-91.5 -50t-121 -19q-68 0 -120.5 17.5t-91.5 49t-64.5 74.5t-38.5 94l155 20q15 -49 53.5 -82t106.5 -33t99 26t31 64zM285 790l-120 170h110l55 -75h10l55 75h110l-120 -170h-100z" />
    <glyph glyph-name="scaron" unicode="&#x161;" horiz-adv-x="495" 
d="M40 355q0 26 14 52t41 46.5t67 33.5t93 13q45 0 81.5 -13t64 -33.5t46.5 -46.5t28 -52l-130 -20q-8 15 -30 32.5t-60 17.5q-30 0 -47.5 -15t-17.5 -30q0 -16 21 -25.5t53 -18t68.5 -19t68.5 -29t53 -48t21 -75.5q0 -26 -14 -52t-42 -46.5t-70.5 -33.5t-98.5 -13
q-51 0 -90.5 13t-69 34.5t-49.5 49.5t-31 58l140 20q11 -23 34.5 -41.5t65.5 -18.5q38 0 56.5 15t18.5 30q0 16 -21 25.5t-53 18t-68.5 19t-68.5 29t-53 48t-21 75.5zM205 570l-120 170h110l55 -75h10l55 75h110l-120 -170h-100z" />
    <glyph glyph-name="Tcommaaccent" unicode="&#x162;" horiz-adv-x="615" 
d="M10 560v140h595v-140h-220v-560h-155v560h-220zM235 -155q0 13 6 25.5t16 22.5t22.5 16t25.5 6t25.5 -6t22.5 -16t16 -22.5t6 -25.5q0 -10 -1.5 -17t-3.5 -12q-3 -6 -5 -11l-75 -110h-50l30 90q-10 5 -18 13q-7 7 -12 18.5t-5 28.5z" />
    <glyph glyph-name="tcommaaccent" unicode="&#x163;" horiz-adv-x="375" 
d="M20 480h55v120h140v-120h100v-125h-100v-180q0 -34 17.5 -52t47.5 -18q11 0 21 2t18 5q9 4 16 8l20 -120q-13 -6 -29 -10q-14 -4 -32.5 -7t-38.5 -3q-38 0 -70.5 14.5t-57 40t-38.5 61.5t-14 79v180h-55v125zM145 -155q0 13 6 25.5t16 22.5t22.5 16t25.5 6t25.5 -6
t22.5 -16t16 -22.5t6 -25.5q0 -10 -1.5 -17t-3.5 -12q-3 -6 -5 -11l-75 -110h-50l30 90q-10 5 -18 13q-7 7 -12 18.5t-5 28.5z" />
    <glyph glyph-name="Tcaron" unicode="&#x164;" horiz-adv-x="615" 
d="M10 560v140h595v-140h-220v-560h-155v560h-220zM260 790l-120 170h110l55 -75h10l55 75h110l-120 -170h-100z" />
    <glyph glyph-name="tcaron" unicode="&#x165;" horiz-adv-x="425" 
d="M20 480h55v120h140v-120h100v-125h-100v-180q0 -34 17.5 -52t47.5 -18q11 0 21 2t18 5q9 4 16 8l20 -120q-13 -6 -29 -10q-14 -4 -32.5 -7t-38.5 -3q-38 0 -70.5 14.5t-57 40t-38.5 61.5t-14 79v180h-55v125zM325 630q0 13 6 25.5t16 22.5t22.5 16t25.5 6t25.5 -6
t22.5 -16t16 -22.5t6 -25.5q0 -10 -1.5 -17t-3.5 -12q-3 -6 -5 -11l-75 -110h-50l30 90q-10 5 -18 13q-7 7 -12 18.5t-5 28.5z" />
    <glyph glyph-name="Umacron" unicode="&#x16a;" horiz-adv-x="730" 
d="M365 110q68 0 109 41.5t41 113.5v435h155v-435q0 -66 -21.5 -120t-61.5 -93t-96.5 -60.5t-125.5 -21.5t-125.5 21.5t-96.5 60.5t-61.5 93t-21.5 120v435h155v-435q0 -72 41 -113.5t109 -41.5zM213 900h270v-110h-270v110z" />
    <glyph glyph-name="umacron" unicode="&#x16b;" 
d="M50 480h140v-275q0 -45 25.5 -72.5t59.5 -27.5q24 0 43.5 13t33.5 29q16 18 28 43v290h140v-480h-140v50h-10q-11 -20 -29 -35q-15 -14 -38.5 -24.5t-57.5 -10.5q-39 0 -74.5 16t-62.5 45.5t-42.5 71t-15.5 92.5v275zM133 686h270v-110h-270v110z" />
    <glyph glyph-name="Uring" unicode="&#x16e;" horiz-adv-x="730" 
d="M365 110q68 0 109 41.5t41 113.5v435h155v-435q0 -66 -21.5 -120t-61.5 -93t-96.5 -60.5t-125.5 -21.5t-125.5 21.5t-96.5 60.5t-61.5 93t-21.5 120v435h155v-435q0 -72 41 -113.5t109 -41.5zM255 880q0 22 8.5 42t23.5 35t35 24t43 9q22 0 42 -9t35 -24t24 -35t9 -42
q0 -23 -9 -43t-24 -35t-35 -23.5t-42 -8.5q-23 0 -43 8.5t-35 23.5t-23.5 35t-8.5 43zM320 880q0 -23 13 -36.5t33 -13.5q18 0 31 13.5t13 36.5t-13 36.5t-32 13.5t-32 -13.5t-13 -36.5z" />
    <glyph glyph-name="uring" unicode="&#x16f;" 
d="M50 480h140v-275q0 -45 25.5 -72.5t59.5 -27.5q24 0 43.5 13t33.5 29q16 18 28 43v290h140v-480h-140v50h-10q-11 -20 -29 -35q-15 -14 -38.5 -24.5t-57.5 -10.5q-39 0 -74.5 16t-62.5 45.5t-42.5 71t-15.5 92.5v275zM175 651q0 22 8.5 42t23.5 35t35 24t43 9q22 0 42 -9
t35 -24t24 -35t9 -42q0 -23 -9 -43t-24 -35t-35 -23.5t-42 -8.5q-23 0 -43 8.5t-35 23.5t-23.5 35t-8.5 43zM240 651q0 -23 13 -36.5t33 -13.5q18 0 31 13.5t13 36.5t-13 36.5t-32 13.5t-32 -13.5t-13 -36.5z" />
    <glyph glyph-name="Uhungarumlaut" unicode="&#x170;" horiz-adv-x="730" 
d="M365 110q68 0 109 41.5t41 113.5v435h155v-435q0 -66 -21.5 -120t-61.5 -93t-96.5 -60.5t-125.5 -21.5t-125.5 21.5t-96.5 60.5t-61.5 93t-21.5 120v435h155v-435q0 -72 41 -113.5t109 -41.5zM290 950h115l-100 -160h-75zM445 950h115l-100 -160h-75z" />
    <glyph glyph-name="uhungarumlaut" unicode="&#x171;" 
d="M50 480h140v-275q0 -45 25.5 -72.5t59.5 -27.5q24 0 43.5 13t33.5 29q16 18 28 43v290h140v-480h-140v50h-10q-11 -20 -29 -35q-15 -14 -38.5 -24.5t-57.5 -10.5q-39 0 -74.5 16t-62.5 45.5t-42.5 71t-15.5 92.5v275zM210 730h115l-100 -160h-75zM365 730h115l-100 -160
h-75z" />
    <glyph glyph-name="Uogonek" unicode="&#x172;" horiz-adv-x="730" 
d="M385 -250q-53 0 -81.5 27.5t-28.5 72.5q0 20 7.5 38t19 33t25.5 27.5t28 21.5q-67 1 -121.5 23.5t-93 61t-59.5 92t-21 118.5v435h155v-435q0 -72 41 -113.5t109 -41.5t109 41.5t41 113.5v435h155v-435q0 -56 -16 -103.5t-45 -85t-71.5 -62.5t-94.5 -36q-13 -9 -27.5 -22
t-27 -27.5t-20.5 -31t-8 -32.5q0 -40 40 -40q18 0 32 7q7 4 13 8l20 -70q-11 -6 -23 -10q-11 -4 -25.5 -7t-31.5 -3z" />
    <glyph glyph-name="uogonek" unicode="&#x173;" 
d="M430 -250q-53 0 -81.5 27.5t-28.5 72.5q0 35 20.5 63t46.5 48q30 23 68 39h-75v50h-10q-11 -20 -29 -35q-15 -14 -38.5 -24.5t-57.5 -10.5q-39 0 -74.5 16t-62.5 45.5t-42.5 71t-15.5 92.5v275h140v-275q0 -45 25.5 -72.5t59.5 -27.5q24 0 43.5 13t33.5 29q16 18 28 43
v290h140v-480q-32 -20 -58 -43q-22 -20 -39.5 -44t-17.5 -48q0 -40 40 -40q18 0 32 7q7 4 13 8l20 -70q-11 -6 -23 -10q-11 -4 -25.5 -7t-31.5 -3z" />
    <glyph glyph-name="Ydieresis" unicode="&#x178;" horiz-adv-x="675" 
d="M415 0h-155v230l-265 470h175l165 -300h5l165 300h175l-265 -470v-230zM170 860q0 30 20 50t50 20t50 -20t20 -50t-20 -50t-50 -20t-50 20t-20 50zM370 860q0 30 20 50t50 20t50 -20t20 -50t-20 -50t-50 -20t-50 20t-20 50z" />
    <glyph glyph-name="Zacute" unicode="&#x179;" horiz-adv-x="645" 
d="M30 140l370 410v10h-360v140h565v-140l-370 -410v-10h380v-140h-585v140zM445 855l-165 -60l-35 80l155 80z" />
    <glyph glyph-name="zacute" unicode="&#x17a;" horiz-adv-x="485" 
d="M450 355l-230 -220v-10h240v-125h-435v125l230 220v10h-220v125h415v-125zM355 620l-165 -60l-35 80l155 80z" />
    <glyph glyph-name="Zdotaccent" unicode="&#x17b;" horiz-adv-x="645" 
d="M30 140l370 410v10h-360v140h565v-140l-370 -410v-10h380v-140h-585v140zM250 870q0 34 23 57t57 23t57 -23t23 -57t-23 -57t-57 -23t-57 23t-23 57z" />
    <glyph glyph-name="zdotaccent" unicode="&#x17c;" horiz-adv-x="485" 
d="M450 355l-230 -220v-10h240v-125h-435v125l230 220v10h-220v125h415v-125zM170 645q0 34 23 57t57 23t57 -23t23 -57t-23 -57t-57 -23t-57 23t-23 57z" />
    <glyph glyph-name="Zcaron" unicode="&#x17d;" horiz-adv-x="645" 
d="M30 140l370 410v10h-360v140h565v-140l-370 -410v-10h380v-140h-585v140zM285 790l-120 170h110l55 -75h10l55 75h110l-120 -170h-100z" />
    <glyph glyph-name="zcaron" unicode="&#x17e;" horiz-adv-x="485" 
d="M450 355l-230 -220v-10h240v-125h-435v125l230 220v10h-220v125h415v-125zM195 570l-120 170h110l55 -75h10l55 75h110l-120 -170h-100z" />
    <glyph glyph-name="florin" unicode="&#x192;" horiz-adv-x="340" 
d="M25 480h55v45q0 43 14 79t38.5 61.5t57 40t70.5 14.5q20 0 38.5 -3t32.5 -7q16 -4 29 -10l-20 -120q-7 3 -16 7q-8 3 -18 5.5t-21 2.5q-30 0 -47.5 -18t-17.5 -52v-45h100v-125h-100v-380q0 -43 -14 -79t-38.5 -61.5t-57.5 -40t-70 -14.5q-21 0 -39 3t-32 7q-16 4 -29 10
l20 120q7 -4 16 -8q17 -7 39 -7q30 0 47.5 18t17.5 52v380h-55v125z" />
    <glyph glyph-name="Scommaaccent" unicode="&#x218;" horiz-adv-x="635" 
d="M455 200q0 32 -30 51t-75 34t-97.5 30t-97.5 40t-75 63.5t-30 101.5q0 39 19 77t54 67.5t85 47.5t112 18t111 -16.5t85 -46t59.5 -68.5t34.5 -84l-155 -20q-15 41 -47 68t-88 27q-53 0 -81.5 -25t-28.5 -55t30 -47.5t75 -31t97.5 -29t97.5 -41t75 -66t30 -105.5
q0 -41 -20 -80.5t-57.5 -70.5t-91.5 -50t-121 -19q-68 0 -120.5 17.5t-91.5 49t-64.5 74.5t-38.5 94l155 20q15 -49 53.5 -82t106.5 -33t99 26t31 64zM250 -164q0 13 6 25.5t16 22.5t22.5 16t25.5 6t25.5 -6t22.5 -16t16 -22.5t6 -25.5q0 -10 -1.5 -17t-3.5 -12
q-3 -6 -5 -11l-75 -110h-50l30 90q-10 5 -18 13q-7 7 -12 18.5t-5 28.5z" />
    <glyph glyph-name="scommaaccent" unicode="&#x219;" horiz-adv-x="495" 
d="M40 355q0 26 14 52t41 46.5t67 33.5t93 13q45 0 81.5 -13t64 -33.5t46.5 -46.5t28 -52l-130 -20q-8 15 -30 32.5t-60 17.5q-30 0 -47.5 -15t-17.5 -30q0 -16 21 -25.5t53 -18t68.5 -19t68.5 -29t53 -48t21 -75.5q0 -26 -14 -52t-42 -46.5t-70.5 -33.5t-98.5 -13
q-51 0 -90.5 13t-69 34.5t-49.5 49.5t-31 58l140 20q11 -23 34.5 -41.5t65.5 -18.5q38 0 56.5 15t18.5 30q0 16 -21 25.5t-53 18t-68.5 19t-68.5 29t-53 48t-21 75.5zM180 -155q0 13 6 25.5t16 22.5t22.5 16t25.5 6t25.5 -6t22.5 -16t16 -22.5t6 -25.5q0 -10 -1.5 -17
t-3.5 -12q-3 -6 -5 -11l-75 -110h-50l30 90q-10 5 -18 13q-7 7 -12 18.5t-5 28.5z" />
    <glyph glyph-name="afii57929" unicode="&#x2bc;" horiz-adv-x="210" 
d="M30 630q0 30 22.5 52.5t52.5 22.5t52.5 -22.5t22.5 -52.5q0 -10 -2.5 -18t-5.5 -14q-4 -7 -7 -13l-80 -105h-50l35 85q-11 6 -20 16q-8 8 -14 20t-6 29z" />
    <glyph glyph-name="circumflex" unicode="&#x2c6;" horiz-adv-x="400" 
d="M250 700l120 -170h-110l-55 75h-10l-55 -75h-110l120 170h100z" />
    <glyph glyph-name="caron" unicode="&#x2c7;" horiz-adv-x="400" 
d="M150 530l-120 170h110l55 -75h10l55 75h110l-120 -170h-100z" />
    <glyph glyph-name="breve" unicode="&#x2d8;" horiz-adv-x="370" 
d="M185 545q-34 0 -62.5 11.5t-49 31.5t-32 47.5t-11.5 59.5h100q4 -23 18.5 -36.5t36.5 -13.5t36.5 13.5t18.5 36.5h100q0 -32 -11.5 -59.5t-32 -47.5t-49 -31.5t-62.5 -11.5z" />
    <glyph glyph-name="dotaccent" unicode="&#x2d9;" horiz-adv-x="220" 
d="M30 625q0 34 23 57t57 23t57 -23t23 -57t-23 -57t-57 -23t-57 23t-23 57z" />
    <glyph glyph-name="ring" unicode="&#x2da;" horiz-adv-x="280" 
d="M30 590q0 22 8.5 42t23.5 35t35 24t43 9q22 0 42 -9t35 -24t24 -35t9 -42q0 -23 -9 -43t-24 -35t-35 -23.5t-42 -8.5q-23 0 -43 8.5t-35 23.5t-23.5 35t-8.5 43zM95 590q0 -23 13 -36.5t33 -13.5q18 0 31 13.5t13 36.5t-13 36.5t-32 13.5t-32 -13.5t-13 -36.5z" />
    <glyph glyph-name="ogonek" unicode="&#x2db;" horiz-adv-x="260" 
d="M140 -250q-53 0 -81.5 27.5t-28.5 72.5q0 35 20.5 63t46.5 48q30 23 68 39h65q-32 -20 -58 -43q-22 -20 -39.5 -44t-17.5 -48q0 -40 40 -40q18 0 32 7q7 4 13 8l20 -70q-11 -6 -23 -10q-11 -4 -25.5 -7t-31.5 -3z" />
    <glyph glyph-name="tilde" unicode="&#x2dc;" horiz-adv-x="360" 
d="M140 600q-11 0 -18 -7.5t-7 -22.5v-10h-85v35q0 57 21.5 81t63.5 24q25 0 38.5 -8t23.5 -17t19 -17t24 -8q11 0 18 7.5t7 22.5v10h85v-35q0 -57 -21.5 -81t-63.5 -24q-25 0 -39 8t-23.5 17t-18.5 17t-24 8z" />
    <glyph glyph-name="hungarumlaut" unicode="&#x2dd;" horiz-adv-x="390" 
d="M90 700h115l-100 -160h-75zM245 700h115l-100 -160h-75z" />
    <glyph glyph-name="afii10023" unicode="&#x401;" horiz-adv-x="635" 
d="M615 140v-140h-555v700h555v-140h-400v-140h315v-140h-315v-140h400zM165 864q0 30 20 50t50 20t50 -20t20 -50t-20 -50t-50 -20t-50 20t-20 50zM365 864q0 30 20 50t50 20t50 -20t20 -50t-20 -50t-50 -20t-50 20t-20 50z" />
    <glyph glyph-name="afii10051" unicode="&#x402;" horiz-adv-x="755" 
d="M500 30q26 0 43 17t17 43v90q0 24 -9.5 46t-26.5 38.5t-40 26t-49 9.5h-130v-300h-155v560h-170v140h520v-140h-195v-120h130q66 0 118 -19t88 -53t55 -82t19 -106v-90q0 -94 -53 -147t-147 -53q-17 0 -32 2t-27 5q-14 4 -26 8l15 135q8 -3 18 -5q18 -5 37 -5z" />
    <glyph glyph-name="afii10052" unicode="&#x403;" horiz-adv-x="565" 
d="M435 840l-165 -60l-35 80l155 80zM215 560v-560h-155v700h505v-140h-350z" />
    <glyph glyph-name="afii10053" unicode="&#x404;" horiz-adv-x="780" 
d="M410 -30q-77 0 -146 30.5t-121 82.5t-82.5 121t-30.5 146t30.5 146t82.5 121t121 82.5t146 30.5q67 0 122.5 -20t97 -52.5t69.5 -75t41 -87.5l-155 -20q-11 22 -27.5 43t-38.5 37t-50 25.5t-64 9.5q-38 0 -71.5 -14t-61.5 -37.5t-48 -54t-29 -64.5h260v-140h-260
q9 -34 28.5 -64.5t46.5 -54t61.5 -37.5t73.5 -14t70.5 10.5t56 28.5t42.5 41.5t31 49.5l155 -20q-13 -47 -42.5 -92t-74 -80t-103.5 -56.5t-130 -21.5z" />
    <glyph glyph-name="afii10054" unicode="&#x405;" horiz-adv-x="635" 
d="M455 200q0 32 -30 51t-75 34t-97.5 30t-97.5 40t-75 63.5t-30 101.5q0 39 19 77t54 67.5t85 47.5t112 18t111 -16.5t85 -46t59.5 -68.5t34.5 -84l-155 -20q-15 41 -47 68t-88 27q-53 0 -81.5 -25t-28.5 -55t30 -47.5t75 -31t97.5 -29t97.5 -41t75 -66t30 -105.5
q0 -41 -20 -80.5t-57.5 -70.5t-91.5 -50t-121 -19q-68 0 -120.5 17.5t-91.5 49t-64.5 74.5t-38.5 94l155 20q15 -49 53.5 -82t106.5 -33t99 26t31 64z" />
    <glyph glyph-name="afii10055" unicode="&#x406;" horiz-adv-x="275" 
d="M215 0h-155v700h155v-700z" />
    <glyph glyph-name="afii10056" unicode="&#x407;" horiz-adv-x="300" 
d="M230 0h-155v700h155v-700zM-19 862q0 30 20 50t50 20t50 -20t20 -50t-20 -50t-50 -20t-50 20t-20 50zM181 862q0 30 20 50t50 20t50 -20t20 -50t-20 -50t-50 -20t-50 20t-20 50z" />
    <glyph glyph-name="afii10057" unicode="&#x408;" horiz-adv-x="590" 
d="M530 235q0 -60 -19 -109t-54.5 -83.5t-86.5 -53.5t-114 -19q-53 0 -96.5 16.5t-76.5 44t-54.5 64t-28.5 75.5l150 35q11 -42 39.5 -68.5t70.5 -26.5q49 0 82 34t33 91v465h155v-465z" />
    <glyph glyph-name="afii10058" unicode="&#x409;" horiz-adv-x="1085" 
d="M1055 245q0 -51 -20 -95.5t-57 -77.5t-89.5 -52.5t-118.5 -19.5h-310v560h-170l-135 -560h-155l170 700h445v-210h161q63 0 114.5 -19.5t88 -52.5t56.5 -77.5t20 -95.5zM770 140q60 0 92.5 30t32.5 75t-32.5 75t-92.5 30h-155v-210h155z" />
    <glyph glyph-name="afii10059" unicode="&#x40a;" horiz-adv-x="1130" 
d="M1100 230q0 -49 -18 -91t-52.5 -73t-83.5 -48.5t-111 -17.5h-340v320h-280v-320h-155v700h155v-240h280v240h155v-240h190q60 0 108 -17.5t82 -48.5t52 -73t18 -91zM840 140q53 0 79 26t26 64t-26 64t-79 26h-190v-180h190z" />
    <glyph glyph-name="afii10060" unicode="&#x40b;" horiz-adv-x="755" 
d="M560 0v180q0 24 -9.5 46t-26.5 38.5t-40 26t-49 9.5h-130v-300h-155v560h-170v140h520v-140h-195v-120h130q66 0 118 -19t88 -53t55 -82t19 -106v-180h-155z" />
    <glyph glyph-name="afii10061" unicode="&#x40c;" horiz-adv-x="710" 
d="M485 835l-165 -60l-35 80l155 80zM530 355q24 -7 42 -22q16 -13 29.5 -35.5t13.5 -57.5v-65q0 -45 45 -45h30v-140h-35q-102 0 -148.5 46t-46.5 144v45q0 60 -55 60h-190v-285h-155v700h155v-275h180q55 0 55 60v35q0 98 46.5 144t148.5 46h35v-140h-30q-45 0 -45 -45
v-55q0 -32 -12 -52t-26 -32q-17 -14 -37 -21v-10z" />
    <glyph glyph-name="afii10062" unicode="&#x40e;" horiz-adv-x="690" 
d="M347 782q-34 0 -62.5 11.5t-49 32t-32 49t-11.5 62.5h100q0 -23 16 -39t39 -16t39 16t16 39h100q0 -34 -11.5 -62.5t-32 -49t-49 -32t-62.5 -11.5zM490 165q-34 -90 -87.5 -137.5t-142.5 -47.5h-80v140h80q30 0 47 15t28 45l25 70h-185l-175 450h160l120 -310h135
l115 310h160z" />
    <glyph glyph-name="afii10145" unicode="&#x40f;" horiz-adv-x="725" 
d="M285 0h-225v700h155v-560h295v560h155v-700h-225v-130h-155v130z" />
    <glyph glyph-name="afii10017" unicode="&#x410;" horiz-adv-x="715" 
d="M180 700h355l170 -700h-160l-35 145h-305l-35 -145h-160zM240 285h235l-65 275h-105z" />
    <glyph glyph-name="afii10018" unicode="&#x411;" horiz-adv-x="705" 
d="M685 230q0 -49 -18.5 -91t-53 -73t-84.5 -48.5t-113 -17.5h-356v700h555v-140h-400v-100h201q63 0 113 -17.5t84.5 -48.5t53 -73t18.5 -91zM415 140q53 0 81.5 26t28.5 64t-28.5 64t-81.5 26h-200v-180h200z" />
    <glyph glyph-name="afii10019" unicode="&#x412;" horiz-adv-x="710" 
d="M385 700q51 0 92.5 -15.5t71 -41t45.5 -57.5t16 -66q0 -36 -13.5 -59t-29.5 -37q-18 -16 -42 -24v-10q46 -9 82 -32q15 -10 30 -23.5t27 -31.5t19 -41t7 -52q0 -43 -17.5 -81.5t-50 -67t-80 -45t-107.5 -16.5h-375v700h325zM435 140q45 0 70 23t25 57t-25 57t-70 23h-220
v-160h220zM215 560v-120h170q30 0 47.5 17t17.5 43t-17.5 43t-47.5 17h-170z" />
    <glyph glyph-name="afii10020" unicode="&#x413;" horiz-adv-x="565" 
d="M215 560v-560h-155v700h505v-140h-350z" />
    <glyph glyph-name="afii10021" unicode="&#x414;" horiz-adv-x="775" 
d="M155 0v-115h-155v255h75l135 560h355l135 -560h75v-255h-155v115h-465zM335 560l-100 -420h305l-100 420h-105z" />
    <glyph glyph-name="afii10022" unicode="&#x415;" horiz-adv-x="635" 
d="M615 140v-140h-555v700h555v-140h-400v-140h315v-140h-315v-140h400z" />
    <glyph glyph-name="afii10024" unicode="&#x416;" horiz-adv-x="1065" 
d="M885 355q24 -7 42 -22q16 -13 29.5 -35.5t13.5 -57.5v-65q0 -45 45 -45h30v-140h-35q-102 0 -148.5 46t-46.5 144v45q0 60 -55 60h-150v-285h-155v285h-150q-55 0 -55 -60v-45q0 -98 -46.5 -144t-148.5 -46h-35v140h30q45 0 45 45v65q0 35 13 57.5t29 35.5q18 15 43 22
v10q-21 7 -38 21q-14 12 -25.5 32t-11.5 52v55q0 45 -45 45h-30v140h35q102 0 148.5 -46t46.5 -144v-35q0 -60 55 -60h140v275h155v-275h140q55 0 55 60v35q0 98 46.5 144t148.5 46h35v-140h-30q-45 0 -45 -45v-55q0 -32 -12 -52t-26 -32q-17 -14 -37 -21v-10z" />
    <glyph glyph-name="afii10025" unicode="&#x417;" horiz-adv-x="645" 
d="M165 225q15 -49 53.5 -82t106.5 -33t99 26t31 64t-31 64t-99 26h-70v140h70q53 0 81.5 25t28.5 55t-28.5 55t-81.5 25q-56 0 -88 -27t-47 -68l-155 20q11 45 34.5 84t59.5 68.5t85 46t111 16.5t112 -18t85 -47.5t54 -67.5t19 -77q0 -44 -18.5 -71.5t-41.5 -44.5
q-26 -19 -60 -29v-10q39 -11 70 -34q13 -10 25.5 -23t22.5 -30.5t16 -39t6 -48.5q0 -41 -20 -80.5t-57.5 -70.5t-91.5 -50t-121 -19q-68 0 -120.5 17.5t-91.5 49t-64.5 74.5t-38.5 94z" />
    <glyph glyph-name="afii10026" unicode="&#x418;" horiz-adv-x="735" 
d="M230 0h-170v700h155v-450h10l280 450h170v-700h-155v450h-10z" />
    <glyph glyph-name="afii10027" unicode="&#x419;" horiz-adv-x="735" 
d="M370 782q-34 0 -62.5 11.5t-49 32t-32 49t-11.5 62.5h100q0 -23 16 -39t39 -16t39 16t16 39h100q0 -34 -11.5 -62.5t-32 -49t-49 -32t-62.5 -11.5zM230 0h-170v700h155v-450h10l280 450h170v-700h-155v450h-10z" />
    <glyph glyph-name="afii10028" unicode="&#x41a;" horiz-adv-x="710" 
d="M530 355q24 -7 42 -22q16 -13 29.5 -35.5t13.5 -57.5v-65q0 -45 45 -45h30v-140h-35q-102 0 -148.5 46t-46.5 144v45q0 60 -55 60h-190v-285h-155v700h155v-275h180q55 0 55 60v35q0 98 46.5 144t148.5 46h35v-140h-30q-45 0 -45 -45v-55q0 -32 -12 -52t-26 -32
q-17 -14 -37 -21v-10z" />
    <glyph glyph-name="afii10029" unicode="&#x41b;" horiz-adv-x="725" 
d="M180 700h365l170 -700h-160l-135 560h-115l-135 -560h-160z" />
    <glyph glyph-name="afii10030" unicode="&#x41c;" horiz-adv-x="880" 
d="M225 485h-10v-485h-155v700h170l210 -260l210 260h170v-700h-155v485h-10l-215 -265z" />
    <glyph glyph-name="afii10031" unicode="&#x41d;" horiz-adv-x="725" 
d="M60 700h155v-285h295v285h155v-700h-155v275h-295v-275h-155v700z" />
    <glyph glyph-name="afii10032" unicode="&#x41e;" horiz-adv-x="830" 
d="M185 350q0 -51 18.5 -94.5t50 -76t73 -51t88.5 -18.5t88.5 18.5t73 51t50 76t18.5 94.5t-18.5 94.5t-50 76t-73 51t-88.5 18.5t-88.5 -18.5t-73 -51t-50 -76t-18.5 -94.5zM800 350q0 -79 -30 -148t-82 -120.5t-122 -81.5t-151 -30t-151 30t-122 81.5t-82 120.5t-30 148
t30 148t82 120.5t122 81.5t151 30t151 -30t122 -81.5t82 -120.5t30 -148z" />
    <glyph glyph-name="afii10033" unicode="&#x41f;" horiz-adv-x="725" 
d="M60 700h605v-700h-155v560h-295v-560h-155v700z" />
    <glyph glyph-name="afii10034" unicode="&#x420;" horiz-adv-x="715" 
d="M530 440q0 24 -10 46t-27.5 38.5t-42.5 26t-55 9.5h-180v-240h180q30 0 55 9.5t42.5 26t27.5 38.5t10 46zM685 440q0 -54 -20.5 -101.5t-58.5 -83t-91.5 -55.5t-119.5 -20h-180v-180h-155v700h335q66 0 119.5 -20t91.5 -55.5t58.5 -83t20.5 -101.5z" />
    <glyph glyph-name="afii10035" unicode="&#x421;" horiz-adv-x="780" 
d="M410 -30q-77 0 -146 30.5t-121 82.5t-82.5 121t-30.5 146t30.5 146t82.5 121t121 82.5t146 30.5q67 0 122.5 -20t97 -52.5t69.5 -75t41 -87.5l-155 -20q-11 22 -27.5 43t-38.5 37t-50 25.5t-64 9.5q-43 0 -83 -18.5t-70.5 -51t-48.5 -76t-18 -94.5t18 -94.5t48.5 -76
t70.5 -51t83 -18.5q39 0 70.5 10.5t56 28.5t42.5 41.5t31 49.5l155 -20q-13 -47 -42.5 -92t-74 -80t-103.5 -56.5t-130 -21.5z" />
    <glyph glyph-name="afii10036" unicode="&#x422;" horiz-adv-x="615" 
d="M10 560v140h595v-140h-220v-560h-155v560h-220z" />
    <glyph glyph-name="afii10037" unicode="&#x423;" horiz-adv-x="690" 
d="M490 165q-34 -90 -87.5 -137.5t-142.5 -47.5h-80v140h80q30 0 47 15t28 45l25 70h-185l-175 450h160l120 -310h135l115 310h160z" />
    <glyph glyph-name="afii10038" unicode="&#x424;" horiz-adv-x="935" 
d="M390 30q-81 2 -147 28.5t-113.5 70t-73.5 100.5t-26 121t26 121t73.5 100.5t113.5 70t147 28.5v70h155v-70q81 -2 147 -28.5t113.5 -70t73.5 -100.5t26 -121t-26 -121t-73.5 -100.5t-113.5 -70t-147 -28.5v-70h-155v70zM390 531q-47 -2 -85 -17.5t-64.5 -40t-41 -56
t-14.5 -67.5t14.5 -67.5t41 -56t64.5 -39.5t85 -17v361zM545 170q47 2 85 17t64.5 39.5t41 56t14.5 67.5t-14.5 67.5t-41 56t-64.5 40t-85 17.5v-361z" />
    <glyph glyph-name="afii10039" unicode="&#x425;" horiz-adv-x="670" 
d="M175 0h-180l230 360l-200 340h175l130 -230h10l130 230h175l-200 -340l230 -360h-180l-155 250h-10z" />
    <glyph glyph-name="afii10040" unicode="&#x426;" horiz-adv-x="735" 
d="M60 0v700h155v-560h275v560h155v-560h80v-255h-155v115h-510z" />
    <glyph glyph-name="afii10041" unicode="&#x427;" horiz-adv-x="695" 
d="M205 700v-240q0 -24 9.5 -46t26.5 -38.5t40 -26t49 -9.5h150v360h155v-700h-155v200h-150q-64 0 -115.5 19.5t-88 54t-56.5 82.5t-20 104v240h155z" />
    <glyph glyph-name="afii10042" unicode="&#x428;" horiz-adv-x="1015" 
d="M955 0h-895v700h155v-560h215v560h155v-560h215v560h155v-700z" />
    <glyph glyph-name="afii10043" unicode="&#x429;" horiz-adv-x="1045" 
d="M955 140h80v-255h-155v115h-820v700h155v-560h215v560h155v-560h215v560h155v-560z" />
    <glyph glyph-name="afii10044" unicode="&#x42a;" horiz-adv-x="750" 
d="M720 245q0 -51 -20 -95.5t-57 -77.5t-89.5 -52.5t-118.5 -19.5h-295v560h-140v140h295v-210h146q63 0 114.5 -19.5t88 -52.5t56.5 -77.5t20 -95.5zM435 140q60 0 92.5 30t32.5 75t-32.5 75t-92.5 30h-140v-210h140z" />
    <glyph glyph-name="afii10045" unicode="&#x42b;" horiz-adv-x="925" 
d="M865 0h-155v700h155v-700zM640 245q0 -51 -20 -95.5t-57 -77.5t-89.5 -52.5t-118.5 -19.5h-295v700h155v-210h146q63 0 114.5 -19.5t88 -52.5t56.5 -77.5t20 -95.5zM355 140q60 0 92.5 30t32.5 75t-32.5 75t-92.5 30h-140v-210h140z" />
    <glyph glyph-name="afii10046" unicode="&#x42c;" horiz-adv-x="700" 
d="M670 245q0 -51 -20 -95.5t-57 -77.5t-89.5 -52.5t-118.5 -19.5h-325v700h155v-210h176q63 0 114.5 -19.5t88 -52.5t56.5 -77.5t20 -95.5zM385 140q60 0 92.5 30t32.5 75t-32.5 75t-92.5 30h-170v-210h170z" />
    <glyph glyph-name="afii10047" unicode="&#x42d;" horiz-adv-x="780" 
d="M370 -30q-71 0 -130 21.5t-103.5 56.5t-74 80t-42.5 92l155 20q13 -26 31 -49.5t42.5 -41.5t56 -28.5t70.5 -10.5t73.5 14t61.5 37.5t46.5 54t28.5 64.5h-260v140h260q-9 34 -29 64.5t-48 54t-62 37.5t-71 14q-36 0 -64 -9.5t-50 -25.5t-38.5 -37t-27.5 -43l-155 20
q13 45 41 87.5t69.5 75t96.5 52.5t123 20q77 0 146 -30.5t121 -82.5t82.5 -121t30.5 -146t-30.5 -146t-82.5 -121t-121 -82.5t-146 -30.5z" />
    <glyph glyph-name="afii10048" unicode="&#x42e;" horiz-adv-x="1035" 
d="M215 0h-155v700h155v-285h95q11 66 42 123t76.5 100t103 67.5t123.5 24.5q69 0 132.5 -29t112 -80t77 -120.5t28.5 -150.5t-28.5 -150.5t-77 -120.5t-112 -80t-132.5 -29q-66 0 -123.5 24.5t-103 66t-76.5 97t-42 117.5h-95v-275zM850 350q0 54 -16.5 98.5t-43.5 76
t-62.5 48.5t-72.5 17q-38 0 -73 -17t-62 -48.5t-43.5 -76t-16.5 -98.5t16.5 -98.5t43.5 -76t62 -48.5t73 -17q37 0 72.5 17t62.5 48.5t43.5 76t16.5 98.5z" />
    <glyph glyph-name="afii10049" unicode="&#x42f;" horiz-adv-x="704" 
d="M320 190l-120 -190h-170l140 225q-38 18 -68 48q-26 26 -46.5 67.5t-20.5 104.5q0 54 20 101t57 81t89.5 53.5t118.5 19.5h324v-700h-154v190h-170zM490 330v230h-170q-60 0 -95 -33t-35 -82t35 -82t95 -33h170z" />
    <glyph glyph-name="afii10065" unicode="&#x430;" horiz-adv-x="585" 
d="M30 240q0 56 19 104t50.5 82.5t72 54t83.5 19.5q35 0 60 -11t41 -24q18 -16 29 -35h10v50h140v-480h-140v50h-10q-11 -20 -29 -35q-16 -14 -41 -24.5t-60 -10.5q-43 0 -83.5 19.5t-72 54t-50.5 82.5t-19 104zM395 290q-12 24 -29 42q-14 16 -34.5 29.5t-46.5 13.5
q-49 0 -82 -35.5t-33 -99.5t33 -99.5t82 -35.5q26 0 46.5 13t34.5 29q17 18 29 43v100z" />
    <glyph glyph-name="afii10066" unicode="&#x431;" horiz-adv-x="575" 
d="M295 105q22 0 42 8.5t35 23.5t24 35t9 43t-9 43t-24 35t-35 23.5t-42 8.5q-23 0 -43 -9t-35 -24t-23.5 -35t-8.5 -42q0 -23 8.5 -43t23.5 -35t35 -23.5t43 -8.5zM295 -20q-53 0 -98.5 19t-79.5 51.5t-53 75t-19 89.5v225q0 87 47.5 138.5t122.5 66.5l125 25q30 6 30 35
v15h125v-60q0 -85 -125 -110l-125 -25q-26 -5 -43 -26t-17 -59v-40q13 14 31 25q16 9 39 17t55 8q47 0 89.5 -19t75 -51.5t51.5 -75t19 -89.5t-19.5 -89.5t-53 -75t-79.5 -51.5t-98 -19z" />
    <glyph glyph-name="afii10067" unicode="&#x432;" horiz-adv-x="525" 
d="M280 480q43 0 76.5 -11t56.5 -29t35 -40.5t12 -44.5q0 -25 -10.5 -41t-22.5 -26q-14 -11 -32 -18v-10q30 -7 55 -23q20 -14 37.5 -38.5t17.5 -63.5q0 -24 -13 -48.5t-37.5 -43.5t-61 -31t-83.5 -12h-260v480h230zM315 110q19 0 32 13t13 32t-13 32t-32 13h-125v-90h125z
M190 370v-70h90q15 0 25 10t10 25t-10 25t-25 10h-90z" />
    <glyph glyph-name="afii10068" unicode="&#x433;" horiz-adv-x="430" 
d="M50 480h380v-125h-240v-355h-140v480z" />
    <glyph glyph-name="afii10069" unicode="&#x434;" horiz-adv-x="585" 
d="M575 125v-225h-140v100h-285v-100h-140v225h60l75 355h295l75 -355h60zM375 125l-50 230h-65l-50 -230h165z" />
    <glyph glyph-name="afii10070" unicode="&#x435;" 
d="M285 500q54 0 101.5 -20t83 -55.5t55.5 -83t20 -101.5l-50 -50h-315q11 -38 37 -61.5t68 -23.5q24 0 41.5 4.5t30.5 12t21.5 17.5t16.5 21l140 -20q-11 -30 -32 -59t-52 -51.5t-72.5 -36t-93.5 -13.5q-51 0 -97 21t-81 56.5t-56 82.5t-21 100q0 52 21 99.5t56 83t81 56.5
t97 21zM285 375q-42 0 -68 -23.5t-37 -61.5h210q-11 38 -37 61.5t-68 23.5z" />
    <glyph glyph-name="afii10072" unicode="&#x436;" horiz-adv-x="780" 
d="M645 240q17 -5 30 -14q11 -8 20.5 -20t9.5 -31v-25q0 -15 10 -25t25 -10h20v-125h-30q-86 0 -123 31t-37 84v35q0 40 -40 40h-70v-180h-140v180h-70q-40 0 -40 -40v-35q0 -53 -37 -84t-123 -31h-30v125h20q15 0 25 10t10 25v25q0 19 9.5 31t20.5 20q13 9 30 14v10
q-14 3 -25 11q-10 7 -17.5 18.5t-7.5 30.5v20q0 15 -10 25t-25 10h-20v125h30q86 0 123 -31.5t37 -83.5v-30q0 -40 40 -40h60v175h140v-175h60q40 0 40 40v30q0 52 37 83.5t123 31.5h30v-125h-20q-15 0 -25 -10t-10 -25v-20q0 -19 -8 -30.5t-17 -18.5q-11 -8 -25 -11v-10z
" />
    <glyph glyph-name="afii10073" unicode="&#x437;" horiz-adv-x="505" 
d="M250 95q38 0 56.5 15t18.5 30t-18.5 30t-56.5 15h-55v110h50q30 0 47.5 15t17.5 30t-17.5 30t-47.5 15q-38 0 -60 -17.5t-30 -32.5l-130 20q9 26 28 52t46.5 46.5t64 33.5t81.5 13q52 0 92.5 -13t67.5 -33.5t41 -46.5t14 -52q0 -30 -13.5 -49.5t-29.5 -30.5
q-18 -13 -42 -20v-10q28 -8 50 -23q19 -14 34.5 -36.5t15.5 -60.5q0 -26 -14 -52t-42 -46.5t-70.5 -33.5t-98.5 -13q-51 0 -90.5 13t-69 34.5t-49.5 49.5t-31 58l140 20q11 -23 34.5 -41.5t65.5 -18.5z" />
    <glyph glyph-name="afii10074" unicode="&#x438;" horiz-adv-x="565" 
d="M50 480h140v-255h10l175 255h140v-480h-140v255h-10l-175 -255h-140v480z" />
    <glyph glyph-name="afii10075" unicode="&#x439;" horiz-adv-x="565" 
d="M284 555q-30 0 -55.5 10.5t-44.5 29.5t-29.5 44.5t-10.5 55.5h90q0 -23 13.5 -36.5t36.5 -13.5t36.5 13.5t13.5 36.5h90q0 -30 -10.5 -55.5t-29.5 -44.5t-44.5 -29.5t-55.5 -10.5zM50 480h140v-255h10l175 255h140v-480h-140v255h-10l-175 -255h-140v480z" />
    <glyph glyph-name="afii10076" unicode="&#x43a;" horiz-adv-x="535" 
d="M400 240q17 -5 30 -14q11 -8 20.5 -20t9.5 -31v-25q0 -15 10 -25t25 -10h20v-125h-30q-86 0 -123 31t-37 84v35q0 40 -40 40h-95v-180h-140v480h140v-175h85q40 0 40 40v30q0 52 37 83.5t123 31.5h30v-125h-20q-15 0 -25 -10t-10 -25v-20q0 -19 -8 -30.5t-17 -18.5
q-11 -8 -25 -11v-10z" />
    <glyph glyph-name="afii10077" unicode="&#x43b;" horiz-adv-x="535" 
d="M525 0h-140l-75 355h-85l-75 -355h-140l100 480h315z" />
    <glyph glyph-name="afii10078" unicode="&#x43c;" horiz-adv-x="660" 
d="M200 300h-10v-300h-140v480h150l130 -160l130 160h150v-480h-140v300h-10l-130 -160z" />
    <glyph glyph-name="afii10079" unicode="&#x43d;" horiz-adv-x="555" 
d="M50 480h140v-185h175v185h140v-480h-140v170h-175v-170h-140v480z" />
    <glyph glyph-name="afii10080" unicode="&#x43e;" horiz-adv-x="590" 
d="M295 105q24 0 47 10.5t40 29t27.5 43t10.5 52.5t-10.5 52.5t-27.5 43t-40 29t-47 10.5t-47 -10.5t-40 -29t-27.5 -43t-10.5 -52.5t10.5 -52.5t27.5 -43t40 -29t47 -10.5zM295 -20q-54 0 -102.5 21t-84.5 56.5t-57 82.5t-21 100q0 52 21 99.5t57 83t84.5 56.5t102.5 21
t102.5 -21t84.5 -56.5t57 -83t21 -99.5q0 -53 -21 -100t-57 -82.5t-84.5 -56.5t-102.5 -21z" />
    <glyph glyph-name="afii10081" unicode="&#x43f;" horiz-adv-x="555" 
d="M50 480h455v-480h-140v355h-175v-355h-140v480z" />
    <glyph glyph-name="afii10082" unicode="&#x440;" horiz-adv-x="585" 
d="M555 240q0 -56 -19 -104t-50.5 -82.5t-72 -54t-83.5 -19.5q-36 0 -60.5 10.5t-40.5 24.5q-18 15 -29 35h-10v-250h-140v680h140v-50h10q11 19 29 35q16 13 40.5 24t60.5 11q43 0 83.5 -19.5t72 -54t50.5 -82.5t19 -104zM190 190q12 -25 29 -43q14 -16 34.5 -29t46.5 -13
q49 0 82 35.5t33 99.5t-33 99.5t-82 35.5q-26 0 -46.5 -13.5t-34.5 -29.5q-17 -18 -29 -42v-100z" />
    <glyph glyph-name="afii10083" unicode="&#x441;" horiz-adv-x="550" 
d="M285 -20q-51 0 -97 21t-81 56.5t-56 82.5t-21 100q0 52 21 99.5t56 83t81 56.5t97 21q49 0 89 -14.5t70 -38t49 -53t27 -59.5l-140 -20q-11 23 -34 41.5t-61 18.5q-23 0 -43.5 -10t-36.5 -27.5t-25.5 -42.5t-9.5 -55t9.5 -55t25.5 -42.5t36.5 -27.5t43.5 -10
q42 0 68 22.5t37 52.5l140 -20q-8 -36 -27.5 -68.5t-50 -57t-73 -39.5t-94.5 -15z" />
    <glyph glyph-name="afii10084" unicode="&#x442;" horiz-adv-x="460" 
d="M10 480h440v-125h-150v-355h-140v355h-150v125z" />
    <glyph glyph-name="afii10085" unicode="&#x443;" horiz-adv-x="540" 
d="M520 480l-100 -480q-25 -120 -77 -175t-123 -55q-21 0 -39 3t-32 7q-16 4 -29 10l20 120q7 -4 16 -8q17 -7 39 -7q30 0 52 24t33 81h-155l-105 480h140l76 -355h69l75 355h140z" />
    <glyph glyph-name="afii10086" unicode="&#x444;" horiz-adv-x="670" 
d="M265 -10q-47 4 -89.5 25t-75 55t-51.5 77.5t-19 92.5t19 92.5t51.5 77.5t75 55t89.5 25v210h140v-210q47 -4 89.5 -25t75 -55t51.5 -77.5t19 -92.5t-19 -92.5t-51.5 -77.5t-75 -55t-89.5 -25v-190h-140v190zM500 240q0 53 -28.5 85t-66.5 40v-250q38 8 66.5 40t28.5 85z
M170 240q0 -53 28.5 -85t66.5 -40v250q-38 -8 -66.5 -40t-28.5 -85z" />
    <glyph glyph-name="afii10087" unicode="&#x445;" horiz-adv-x="500" 
d="M255 160h-10l-90 -160h-155l150 250l-140 230h150l85 -140h10l85 140h150l-140 -230l150 -250h-155z" />
    <glyph glyph-name="afii10088" unicode="&#x446;" horiz-adv-x="565" 
d="M50 480h140v-355h155v355h140v-355h70v-225h-140v100h-365v480z" />
    <glyph glyph-name="afii10089" unicode="&#x447;" horiz-adv-x="525" 
d="M180 320q0 -70 75 -70h80v230h140v-480h-140v125h-80q-102 0 -158.5 52t-56.5 143v160h140v-160z" />
    <glyph glyph-name="afii10090" unicode="&#x448;" horiz-adv-x="770" 
d="M455 125h125v355h140v-480h-670v480h140v-355h125v355h140v-355z" />
    <glyph glyph-name="afii10091" unicode="&#x449;" horiz-adv-x="795" 
d="M455 125h125v355h140v-355h65v-225h-140v100h-595v480h140v-355h125v355h140v-355z" />
    <glyph glyph-name="afii10092" unicode="&#x44a;" horiz-adv-x="555" 
d="M105 0v355h-105v125h245v-130h75q51 0 90.5 -14t67.5 -38t42.5 -55.5t14.5 -67.5t-14.5 -67.5t-42 -55.5t-67 -38t-89.5 -14h-217zM320 110q30 0 50 19.5t20 45.5t-20 45.5t-50 19.5h-75v-130h75z" />
    <glyph glyph-name="afii10093" unicode="&#x44b;" horiz-adv-x="714" 
d="M525 480h139v-480h-139v480zM265 110q30 0 50 19.5t20 45.5t-20 45.5t-50 19.5h-75v-130h75zM50 0v480h140v-130h75q51 0 90.5 -14t67.5 -38t42.5 -55.5t14.5 -67.5t-14.5 -67.5t-42 -55.5t-67 -38t-89.5 -14h-217z" />
    <glyph glyph-name="afii10094" unicode="&#x44c;" horiz-adv-x="510" 
d="M275 110q30 0 50 19.5t20 45.5t-20 45.5t-50 19.5h-85v-130h85zM50 0v480h140v-130h85q51 0 90.5 -14t67.5 -38t42.5 -55.5t14.5 -67.5t-14.5 -67.5t-42 -55.5t-67 -38t-89.5 -14h-227z" />
    <glyph glyph-name="afii10095" unicode="&#x44d;" horiz-adv-x="550" 
d="M225 296h145q-11 33 -37 56t-68 23q-38 0 -61 -18.5t-34 -41.5l-140 20q7 30 26.5 59.5t49.5 53t70 38t89 14.5q51 0 97 -21t81 -56.5t56 -83t21 -99.5q0 -53 -21 -100t-56 -82.5t-81 -56.5t-97 -21q-53 0 -95 15t-72.5 39.5t-50.5 57t-27 68.5l140 20q11 -30 37 -52.5
t68 -22.5t68 23t38 58h-146v110z" />
    <glyph glyph-name="afii10096" unicode="&#x44e;" horiz-adv-x="750" 
d="M480 500q49 0 92.5 -19.5t76.5 -54t52 -82.5t19 -104t-19 -104t-52 -82.5t-76.5 -54t-92.5 -19.5q-45 0 -83 15t-68 41t-51.5 62t-32.5 77h-55v-175h-140v480h140v-180h55q11 43 32.5 79.5t51.5 63.5t68 42t83 15zM480 375q-19 0 -37 -9t-32 -26.5t-22.5 -42.5t-8.5 -57
t8.5 -57t22.5 -42.5t32 -26.5t37 -9t37 9t32 26.5t22.5 42.5t8.5 57t-8.5 57t-22.5 42.5t-32 26.5t-37 9z" />
    <glyph glyph-name="afii10097" unicode="&#x44f;" horiz-adv-x="530" 
d="M480 480v-480h-140v120h-95l-75 -120h-150l95 155q-25 13 -43 33q-16 17 -29 44.5t-13 67.5q0 37 14.5 70t42.5 57.5t67.5 38.5t90.5 14h235zM245 365q-30 0 -50 -19.5t-20 -45.5t18.5 -45.5t51.5 -19.5h95v130h-95z" />
    <glyph glyph-name="afii10071" unicode="&#x451;" 
d="M285 500q54 0 101.5 -20t83 -55.5t55.5 -83t20 -101.5l-50 -50h-315q11 -38 37 -61.5t68 -23.5q24 0 41.5 4.5t30.5 12t21.5 17.5t16.5 21l140 -20q-11 -30 -32 -59t-52 -51.5t-72.5 -36t-93.5 -13.5q-51 0 -97 21t-81 56.5t-56 82.5t-21 100q0 52 21 99.5t56 83t81 56.5
t97 21zM285 375q-42 0 -68 -23.5t-37 -61.5h210q-11 38 -37 61.5t-68 23.5zM108 631q0 30 20 50t50 20t50 -20t20 -50t-20 -50t-50 -20t-50 20t-20 50zM308 631q0 30 20 50t50 20t50 -20t20 -50t-20 -50t-50 -20t-50 20t-20 50z" />
    <glyph glyph-name="afii10099" unicode="&#x452;" horiz-adv-x="575" 
d="M535 30q0 -43 -14 -79t-38.5 -61.5t-57.5 -40t-70 -14.5q-21 0 -39 3t-32 7q-16 4 -29 10l20 120q7 -4 16 -8q17 -7 39 -7q30 0 47.5 18t17.5 52v180q0 45 -25.5 72.5t-59.5 27.5q-25 0 -44 -13.5t-33 -29.5q-16 -18 -28 -42v-225h-140v480h-55v125h55v95h140v-95h103
v-125h-103v-115h10q11 19 29 35q15 13 38.5 24t57.5 11q39 0 74.5 -16t62.5 -45.5t42.5 -71t15.5 -92.5v-180z" />
    <glyph glyph-name="afii10100" unicode="&#x453;" horiz-adv-x="430" 
d="M350 600l-165 -60l-35 80l155 80zM50 480h380v-125h-240v-355h-140v480z" />
    <glyph glyph-name="afii10101" unicode="&#x454;" horiz-adv-x="550" 
d="M325 186h-146q12 -35 38 -58t68 -23t68 22.5t37 52.5l140 -20q-8 -36 -27.5 -68.5t-50 -57t-73 -39.5t-94.5 -15q-51 0 -97 21t-81 56.5t-56 82.5t-21 100q0 52 21 99.5t56 83t81 56.5t97 21q49 0 89 -14.5t70 -38t49 -53t27 -59.5l-140 -20q-11 23 -34 41.5t-61 18.5
q-42 0 -68 -23t-37 -56h145v-110z" />
    <glyph glyph-name="afii10102" unicode="&#x455;" horiz-adv-x="495" 
d="M40 355q0 26 14 52t41 46.5t67 33.5t93 13q45 0 81.5 -13t64 -33.5t46.5 -46.5t28 -52l-130 -20q-8 15 -30 32.5t-60 17.5q-30 0 -47.5 -15t-17.5 -30q0 -16 21 -25.5t53 -18t68.5 -19t68.5 -29t53 -48t21 -75.5q0 -26 -14 -52t-42 -46.5t-70.5 -33.5t-98.5 -13
q-51 0 -90.5 13t-69 34.5t-49.5 49.5t-31 58l140 20q11 -23 34.5 -41.5t65.5 -18.5q38 0 56.5 15t18.5 30q0 16 -21 25.5t-53 18t-68.5 19t-68.5 29t-53 48t-21 75.5z" />
    <glyph glyph-name="afii10103" unicode="&#x456;" horiz-adv-x="250" 
d="M195 0h-140v480h140v-480zM45 650q0 34 23 57t57 23t57 -23t23 -57t-23 -57t-57 -23t-57 23t-23 57z" />
    <glyph glyph-name="afii10104" unicode="&#x457;" horiz-adv-x="260" 
d="M-39 634q0 30 20 50t50 20t50 -20t20 -50t-20 -50t-50 -20t-50 20t-20 50zM161 634q0 30 20 50t50 20t50 -20t20 -50t-20 -50t-50 -20t-50 20t-20 50zM200 0h-140v480h140v-480z" />
    <glyph glyph-name="afii10105" unicode="&#x458;" horiz-adv-x="250" 
d="M195 -25q0 -43 -14 -79t-38.5 -61.5t-57.5 -40t-70 -14.5q-21 0 -39 3t-32 7q-16 4 -29 10l20 120q7 -4 16 -8q17 -7 39 -7q30 0 47.5 18t17.5 52v505h140v-505zM45 650q0 34 23 57t57 23t57 -23t23 -57t-23 -57t-57 -23t-57 23t-23 57z" />
    <glyph glyph-name="afii10106" unicode="&#x459;" horiz-adv-x="780" 
d="M320 0v355h-105l-75 -355h-140l105 480h355v-130h85q51 0 90.5 -14t67.5 -38t42.5 -55.5t14.5 -67.5t-14.5 -67.5t-42 -55.5t-67 -38t-89.5 -14h-227zM545 110q30 0 50 19.5t20 45.5t-20 45.5t-50 19.5h-85v-130h85z" />
    <glyph glyph-name="afii10107" unicode="&#x45a;" horiz-adv-x="800" 
d="M345 0v205h-155v-205h-140v480h140v-150h155v150h140v-150h95q47 0 84 -13t63 -35.5t39.5 -52.5t13.5 -64t-13.5 -64t-39.5 -52.5t-63 -35.5t-84 -13h-235zM580 110q26 0 43 16t17 39t-17 39t-43 16h-95v-110h95z" />
    <glyph glyph-name="afii10108" unicode="&#x45b;" horiz-adv-x="580" 
d="M535 0h-140v210q0 45 -25.5 72.5t-59.5 27.5q-25 0 -44 -13.5t-33 -29.5q-16 -18 -28 -42v-225h-140v480h-55v125h55v95h140v-95h103v-125h-103v-115h10q11 19 29 35q15 13 38.5 24t57.5 11q39 0 74.5 -16t62.5 -45.5t42.5 -71t15.5 -92.5v-210z" />
    <glyph glyph-name="afii10109" unicode="&#x45c;" horiz-adv-x="535" 
d="M385 600l-165 -60l-35 80l155 80zM400 240q17 -5 30 -14q11 -8 20.5 -20t9.5 -31v-25q0 -15 10 -25t25 -10h20v-125h-30q-86 0 -123 31t-37 84v35q0 40 -40 40h-95v-180h-140v480h140v-175h85q40 0 40 40v30q0 52 37 83.5t123 31.5h30v-125h-20q-15 0 -25 -10t-10 -25
v-20q0 -19 -8 -30.5t-17 -18.5q-11 -8 -25 -11v-10z" />
    <glyph glyph-name="afii10110" unicode="&#x45e;" horiz-adv-x="540" 
d="M520 480l-100 -480q-25 -120 -77 -175t-123 -55q-21 0 -39 3t-32 7q-16 4 -29 10l20 120q7 -4 16 -8q17 -7 39 -7q30 0 52 24t33 81h-155l-105 480h140l76 -355h69l75 355h140zM267 555q-30 0 -55.5 10.5t-44.5 29.5t-29.5 44.5t-10.5 55.5h90q0 -23 13.5 -36.5
t36.5 -13.5t36.5 13.5t13.5 36.5h90q0 -30 -10.5 -55.5t-29.5 -44.5t-44.5 -29.5t-55.5 -10.5z" />
    <glyph glyph-name="afii10193" unicode="&#x45f;" horiz-adv-x="555" 
d="M505 0h-160v-110h-140v110h-155v480h140v-355h175v355h140v-480z" />
    <glyph glyph-name="afii10050" unicode="&#x490;" horiz-adv-x="565" 
d="M215 560v-560h-155v700h350v90h155v-230h-350z" />
    <glyph glyph-name="afii10098" unicode="&#x491;" horiz-adv-x="430" 
d="M190 0h-140v480h240v80h140v-205h-240v-355z" />
    <glyph glyph-name="uni1E9E" unicode="&#x1e9e;" horiz-adv-x="710" 
d="M330 320v95l120 145v10h-115q-60 0 -90 -28.5t-30 -81.5v-460h-155v460q0 52 18.5 96.5t53.5 76t86 49.5t117 18h295v-115l-125 -155v-10q48 -12 87 -38q16 -11 32 -25.5t28.5 -34t20 -43.5t7.5 -54q0 -47 -17 -88t-50.5 -71.5t-84.5 -48t-118 -17.5h-80v130h80
q24 0 44.5 8t35 21t22.5 30t8 36t-8 36t-22.5 30t-35 21t-44.5 8h-80z" />
    <glyph glyph-name="endash" unicode="&#x2013;" horiz-adv-x="625" 
d="M20 220v125h585v-125h-585z" />
    <glyph glyph-name="emdash" unicode="&#x2014;" horiz-adv-x="780" 
d="M20 220v125h740v-125h-740z" />
    <glyph glyph-name="quoteleft" unicode="&#x2018;" horiz-adv-x="220" 
d="M190 550q0 -34 -23 -57t-57 -23t-57 23t-23 57q0 20 7 36q4 8 8 14l80 110h60l-35 -90q11 -6 20 -16q8 -8 14 -21.5t6 -32.5z" />
    <glyph glyph-name="quoteright" unicode="&#x2019;" horiz-adv-x="220" 
d="M30 630q0 34 23 57t57 23t57 -23t23 -57q0 -11 -2.5 -20t-5.5 -16l-7 -14l-80 -110h-60l35 90q-11 6 -20 16q-8 8 -14 21.5t-6 32.5z" />
    <glyph glyph-name="quotesinglbase" unicode="&#x201a;" horiz-adv-x="220" 
d="M30 60q0 34 23 57t57 23t57 -23t23 -57q0 -11 -2.5 -20t-5.5 -16l-7 -14l-80 -110h-60l35 90q-11 6 -20 16q-8 8 -14 21.5t-6 32.5z" />
    <glyph glyph-name="quotedblleft" unicode="&#x201c;" horiz-adv-x="410" 
d="M190 550q0 -34 -23 -57t-57 -23t-57 23t-23 57q0 20 7 36q4 8 8 14l80 110h60l-35 -90q11 -6 20 -16q8 -8 14 -21.5t6 -32.5zM380 550q0 -34 -23 -57t-57 -23t-57 23t-23 57q0 20 7 36q4 8 8 14l80 110h60l-35 -90q11 -6 20 -16q8 -8 14 -21.5t6 -32.5z" />
    <glyph glyph-name="quotedblright" unicode="&#x201d;" horiz-adv-x="410" 
d="M30 630q0 34 23 57t57 23t57 -23t23 -57q0 -11 -2.5 -20t-5.5 -16l-7 -14l-80 -110h-60l35 90q-11 6 -20 16q-8 8 -14 21.5t-6 32.5zM220 630q0 34 23 57t57 23t57 -23t23 -57q0 -11 -2.5 -20t-5.5 -16l-7 -14l-80 -110h-60l35 90q-11 6 -20 16q-8 8 -14 21.5t-6 32.5z
" />
    <glyph glyph-name="quotedblbase" unicode="&#x201e;" horiz-adv-x="410" 
d="M30 60q0 34 23 57t57 23t57 -23t23 -57q0 -11 -2.5 -20t-5.5 -16l-7 -14l-80 -110h-60l35 90q-11 6 -20 16q-8 8 -14 21.5t-6 32.5zM220 60q0 34 23 57t57 23t57 -23t23 -57q0 -11 -2.5 -20t-5.5 -16l-7 -14l-80 -110h-60l35 90q-11 6 -20 16q-8 8 -14 21.5t-6 32.5z" />
    <glyph glyph-name="dagger" unicode="&#x2020;" horiz-adv-x="455" 
d="M150 390h-120v130h120v180h155v-180h120v-130h-120v-390h-155v390z" />
    <glyph glyph-name="daggerdbl" unicode="&#x2021;" horiz-adv-x="455" 
d="M150 440h-120v130h120v130h155v-130h120v-130h-120v-180h120v-130h-120v-130h-155v130h-120v130h120v180z" />
    <glyph glyph-name="bullet" unicode="&#x2022;" horiz-adv-x="290" 
d="M40 295q0 45 30 75t75 30t75 -30t30 -75t-30 -75t-75 -30t-75 30t-30 75z" />
    <glyph glyph-name="ellipsis" unicode="&#x2026;" horiz-adv-x="680" 
d="M30 60q0 34 23 57t57 23t57 -23t23 -57t-23 -57t-57 -23t-57 23t-23 57zM490 60q0 34 23 57t57 23t57 -23t23 -57t-23 -57t-57 -23t-57 23t-23 57zM260 60q0 34 23 57t57 23t57 -23t23 -57t-23 -57t-57 -23t-57 23t-23 57z" />
    <glyph glyph-name="perthousand" unicode="&#x2030;" horiz-adv-x="1095" 
d="M245 0h-150l415 700h150zM180 480q19 0 34.5 18t15.5 52t-15.5 52t-34.5 18t-34.5 -18t-15.5 -52t15.5 -52t34.5 -18zM180 380q-32 0 -61 13t-51 36t-35 54t-13 67t13 67t35 54t51 36t61 13t61 -13t51 -36t35 -54t13 -67t-13 -67t-35 -54t-51 -36t-61 -13zM570 80
q19 0 34.5 18t15.5 52t-15.5 52t-34.5 18t-34.5 -18t-15.5 -52t15.5 -52t34.5 -18zM570 -20q-32 0 -61 13t-51 36t-35 54t-13 67t13 67t35 54t51 36t61 13t61 -13t51 -36t35 -54t13 -67t-13 -67t-35 -54t-51 -36t-61 -13zM915 80q19 0 34.5 18t15.5 52t-15.5 52t-34.5 18
t-34.5 -18t-15.5 -52t15.5 -52t34.5 -18zM915 -20q-32 0 -61 13t-51 36t-35 54t-13 67t13 67t35 54t51 36t61 13t61 -13t51 -36t35 -54t13 -67t-13 -67t-35 -54t-51 -36t-61 -13z" />
    <glyph glyph-name="guilsinglleft" unicode="&#x2039;" horiz-adv-x="365" 
d="M195 230l150 -155l-85 -85l-240 245l240 245l85 -85l-150 -155v-10z" />
    <glyph glyph-name="guilsinglright" unicode="&#x203a;" horiz-adv-x="365" 
d="M170 240l-150 155l85 85l240 -245l-240 -245l-85 85l150 155v10z" />
    <glyph glyph-name="fraction" unicode="&#x2044;" horiz-adv-x="565" 
d="M150 0h-150l415 700h150z" />
    <glyph glyph-name="foursuperior" unicode="&#x2074;" horiz-adv-x="325" 
d="M180 360v55h-170v90l90 195h110l-90 -195h60v50h100v-50h35v-90h-35v-55h-100z" />
    <glyph glyph-name="Euro" unicode="&#x20ac;" horiz-adv-x="820" 
d="M70 325v50h-50v90h69q19 57 54.5 105.5t83 84t104.5 55.5t119 20q67 0 122.5 -20t97 -52.5t69.5 -75t41 -87.5l-155 -20q-11 22 -27.5 43t-38.5 37t-50 25.5t-64 9.5q-60 0 -112 -34t-81 -91h218v-90h-245v-50h245v-90h-218q29 -57 81 -91t112 -34q39 0 70.5 10.5
t56 28.5t42.5 41.5t31 49.5l155 -20q-13 -47 -42.5 -92t-74 -80t-103.5 -56.5t-130 -21.5q-62 0 -119 20t-104.5 55.5t-83 84t-54.5 105.5h-69v90h50z" />
    <glyph glyph-name="uni20B4" unicode="&#x20b4;" horiz-adv-x="655" 
d="M40 375v90h375q7 5 12 13q5 7 9 16t4 21q0 30 -29 55t-86 25q-53 0 -81 -23.5t-39 -61.5l-155 20q9 39 31.5 75.5t57.5 64t81.5 44t105.5 16.5q67 0 118.5 -16.5t86 -44.5t52 -65.5t17.5 -78.5q0 -16 -3 -26.5t-7 -18.5q-4 -9 -10 -15h35v-90h-575zM615 325v-90h-375
q-8 -5 -13 -13q-5 -7 -8.5 -16.5t-3.5 -20.5q0 -30 29 -55t86 -25q53 0 81 23.5t39 61.5l155 -20q-9 -39 -31.5 -75.5t-57.5 -64t-82 -44t-105 -16.5q-67 0 -118.5 16.5t-86 44.5t-52 65.5t-17.5 78.5q0 15 3 26t7 19q4 9 10 15h-35v90h575z" />
    <glyph glyph-name="uni20BD" unicode="&#x20bd;" horiz-adv-x="675" 
d="M30 375h70v325h270q67 0 118.5 -17t86.5 -47t52.5 -71t17.5 -90t-17.5 -90t-52.5 -71t-86.5 -47t-118.5 -17h-115v-45h220v-125h-220v-80h-155v80h-70v125h70v45h-70v125zM255 575v-200h115q57 0 88.5 29t31.5 71t-31.5 71t-88.5 29h-115z" />
    <glyph glyph-name="afii61352" unicode="&#x2116;" horiz-adv-x="1070" 
d="M730 0v115h300v-115h-300zM500 260h10v440h155v-700h-170l-270 440h-10v-440h-155v700h170zM880 270q19 0 34.5 18t15.5 52t-15.5 52t-34.5 18t-34.5 -18t-15.5 -52t15.5 -52t34.5 -18zM880 170q-32 0 -61 13t-51 36t-35 54t-13 67t13 67t35 54t51 36t61 13t61 -13
t51 -36t35 -54t13 -67t-13 -67t-35 -54t-51 -36t-61 -13z" />
    <glyph glyph-name="trademark" unicode="&#x2122;" horiz-adv-x="765" 
d="M460 540h-10v-160h-115v320h125l75 -100l75 100h125v-320h-115v160h-10l-75 -100zM305 595h-90v-215h-115v215h-90v105h295v-105z" />
    <glyph glyph-name="minus" unicode="&#x2212;" horiz-adv-x="420" 
d="M20 245v125h380v-125h-380z" />
    <glyph glyph-name="commaaccent" unicode="&#xf6c3;" horiz-adv-x="200" 
d="M30 -160q0 13 6 25.5t16 22.5t22.5 16t25.5 6t25.5 -6t22.5 -16t16 -22.5t6 -25.5q0 -10 -1.5 -17t-3.5 -12q-3 -6 -5 -11l-75 -110h-50l30 90q-10 5 -18 13q-7 7 -12 18.5t-5 28.5z" />
    <glyph glyph-name="cyrBreve" unicode="&#xf6d1;" horiz-adv-x="370" 
d="M185 785q-34 0 -62.5 11.5t-49 32t-32 49t-11.5 62.5h100q0 -23 16 -39t39 -16t39 16t16 39h100q0 -34 -11.5 -62.5t-32 -49t-49 -32t-62.5 -11.5z" />
    <glyph glyph-name="cyrbreve" unicode="&#xf6d4;" horiz-adv-x="340" 
d="M170 555q-30 0 -55.5 10.5t-44.5 29.5t-29.5 44.5t-10.5 55.5h90q0 -23 13.5 -36.5t36.5 -13.5t36.5 13.5t13.5 36.5h90q0 -30 -10.5 -55.5t-29.5 -44.5t-44.5 -29.5t-55.5 -10.5z" />
    <glyph glyph-name="Germandbls" horiz-adv-x="710" 
d="M330 320v95l120 145v10h-115q-60 0 -90 -28.5t-30 -81.5v-460h-155v460q0 52 18.5 96.5t53.5 76t86 49.5t117 18h295v-115l-125 -155v-10q48 -12 87 -38q16 -11 32 -25.5t28.5 -34t20 -43.5t7.5 -54q0 -47 -17 -88t-50.5 -71.5t-84.5 -48t-118 -17.5h-80v130h80
q24 0 44.5 8t35 21t22.5 30t8 36t-8 36t-22.5 30t-35 21t-44.5 8h-80z" />
    <glyph glyph-name="foundryicon" horiz-adv-x="1230" 
d="M100 810h1030v-920h-1030v920zM1110 790h-990v-880h990v880zM745 610q38 0 59 -19.5t21 -45.5t-21 -45.5t-59 -19.5h-55v-80h-55v210h110zM745 300q38 0 59 -19.5t21 -45.5t-21 -45.5t-59 -19.5h-55v-80h-55v210h110zM420 300h60l40 -75h5l40 75h65l-80 -130v-80h-55v80z
M420 610h60l40 -75h5l40 75h65l-80 -130v-80h-55v80zM235 255v45h165l25 -45h-70v-165h-55v165h-65zM235 565v45h165l25 -45h-70v-165h-55v165h-65zM790 465q19 4 37.5 20.5t22.5 39.5h80v-45h-85v-35h120v-45h-175v65zM790 155q19 4 37.5 20.5t22.5 39.5h80v-45h-85v-35
h120v-45h-175v65zM965 300v-45h-115q-4 15 -14.5 28t-25.5 17h155zM965 610v-45h-115q-4 15 -14.5 28t-25.5 17h155zM765 545q0 8 -6 14t-14 6h-55v-40h55q8 0 14 6t6 14zM765 235q0 8 -6 14t-14 6h-55v-40h55q8 0 14 6t6 14z" />
    </font>
</defs>
</svg>
